<?xml version="1.0" standalone="no"?>
<!DOCTYPE svg PUBLIC "-//W3C//DTD SVG 20010904//EN"
 "http://www.w3.org/TR/2001/REC-SVG-20010904/DTD/svg10.dtd">
<svg version="1.0" xmlns="http://www.w3.org/2000/svg"
 width="736.000000pt" height="1004.000000pt" viewBox="0 0 736.000000 1004.000000"
 preserveAspectRatio="xMidYMid meet">

<g transform="translate(0.000000,1004.000000) scale(0.100000,-0.100000)"
fill="#000000" stroke="none">
<path d="M7040 9115 c-41 -19 -124 -52 -185 -74 -60 -22 -132 -51 -159 -65
-27 -14 -64 -28 -82 -32 -19 -3 -34 -10 -34 -15 0 -5 -5 -9 -11 -9 -11 0 -159
-68 -284 -130 -34 -17 -68 -30 -77 -30 -9 0 -19 -4 -22 -9 -4 -5 -59 -35 -124
-66 -108 -52 -151 -73 -221 -109 -14 -7 -44 -22 -66 -34 -191 -96 -321 -166
-323 -173 -2 -5 -12 -9 -21 -9 -10 0 -29 -8 -42 -19 -13 -10 -44 -28 -69 -41
-25 -12 -58 -33 -73 -46 -16 -13 -37 -24 -47 -24 -10 0 -20 -3 -22 -7 -4 -10
-65 -53 -74 -53 -9 0 -178 -113 -182 -122 -2 -5 -10 -8 -17 -8 -8 0 -50 -30
-94 -67 -44 -38 -101 -84 -127 -103 -26 -19 -61 -47 -78 -62 -17 -14 -53 -45
-81 -69 -121 -104 -570 -552 -724 -725 -25 -27 -87 -96 -139 -154 -52 -58
-138 -150 -191 -206 -53 -55 -123 -131 -156 -168 -33 -38 -86 -96 -118 -130
-31 -33 -83 -95 -114 -136 -31 -41 -67 -84 -78 -95 -32 -29 -141 -157 -151
-177 -5 -10 -30 -39 -55 -65 -25 -26 -57 -66 -71 -88 -14 -22 -37 -53 -52 -70
-14 -16 -26 -33 -26 -37 0 -4 -6 -13 -13 -20 -7 -7 -33 -40 -57 -73 -24 -33
-47 -61 -52 -63 -4 -2 -8 -8 -8 -13 0 -11 -58 -101 -94 -145 -14 -17 -30 -43
-36 -59 -6 -15 -20 -39 -31 -54 -11 -14 -34 -46 -50 -71 -16 -25 -47 -70 -69
-100 -22 -30 -48 -71 -59 -90 -10 -19 -31 -48 -45 -63 -14 -15 -26 -34 -26
-42 0 -13 -37 -45 -52 -45 -11 0 -10 59 2 100 6 19 13 55 16 80 3 25 12 71 19
103 7 31 9 55 5 52 -12 -7 -50 -111 -50 -136 0 -11 -10 -39 -21 -62 -23 -43
-99 -269 -99 -291 0 -7 -17 -27 -38 -44 l-39 -30 -11 50 c-7 27 -12 82 -13
121 l-1 72 -15 -50 c-8 -27 -18 -59 -22 -70 -5 -11 -14 -45 -21 -75 -35 -158
-70 -220 -148 -263 -11 -7 -59 -40 -107 -74 -47 -35 -88 -63 -92 -63 -10 0
-81 -63 -211 -187 -70 -66 -142 -134 -161 -150 -19 -15 -50 -41 -69 -58 -38
-32 -132 -152 -132 -168 0 -9 -41 -81 -104 -181 -17 -27 -31 -55 -32 -62 -1
-7 -13 -28 -27 -46 -14 -18 -37 -58 -52 -88 -36 -76 -56 -110 -93 -160 -18
-24 -32 -50 -32 -58 0 -7 -13 -33 -30 -57 -16 -24 -30 -46 -30 -49 0 -4 -28
-47 -62 -97 -120 -175 -190 -308 -186 -352 3 -30 5 -32 46 -33 23 -1 45 3 48
8 4 5 18 -2 33 -15 22 -22 34 -25 89 -24 34 1 62 0 62 -3 0 -13 -61 -94 -112
-148 -31 -33 -59 -69 -62 -80 -4 -11 -18 -27 -31 -36 -14 -9 -25 -21 -25 -27
0 -6 -20 -34 -45 -61 -25 -28 -44 -53 -42 -55 5 -4 78 36 87 47 4 6 104 69
149 95 15 9 90 58 161 105 14 9 39 24 57 33 17 9 37 23 45 30 8 8 29 22 47 32
19 9 43 28 56 43 21 24 23 25 46 9 54 -38 192 -18 483 71 72 22 89 19 158 -26
85 -55 173 -92 233 -99 28 -3 96 -18 151 -34 56 -16 110 -29 121 -29 11 0 47
-13 79 -29 83 -41 130 -61 143 -61 6 0 11 -4 11 -8 0 -16 68 -32 138 -32 l72
0 44 45 c55 58 70 103 50 151 -8 19 -49 72 -92 116 -70 75 -73 79 -32 52 92
-62 160 -104 169 -104 5 0 31 -11 58 -24 26 -14 77 -34 112 -46 144 -50 241 3
241 131 0 51 -45 187 -71 215 -24 26 -24 34 1 34 19 0 122 -31 165 -50 55 -24
126 -49 180 -64 207 -54 219 -56 412 -56 104 0 204 5 223 10 54 16 266 52 350
60 41 4 86 12 100 17 14 6 48 14 75 17 28 4 73 13 100 21 28 7 70 17 95 20 25
4 52 11 61 16 9 4 63 17 120 28 57 12 127 29 154 39 43 16 173 52 295 81 19 5
47 12 61 15 24 7 26 4 39 -48 14 -60 16 -61 70 -46 38 10 59 14 165 30 39 6
90 15 115 19 156 30 273 52 330 62 36 6 99 18 140 27 41 9 83 16 94 14 13 -1
16 2 12 13 -3 8 -8 37 -12 63 -3 26 -12 72 -20 103 -8 31 -14 73 -14 93 0 35
-13 110 -51 296 -10 53 -19 110 -19 128 0 31 -11 94 -50 292 -11 52 -19 106
-19 120 1 27 -46 283 -61 340 -6 19 -10 54 -10 77 0 23 -7 75 -15 115 -8 40
-19 101 -26 135 l-12 63 -46 -24 c-25 -13 -96 -48 -156 -78 -61 -31 -120 -60
-130 -65 -11 -6 -72 -37 -135 -68 -63 -32 -119 -61 -125 -64 -5 -4 -41 -18
-80 -30 -38 -13 -74 -28 -79 -32 -6 -5 -18 -9 -27 -9 -10 0 -55 -16 -100 -35
-46 -19 -89 -35 -97 -35 -18 0 -139 -40 -171 -56 -14 -8 -33 -14 -42 -14 -9 0
-61 -16 -115 -35 -54 -19 -106 -35 -116 -35 -10 0 -45 -9 -76 -19 -47 -16 -80
-19 -173 -17 -63 2 -123 8 -134 13 -11 6 -40 14 -65 17 -45 7 -204 63 -268 94
-19 9 -40 17 -49 18 -8 1 -22 9 -31 16 -10 8 -34 21 -54 31 -37 16 -37 17 -24
49 20 51 18 189 -4 302 -28 140 -50 204 -108 312 -16 30 -8 44 23 44 14 0 80
15 147 34 177 49 348 94 384 101 24 5 78 54 235 217 112 116 236 243 274 283
81 82 216 224 394 410 120 126 161 177 161 202 0 47 -173 127 -365 168 -33 7
-85 19 -115 26 l-55 13 65 7 c36 4 99 10 140 14 41 3 111 11 155 16 44 6 141
14 215 19 74 4 152 14 173 20 l39 11 -40 22 c-23 12 -51 31 -64 42 -13 11 -41
33 -63 50 -22 16 -44 34 -50 40 -5 6 -21 18 -35 27 -34 21 -130 108 -130 118
0 4 57 10 128 14 70 4 172 14 227 22 55 7 125 14 157 14 56 0 56 0 92 50 20
28 36 54 36 58 0 5 8 17 18 28 9 10 48 65 85 120 37 56 74 107 82 114 8 7 15
17 15 23 0 5 16 32 35 58 19 27 35 53 35 58 0 5 7 17 16 25 9 9 47 78 86 154
39 75 74 139 79 140 5 2 9 9 9 17 0 7 18 35 40 63 22 27 40 53 40 57 0 4 22
35 49 69 26 33 65 86 86 116 21 30 42 59 46 65 5 5 25 30 44 55 63 82 80 102
115 146 62 75 144 175 167 202 13 15 23 30 23 34 0 5 27 36 59 70 33 35 74 81
91 103 17 22 35 42 39 45 5 3 10 11 12 17 2 7 55 64 117 128 73 74 107 115 95
114 -10 0 -52 -16 -93 -34z m-779 -622 c-34 -27 -77 -58 -94 -71 -18 -13 -41
-32 -53 -43 -11 -10 -25 -19 -32 -19 -6 0 -15 -6 -19 -14 -7 -12 -120 -103
-203 -162 -39 -28 -104 -81 -150 -121 -21 -18 -41 -33 -45 -33 -6 0 -78 -56
-130 -102 -13 -11 80 -1 155 17 30 8 82 16 115 20 33 3 75 8 94 11 l34 5 -42
-50 c-23 -27 -55 -64 -72 -82 -16 -18 -34 -40 -40 -50 -8 -17 -118 -74 -199
-104 -19 -7 -54 -23 -77 -34 -23 -12 -47 -21 -53 -21 -6 0 -42 -16 -80 -35
-38 -19 -74 -35 -80 -35 -5 0 -38 -13 -72 -30 -34 -16 -70 -30 -80 -30 -10 0
-18 -3 -18 -8 0 -4 -30 -20 -67 -36 -142 -59 -168 -70 -178 -79 -6 -6 1 -7 20
-2 110 26 218 48 265 55 30 4 87 15 125 25 152 36 192 44 242 49 l52 5 -29
-41 c-17 -23 -30 -46 -30 -52 0 -6 -16 -31 -35 -54 -19 -24 -37 -52 -40 -62
-3 -11 -24 -22 -53 -30 -26 -6 -67 -18 -92 -25 -25 -7 -74 -20 -110 -29 -101
-25 -220 -56 -280 -72 -118 -32 -156 -42 -195 -48 -58 -10 -75 -16 -75 -27 0
-5 21 -33 48 -62 70 -80 96 -112 115 -140 16 -24 15 -26 -6 -40 -12 -8 -33
-18 -47 -22 -14 -4 -29 -11 -35 -15 -5 -4 -34 -15 -64 -24 -30 -10 -77 -28
-104 -42 -28 -13 -56 -24 -63 -24 -7 0 -47 -16 -90 -35 -42 -19 -82 -35 -89
-35 -7 0 -36 -11 -64 -24 l-50 -23 77 -39 c42 -21 88 -46 102 -55 26 -17 104
-60 205 -113 33 -17 71 -39 85 -49 13 -9 32 -17 41 -17 9 0 21 -6 27 -13 9
-10 -15 -39 -101 -125 l-112 -111 -75 -11 c-41 -6 -113 -18 -160 -27 -47 -9
-96 -17 -108 -19 -13 -1 -45 -7 -70 -13 -26 -5 -74 -13 -107 -16 -33 -4 -89
-14 -124 -22 l-64 -16 49 -15 c113 -32 244 -73 319 -97 44 -14 109 -33 145
-41 35 -8 69 -19 75 -25 6 -7 6 -9 0 -8 -12 4 -175 -27 -355 -68 -36 -8 -103
-21 -149 -28 -46 -8 -86 -17 -90 -21 -3 -4 41 -4 99 -1 393 23 392 23 330 -25
-81 -63 -175 -142 -178 -149 -2 -5 -9 -9 -16 -9 -6 0 -26 -12 -43 -27 -73 -64
-86 -73 -106 -73 -12 0 -38 -5 -57 -10 -19 -6 -98 -15 -175 -20 -78 -6 -152
-13 -165 -16 -14 -3 -41 -8 -60 -11 -64 -11 -119 -40 -125 -66 -7 -27 24 -130
50 -171 10 -14 15 -26 12 -26 -3 0 10 -44 30 -97 19 -54 39 -114 43 -133 12
-43 13 -110 3 -110 -20 0 -74 43 -109 86 -42 53 -104 114 -114 114 -4 0 -19
-10 -33 -23 -23 -19 -27 -31 -27 -74 0 -54 11 -87 60 -185 l29 -57 -57 -21
c-62 -23 -117 -47 -203 -91 -31 -15 -74 -33 -95 -38 -22 -5 -76 -24 -122 -40
-46 -17 -91 -31 -101 -31 -24 0 -85 -68 -100 -112 -7 -23 -10 -59 -6 -95 3
-32 2 -71 -3 -88 -8 -28 -11 -30 -58 -29 -27 1 -71 7 -98 14 -42 10 -53 10
-90 -6 -22 -10 -52 -27 -66 -39 -14 -12 -32 -26 -42 -31 -9 -5 -70 -58 -135
-119 -138 -127 -170 -155 -180 -155 -4 0 -24 -17 -44 -37 -52 -54 -102 -93
-116 -93 -7 0 -13 -4 -13 -9 0 -5 -35 -39 -77 -76 -43 -37 -89 -77 -103 -89
-44 -38 -51 -38 -28 1 12 21 26 43 31 48 6 8 95 146 192 297 6 9 32 49 60 89
27 41 55 84 62 97 7 13 21 35 33 49 11 14 20 30 20 35 0 5 4 14 10 21 46 56
60 76 60 85 0 5 15 29 34 53 18 24 43 63 55 87 12 23 26 42 31 42 6 0 10 6 10
13 0 8 12 29 26 48 30 40 83 120 105 160 9 16 21 34 26 41 6 7 21 33 34 58 13
25 38 62 56 83 18 20 33 42 33 48 0 6 12 28 28 48 15 20 32 43 37 52 40 66
109 165 116 167 5 2 9 10 9 17 0 7 11 26 24 42 13 15 58 80 101 143 90 133
127 184 138 188 4 2 7 8 7 13 0 5 15 26 33 45 17 20 30 38 29 41 -2 3 7 17 20
31 14 15 52 63 84 108 33 44 68 89 78 100 18 20 56 69 121 154 22 29 55 70 73
90 17 21 32 41 32 44 0 4 14 19 30 33 17 13 30 30 30 36 0 7 16 27 35 46 19
19 35 37 35 41 0 4 19 28 43 52 23 25 53 58 66 74 104 123 258 289 413 445
198 199 432 422 449 428 6 2 34 26 62 53 47 45 194 164 381 307 39 30 87 68
108 85 37 32 73 59 113 86 33 23 186 136 219 162 16 13 41 30 56 38 23 13 67
46 152 115 9 8 30 21 45 30 36 20 136 90 157 110 6 6 23 16 39 24 15 8 27 18
27 21 0 4 15 13 33 21 27 11 89 51 107 69 6 6 30 21 96 60 28 17 59 39 69 50
10 11 23 20 29 20 13 0 102 54 155 94 19 14 39 26 45 26 5 0 -18 -21 -53 -47z
m-1291 -648 c-7 -8 -17 -15 -22 -15 -5 0 -24 -15 -42 -32 -17 -18 -62 -60 -99
-93 -37 -33 -113 -104 -169 -159 -57 -54 -173 -164 -258 -244 -242 -226 -252
-236 -667 -649 -216 -214 -393 -396 -393 -403 0 -14 -46 -72 -97 -124 -18 -18
-33 -36 -33 -40 0 -11 -122 -166 -132 -166 -4 0 -8 -5 -8 -11 0 -6 -16 -29
-35 -52 -19 -22 -35 -44 -35 -48 0 -5 -10 -18 -22 -31 -13 -13 -36 -41 -53
-62 -16 -21 -36 -45 -42 -52 -7 -7 -13 -17 -13 -23 0 -6 -24 -39 -54 -74 -29
-35 -65 -81 -79 -103 -14 -21 -35 -50 -46 -64 -11 -14 -21 -29 -21 -34 0 -4
-15 -26 -32 -49 -37 -46 -64 -89 -103 -162 -15 -27 -35 -59 -46 -71 -10 -11
-19 -24 -19 -30 0 -5 -14 -27 -30 -48 -17 -22 -30 -43 -30 -48 0 -4 -16 -31
-35 -58 -19 -27 -35 -52 -35 -55 0 -9 -124 -190 -132 -193 -4 -2 -8 -11 -8
-19 0 -9 -16 -38 -35 -64 -19 -27 -35 -53 -35 -57 0 -5 -9 -20 -21 -33 -33
-39 -123 -182 -153 -245 -8 -17 -31 -52 -51 -78 -19 -25 -35 -49 -35 -52 0 -3
-11 -20 -25 -38 -14 -18 -25 -36 -25 -40 0 -4 -5 -12 -10 -19 -19 -22 -70
-102 -70 -109 0 -5 -9 -17 -21 -29 l-21 -21 6 28 c3 16 8 54 12 84 3 30 7 57
9 61 3 3 9 51 15 105 5 55 17 135 25 179 8 44 18 103 22 130 l7 50 6 -45 c14
-95 30 -180 38 -200 7 -19 10 -17 21 22 7 23 26 77 41 118 78 207 92 248 100
279 9 35 27 61 27 39 0 -7 8 -46 18 -87 l18 -74 18 35 c10 19 25 40 33 47 9 8
16 18 16 24 0 5 16 32 35 58 19 27 35 52 35 55 0 4 16 28 35 54 19 26 35 52
35 56 0 5 16 29 35 53 19 24 35 48 35 53 0 4 16 31 35 58 19 27 35 52 35 55 0
3 29 48 65 100 36 53 65 99 65 103 1 4 14 23 30 42 17 19 30 38 30 43 0 5 16
28 35 51 19 24 35 47 35 51 0 4 16 27 35 51 19 23 35 45 35 49 0 8 127 178
163 218 15 16 27 34 27 39 0 10 119 151 132 156 4 2 8 8 8 14 0 10 48 71 105
133 17 18 44 50 60 71 38 48 95 113 166 189 31 33 79 85 105 115 27 30 74 82
104 115 70 78 738 742 781 777 19 16 72 61 119 100 47 40 125 102 174 138 48
36 105 80 126 98 20 17 40 32 44 32 4 0 12 4 19 10 54 44 104 79 116 79 11 1
11 -2 1 -14z m804 -3342 c10 -95 45 -331 56 -373 5 -19 12 -62 15 -95 3 -33
13 -95 21 -139 20 -112 18 -143 -12 -183 -14 -18 -31 -33 -39 -33 -7 0 -20 -7
-28 -15 -20 -19 -89 -34 -160 -35 -126 0 -181 -56 -203 -205 -3 -22 -11 -69
-19 -105 l-13 -65 -1 50 c0 28 -7 75 -15 105 -8 30 -17 75 -21 100 -4 25 -13
72 -21 105 -7 33 -14 77 -14 97 0 20 -7 66 -15 101 -8 35 -17 79 -19 98 -3 19
-12 63 -20 99 -9 36 -16 82 -16 102 0 20 -7 67 -15 103 -12 52 -13 70 -4 81 6
8 71 44 143 80 72 36 176 88 231 116 55 27 111 56 125 64 14 7 28 14 31 14 4
0 10 -30 13 -67z m-2474 -213 c16 -11 35 -20 44 -20 8 0 31 -9 49 -19 58 -32
70 -38 151 -75 43 -20 85 -36 93 -36 9 0 52 -18 97 -39 44 -21 129 -55 189
-75 101 -34 115 -36 234 -36 156 0 270 20 503 89 98 29 342 120 382 142 19 10
45 13 36 3 -3 -3 2 -37 12 -75 10 -39 21 -93 25 -122 3 -29 20 -112 36 -185
16 -74 29 -149 29 -167 0 -19 4 -45 9 -58 9 -23 7 -26 -52 -45 -34 -11 -80
-23 -102 -27 -22 -4 -44 -11 -50 -15 -14 -10 -141 -50 -159 -50 -8 0 -21 -9
-28 -19 -7 -10 -27 -27 -44 -37 -17 -11 -64 -41 -105 -69 -40 -27 -83 -57 -95
-65 -12 -8 -47 -32 -76 -52 -77 -52 -147 -88 -173 -88 -13 0 -39 -7 -58 -15
-20 -8 -49 -15 -65 -15 -16 0 -49 -7 -73 -16 -24 -8 -71 -17 -104 -19 -33 -1
-80 -8 -105 -13 -201 -47 -578 -63 -717 -30 -40 9 -116 38 -169 63 -53 26
-105 48 -116 50 -10 2 -55 29 -101 59 -128 85 -222 97 -341 42 -32 -15 -73
-29 -90 -32 -17 -3 -47 -12 -66 -19 -19 -7 -64 -19 -100 -25 -56 -10 -102 -19
-120 -25 -3 -1 -25 -7 -50 -14 -25 -7 -64 -24 -87 -37 -24 -14 -43 -22 -43
-19 0 3 -13 -1 -30 -10 -16 -8 -42 -15 -58 -15 -34 0 -105 -45 -168 -106 -86
-83 -162 -137 -284 -205 -19 -11 -53 -31 -75 -44 -22 -13 -53 -31 -70 -40 -16
-9 -45 -25 -64 -36 -18 -11 -36 -18 -38 -15 -3 3 -28 -5 -57 -18 -69 -31 -103
-38 -138 -31 l-29 7 53 29 c29 15 64 28 76 29 13 0 42 16 65 35 22 19 45 35
50 35 10 0 95 67 115 90 9 11 11 45 6 133 l-7 118 29 31 c28 29 134 105 196
140 16 9 37 23 46 31 9 7 25 17 34 20 9 3 36 18 60 33 37 25 111 56 158 68 8
2 40 16 70 30 30 14 61 26 68 26 7 0 35 11 62 25 27 14 71 32 97 41 26 9 71
27 99 40 28 13 56 24 61 24 19 0 111 89 117 114 5 20 15 25 73 35 176 31 270
56 324 88 53 30 109 89 109 112 0 6 4 19 10 29 35 61 64 202 41 202 -6 0 -1
15 10 34 18 32 123 106 149 106 7 0 26 6 43 14 63 29 161 32 197 6z m-1660
-89 c0 -6 -4 -12 -9 -15 -4 -3 -11 -20 -15 -37 -3 -17 -19 -59 -34 -92 -53
-115 -62 -138 -62 -149 0 -7 -17 -46 -37 -87 -20 -42 -41 -86 -46 -98 -10 -23
-53 -43 -93 -43 -23 0 -27 -7 -39 -68 -7 -32 -33 -65 -158 -195 -20 -22 -37
-45 -37 -52 0 -6 -9 -20 -20 -30 -11 -10 -20 -24 -20 -32 0 -7 -3 -13 -8 -13
-4 0 -12 -9 -17 -20 -16 -33 -204 -321 -251 -385 -24 -33 -52 -72 -61 -86 -10
-14 -52 -55 -93 -91 -150 -130 -227 -132 -119 -3 27 33 52 71 56 85 3 14 9 30
13 35 19 24 52 134 55 181 7 103 50 229 106 311 16 23 29 45 29 50 0 4 16 26
35 48 19 22 35 44 35 50 0 11 107 138 121 143 5 2 9 9 9 15 0 7 12 25 28 42
28 30 36 41 85 115 16 23 58 70 94 104 36 33 81 76 100 94 19 17 37 32 40 32
3 0 27 16 53 35 26 19 51 35 55 35 4 0 24 14 45 30 21 17 42 30 46 30 5 0 29
16 53 35 45 36 61 42 61 26z m-70 -486 c-11 -32 -20 -66 -20 -75 0 -9 -22 -41
-48 -71 -27 -29 -52 -63 -55 -73 -4 -10 -10 -16 -14 -13 -3 4 16 50 43 104
102 207 138 255 94 128z m4207 -282 c43 -20 73 -66 73 -113 l0 -35 -19 31
c-42 68 -106 88 -176 54 -25 -12 -45 -26 -45 -31 0 -5 -4 -9 -10 -9 -13 0 6
49 28 74 20 22 68 45 95 46 11 0 35 -8 54 -17z m-5247 -500 c-46 -81 -94 -150
-142 -205 -42 -49 -58 -58 -58 -35 0 11 24 44 152 217 78 106 100 116 48 23z
m626 -49 c-7 -25 -108 -107 -149 -120 -12 -4 -24 -10 -27 -13 -4 -6 -35 -19
-147 -67 -36 -16 -63 -18 -63 -5 0 13 162 151 178 151 5 0 15 7 23 16 16 20
108 80 139 92 31 12 55 -16 46 -54z m1536 -234 c58 -28 83 -62 66 -90 -20 -32
-40 -32 -104 -4 -61 27 -148 100 -137 117 9 15 127 0 175 -23z m-514 -93 c41
-23 87 -50 104 -59 37 -20 68 -53 68 -71 0 -8 -10 -26 -23 -40 -33 -39 -87
-37 -158 6 -73 43 -169 90 -251 122 -38 15 -68 31 -68 35 0 4 44 15 98 25 53
9 102 18 107 20 28 10 56 1 123 -38z m-1528 -72 c0 -29 -5 -37 -32 -51 -18 -9
-44 -26 -58 -39 -14 -12 -45 -35 -70 -50 -38 -24 -30 -13 55 73 55 55 101 101
103 101 1 1 2 -15 2 -34z"/>
</g>
</svg>
