<?xml version="1.0" standalone="no"?>
<!DOCTYPE svg PUBLIC "-//W3C//DTD SVG 20010904//EN"
 "http://www.w3.org/TR/2001/REC-SVG-20010904/DTD/svg10.dtd">
<svg version="1.0" xmlns="http://www.w3.org/2000/svg"
 width="736.000000pt" height="736.000000pt" viewBox="0 0 736.000000 736.000000"
 preserveAspectRatio="xMidYMid meet">

<g transform="translate(0.000000,736.000000) scale(0.100000,-0.100000)"
fill="#000000" stroke="none">
<path d="M5424 5588 c-46 -45 -84 -86 -84 -92 0 -11 67 -86 76 -86 3 0 32 25
65 57 57 54 60 55 78 39 34 -31 53 -85 53 -150 -1 -164 -135 -342 -486 -645
-276 -237 -341 -304 -389 -397 -56 -109 -32 -244 44 -244 46 0 62 25 54 87 -5
44 -3 62 16 101 26 53 176 208 312 321 394 327 555 538 574 752 6 69 -13 156
-44 208 -25 40 -85 101 -115 117 -49 25 -67 18 -154 -68z"/>
<path d="M5125 5434 c-49 -26 -915 -896 -915 -920 0 -23 208 -234 231 -234 18
0 896 876 917 915 26 49 21 125 -11 174 -48 72 -150 102 -222 65z"/>
<path d="M3032 3357 l-1083 -1083 -139 -249 c-76 -136 -136 -254 -133 -262 3
-7 11 -13 19 -13 7 0 101 49 207 109 107 60 214 119 238 131 25 13 104 82 180
157 l137 135 -5 57 c-9 94 17 162 86 232 67 67 125 89 230 89 l66 0 768 768
c472 472 767 775 767 786 0 10 -46 65 -102 122 -77 78 -108 104 -127 104 -21
0 -235 -209 -1109 -1083z"/>
<path d="M3540 4121 c-25 -8 -355 -146 -1005 -422 -195 -83 -314 -139 -339
-160 -33 -27 -65 -85 -194 -348 -428 -874 -409 -826 -348 -887 28 -28 41 -34
78 -34 59 0 174 60 237 125 32 32 138 196 301 460 138 226 255 413 259 417 4
4 115 44 246 88 l240 81 308 307 c217 217 307 313 307 329 0 21 -34 54 -55 52
-5 0 -21 -4 -35 -8z"/>
<path d="M3820 3545 c-284 -284 -323 -326 -310 -339 8 -8 103 -87 210 -176
107 -89 200 -172 207 -184 7 -11 12 -38 13 -59 0 -52 -60 -115 -153 -162 l-70
-35 -512 0 -513 0 -53 -28 c-147 -76 -158 -282 -21 -377 l44 -30 563 -5 563
-5 140 -73 c242 -124 428 -169 662 -159 277 12 515 101 733 274 83 66 153 99
232 108 72 8 102 25 121 70 21 50 21 880 0 929 -26 62 -41 66 -232 66 -94 0
-193 4 -221 9 -29 6 -201 85 -429 197 -481 237 -622 304 -637 304 -7 0 -158
-146 -337 -325z"/>
<path d="M2735 3274 l-160 -54 -145 -237 c-80 -130 -156 -255 -169 -277 -15
-26 97 79 308 289 298 297 337 337 329 334 -2 0 -75 -25 -163 -55z"/>
<path d="M3190 2915 l-255 -255 386 0 385 0 52 26 c64 32 112 78 112 108 0 15
-24 41 -77 86 -43 35 -132 109 -198 164 -66 54 -127 105 -135 112 -14 12 -51
-22 -270 -241z"/>
<path d="M2427 2152 c-31 -32 -57 -65 -57 -73 0 -21 210 -314 255 -356 27 -25
44 -33 72 -33 42 0 96 28 112 59 18 32 29 140 20 189 -10 48 0 72 30 72 9 0
41 -25 71 -56 103 -105 185 -133 236 -82 33 32 43 102 21 144 -33 63 -30 62
-292 66 -271 3 -280 6 -362 87 -22 23 -42 41 -45 41 -2 0 -29 -26 -61 -58z"/>
</g>
</svg>
