<?xml version="1.0" standalone="no"?>
<!DOCTYPE svg PUBLIC "-//W3C//DTD SVG 20010904//EN"
 "http://www.w3.org/TR/2001/REC-SVG-20010904/DTD/svg10.dtd">
<svg version="1.0" xmlns="http://www.w3.org/2000/svg"
 width="735.000000pt" height="749.000000pt" viewBox="0 0 735.000000 749.000000"
 preserveAspectRatio="xMidYMid meet">

<g transform="translate(0.000000,749.000000) scale(0.100000,-0.100000)"
fill="#000000" stroke="none">
<path d="M5738 7485 c-3 -3 -142 -8 -309 -10 -462 -7 -574 -29 -857 -166 -154
-75 -265 -121 -432 -179 -36 -13 -96 -42 -133 -66 -37 -24 -69 -44 -72 -44 -2
0 -59 -38 -126 -85 -118 -81 -123 -86 -135 -132 -18 -71 0 -74 21 -3 25 84 38
76 14 -10 -23 -83 -24 -105 -4 -66 8 15 15 33 15 40 0 6 11 33 24 59 21 44 24
47 29 25 4 -12 7 -39 8 -58 0 -28 2 -31 8 -15 l8 20 5 -20 c2 -13 12 7 27 55
13 41 30 83 38 95 15 20 15 20 8 0 -17 -45 -46 -168 -42 -178 2 -6 9 11 16 38
7 27 21 68 32 91 10 24 19 47 19 53 0 6 9 15 19 21 20 10 20 9 4 -42 -8 -29
-24 -70 -34 -90 -10 -21 -19 -45 -18 -55 0 -10 7 -3 14 17 14 34 14 34 10 -30
l-5 -65 18 85 c10 47 28 105 40 130 l22 45 -4 -40 c-5 -37 -4 -36 13 15 l18
55 13 -60 c12 -57 13 -59 22 -30 4 17 6 41 2 55 -3 14 -2 21 2 17 4 -4 14 5
21 20 7 16 11 19 7 8 -3 -11 -8 -36 -11 -55 l-5 -35 20 38 c12 22 24 52 27 69
4 16 13 32 20 34 7 3 16 21 19 39 4 19 11 37 16 40 5 3 0 -25 -11 -62 -10 -37
-19 -77 -18 -88 0 -11 7 3 16 30 18 62 35 83 28 35 -4 -28 -2 -26 10 12 8 26
19 49 24 52 5 3 0 -22 -10 -55 -10 -33 -19 -71 -18 -82 0 -12 7 0 14 26 16 60
30 75 21 25 -16 -98 -15 -107 7 -38 22 73 46 125 47 105 0 -5 8 1 16 15 17 29
17 24 -16 -85 -11 -38 -23 -106 -25 -150 l-4 -80 14 74 c24 130 47 214 55 201
5 -9 10 -6 15 10 6 18 9 20 16 9 7 -11 9 -11 9 3 0 9 4 19 9 22 5 4 3 -18 -5
-46 -19 -73 -16 -83 6 -23 11 29 19 42 20 30 1 -15 5 -12 16 14 21 48 27 33 8
-20 -21 -60 -52 -229 -58 -325 l-6 -79 15 98 c16 113 50 258 69 296 7 14 14
41 14 58 1 42 11 60 23 42 13 -20 11 -37 -2 -19 -9 12 -10 12 -5 -4 4 -10 -3
-43 -14 -74 -11 -30 -19 -57 -17 -59 3 -2 13 18 22 46 12 31 23 47 31 44 9 -3
10 -11 3 -30 -5 -14 -8 -28 -6 -30 2 -2 17 31 32 72 15 42 30 74 32 71 3 -3
-2 -24 -10 -48 -28 -81 -27 -83 6 -18 64 125 121 218 100 163 -5 -12 -3 -14 7
-8 8 5 11 3 8 -6 -3 -8 -11 -13 -17 -11 -7 1 -10 -2 -6 -8 3 -5 -1 -20 -9 -32
-9 -12 -16 -26 -16 -31 0 -16 22 6 50 51 35 56 36 53 10 -22 -10 -31 -15 -54
-10 -51 6 4 10 11 10 17 0 6 7 16 15 22 9 6 17 24 19 39 1 15 17 41 34 58 l32
31 -20 -58 c-28 -79 -20 -93 9 -16 12 34 23 62 24 62 1 0 3 -21 4 -48 2 -29
-6 -67 -19 -100 -11 -29 -18 -56 -14 -59 3 -3 6 -1 6 5 0 17 40 105 46 100 3
-3 -3 -24 -12 -47 -9 -23 -14 -44 -11 -47 3 -3 14 23 26 58 23 67 47 114 36
68 -6 -23 -5 -24 6 -5 7 11 23 31 37 45 14 14 36 42 50 63 13 20 26 37 28 37
1 0 -6 -21 -17 -46 -12 -25 -22 -59 -24 -76 -3 -16 -7 -40 -10 -52 -3 -11 5 2
18 29 22 47 24 49 32 26 7 -24 9 -23 31 21 22 44 51 77 38 45 -3 -8 -1 -18 4
-21 6 -3 16 12 24 34 7 22 16 39 20 38 4 -2 14 6 22 17 9 11 16 15 16 8 0 -6
-4 -14 -9 -17 -5 -4 -12 -25 -16 -49 -3 -23 -9 -51 -11 -62 -3 -11 9 6 27 38
18 31 33 56 35 54 1 -1 -13 -34 -31 -72 -44 -90 -44 -110 -1 -25 18 36 39 64
45 62 7 -1 10 2 6 8 -3 5 -2 10 3 10 6 0 13 12 17 28 4 15 10 21 12 14 3 -7 0
-27 -6 -44 -19 -53 -3 -44 22 13 14 30 32 63 41 74 16 19 16 19 6 -7 -5 -15
-7 -35 -3 -45 4 -9 2 -14 -3 -10 -5 3 -10 -3 -10 -14 0 -26 3 -24 22 12 10 21
19 28 23 20 5 -7 17 8 31 39 13 27 30 50 37 50 11 0 10 -8 -6 -37 -34 -65 -52
-103 -47 -103 3 0 21 32 42 70 20 39 43 70 51 70 10 0 7 -10 -11 -33 -15 -19
-26 -37 -26 -42 0 -4 9 4 21 19 38 48 49 33 28 -36 -10 -34 -17 -63 -15 -65 1
-2 19 34 39 79 21 45 40 79 43 75 3 -3 -1 -16 -10 -29 -21 -29 -21 -44 1 -27
15 13 15 12 3 -11 -12 -24 -12 -24 18 4 17 15 28 34 26 41 -3 7 -1 16 5 20 7
4 9 -1 5 -12 -4 -12 0 -10 15 7 25 31 29 7 4 -30 -10 -16 -1 -11 27 15 40 37
42 38 22 8 -12 -17 -22 -35 -22 -40 0 -4 4 -1 10 7 5 8 12 11 16 7 4 -4 1 -15
-7 -25 -8 -10 3 0 23 22 21 23 38 37 38 32 0 -5 9 -1 20 9 40 36 20 -6 -27
-56 -25 -27 -44 -52 -41 -55 3 -3 20 14 38 36 18 23 38 39 46 36 7 -3 18 3 26
12 12 16 11 16 -7 2 -20 -15 -20 -14 -1 8 11 12 24 21 30 20 16 -2 46 13 46
23 0 10 -14 12 -22 4z m-93 -25 c-3 -5 -12 -7 -20 -3 -21 7 -19 13 6 13 11 0
18 -4 14 -10z m-359 -25 c-18 -28 -21 -39 -6 -30 6 4 7 -1 3 -11 -4 -11 -8
-13 -11 -6 -2 7 -9 9 -15 5 -7 -4 -5 4 4 17 8 14 19 31 23 38 4 6 10 12 13 12
3 0 -2 -11 -11 -25z m314 1 c0 -3 -4 -8 -10 -11 -5 -3 -10 -1 -10 4 0 6 5 11
10 11 6 0 10 -2 10 -4z m-569 -99 c-10 -9 -11 -8 -5 6 3 10 9 15 12 12 3 -3 0
-11 -7 -18z m-556 -237 c-4 -12 -9 -19 -12 -17 -3 3 -2 15 2 27 4 12 9 19 12
17 3 -3 2 -15 -2 -27z"/>
<path d="M5756 7465 c-17 -13 -35 -21 -40 -18 -6 4 -8 2 -3 -2 4 -5 -3 -19
-15 -32 -20 -21 -20 -23 -4 -17 14 5 17 4 12 -5 -5 -7 15 4 43 23 29 20 56 34
61 31 6 -3 20 1 32 9 36 25 46 18 13 -9 l-30 -25 45 25 c55 30 81 33 49 4 -23
-19 -23 -20 -2 -10 27 14 56 14 48 1 -3 -5 4 -10 17 -11 22 -1 22 -1 -2 -8
-35 -11 -197 -120 -204 -137 -3 -8 -12 -14 -20 -14 -7 0 -17 -7 -20 -16 -3 -8
-10 -13 -15 -10 -5 3 -14 -1 -21 -9 -7 -8 -17 -15 -23 -15 -5 0 -2 9 8 20 10
11 16 20 13 20 -2 0 -17 -14 -34 -32 -16 -18 -20 -26 -9 -18 17 12 17 10 -2
-11 -13 -14 -23 -30 -23 -36 0 -5 -9 -18 -20 -28 -18 -17 -20 -17 -14 -2 3 9
10 17 15 17 5 0 9 7 9 15 0 22 -16 18 -38 -10 -21 -26 -39 -35 -26 -12 4 6 -5
1 -19 -12 -44 -40 -31 -12 25 53 47 56 48 57 10 21 -23 -21 -42 -34 -42 -28 0
7 4 15 10 18 5 3 15 16 21 28 9 20 8 19 -13 -3 -13 -14 -33 -39 -46 -55 -17
-22 -22 -24 -18 -10 5 16 2 16 -12 -4 -26 -38 -54 -68 -47 -51 4 8 -1 6 -9 -4
-15 -19 -16 -17 -12 21 6 65 -7 67 -43 8 -18 -30 -35 -55 -37 -55 -5 0 18 52
29 68 6 7 8 15 5 18 -6 5 -58 -100 -58 -119 0 -6 -5 -4 -11 6 -6 9 -7 27 -4
38 5 14 3 19 -4 15 -6 -4 -16 -26 -23 -48 -11 -38 -13 -39 -18 -18 -5 20 -8
13 -19 -33 -7 -32 -15 -56 -18 -54 -2 3 3 40 12 82 10 42 15 78 13 80 -2 2
-14 -27 -27 -66 -14 -38 -26 -68 -28 -66 -1 2 1 25 6 50 4 26 7 47 5 47 -2 0
-10 -12 -19 -27 l-16 -28 6 38 c9 57 0 45 -25 -34 -15 -48 -25 -67 -30 -58 -5
7 -7 27 -4 44 3 17 -6 3 -22 -35 -27 -70 -40 -90 -30 -50 3 14 -5 3 -19 -25
-18 -37 -23 -42 -18 -20 3 17 10 41 15 54 5 13 6 26 3 29 -3 3 -5 0 -5 -7 0
-7 -5 -9 -10 -6 -6 4 -10 3 -9 -2 2 -8 -11 -46 -30 -88 -17 -35 -12 6 8 78 10
37 16 67 14 67 -2 0 -12 -18 -22 -41 -11 -23 -21 -35 -23 -27 -3 7 -11 -14
-18 -47 -14 -68 -29 -103 -30 -70 0 16 -2 17 -9 6 -5 -8 -7 -21 -4 -30 4 -14
3 -14 -6 -1 -9 12 -11 10 -11 -12 0 -15 -4 -29 -9 -32 -5 -3 -5 12 0 35 6 23
8 47 5 53 -2 6 -5 2 -6 -9 l-1 -20 -9 20 c-7 19 -9 18 -19 -8 -6 -16 -11 -36
-11 -45 0 -19 -20 -54 -20 -35 0 18 37 169 55 224 10 28 15 52 12 55 -7 7 -56
-151 -69 -225 -10 -52 -14 -60 -19 -41 -6 21 -7 18 -9 -15 -2 -44 -17 -91 -21
-65 -1 8 -5 -3 -10 -25 -6 -29 -7 -20 -4 35 5 81 -7 72 -21 -16 l-8 -49 -7 40
-6 40 -2 -45 c-2 -56 -20 -36 -22 25 -2 40 -2 39 -9 -10 l-7 -50 -3 55 -2 55
-13 -70 -13 -70 3 90 c1 50 0 69 -2 42 -3 -30 -8 -45 -15 -41 -7 4 -8 -1 -3
-16 5 -15 4 -20 -4 -16 -8 5 -12 -13 -13 -56 l-1 -63 -7 55 c-4 30 -8 44 -9
30 -5 -59 -14 -115 -18 -120 -3 -3 -3 22 -1 55 4 55 4 57 -7 30 -11 -26 -13
-27 -18 -10 -3 11 -4 -1 -1 -27 3 -30 1 -48 -6 -48 -6 0 -8 -11 -6 -25 3 -14
0 -25 -5 -25 -5 0 -10 19 -10 43 -1 23 -4 55 -8 71 -5 24 -9 15 -23 -50 -10
-44 -22 -104 -27 -134 -9 -50 -10 -46 -6 40 2 52 7 111 10 130 4 28 3 31 -5
15 -7 -15 -9 -4 -5 40 l4 60 -13 -60 c-7 -33 -14 -53 -15 -45 -2 23 38 280 45
293 5 9 4 9 -5 1 -16 -14 -39 -162 -50 -309 l-8 -110 -3 105 -4 105 -7 -80
c-5 -64 -6 -54 -4 50 l3 130 -14 -90 c-8 -49 -18 -148 -22 -220 l-7 -130 -5
165 -5 165 -8 -140 c-4 -77 -11 -171 -16 -210 -8 -56 -9 -37 -6 100 2 110 0
154 -5 125 -5 -25 -9 -65 -10 -90 l-2 -45 -13 45 -13 45 -2 -85 c-2 -82 -2
-84 -16 -55 -14 29 -15 27 -9 -40 4 -48 2 -65 -5 -55 -5 8 -10 44 -11 80 -1
49 -3 58 -8 35 -6 -23 -9 -9 -15 58 -10 104 0 305 19 397 15 72 12 93 -4 33
-19 -67 -34 -283 -28 -418 3 -71 1 -152 -3 -180 -8 -45 -9 -43 -5 25 2 52 1
67 -5 50 -7 -19 -8 -14 -4 18 3 23 2 71 -2 105 l-8 62 -8 -55 c-4 -30 -6 -91
-3 -135 3 -53 1 -70 -4 -50 -8 27 -9 24 -11 -25 -2 -47 -3 -51 -10 -25 -7 29
-8 29 -10 -10 -2 -39 -3 -39 -10 -10 -4 17 -8 62 -9 100 -3 85 -28 305 -30
254 0 -19 3 -82 8 -140 15 -159 21 -366 10 -304 -6 28 -16 64 -25 80 -13 28
-14 22 -10 -80 6 -119 -5 -79 -21 80 l-7 80 -6 -55 c-4 -46 -6 -35 -12 65 -6
91 -13 136 -32 185 -30 79 -32 73 -6 -22 11 -39 22 -112 25 -162 l5 -91 -31
90 c-33 97 -38 154 -24 305 4 47 5 83 2 80 -3 -3 -11 -61 -17 -130 -12 -125
-12 -125 19 -252 17 -69 31 -141 31 -160 l0 -33 -14 27 c-8 15 -16 35 -19 45
-3 10 -3 -16 0 -57 2 -41 0 -111 -5 -155 -8 -71 -9 -74 -11 -28 -1 50 -14 77
-24 51 -3 -7 -6 -2 -6 12 -1 14 -8 48 -16 75 -16 54 -16 55 5 -101 6 -44 9
-107 7 -140 -3 -55 -3 -54 -6 21 -2 51 -5 71 -10 55 -5 -18 -10 0 -19 65 -17
127 -44 272 -49 258 -2 -6 5 -63 17 -125 11 -62 23 -162 26 -223 6 -137 -10
-112 -19 30 -4 55 -14 125 -22 155 -16 61 -15 41 6 -95 10 -67 3 -343 -8 -331
-3 3 -9 101 -13 218 -6 197 -9 219 -34 288 -15 41 -38 104 -51 140 -13 36 -24
57 -24 47 -1 -11 17 -64 39 -118 39 -96 60 -195 59 -269 0 -27 -9 -10 -41 80
-22 63 -48 153 -58 200 -10 47 -19 74 -19 60 -1 -39 24 -145 62 -265 20 -60
40 -132 46 -160 13 -66 -3 -82 -26 -26 l-18 42 -1 -43 c-1 -31 1 -37 7 -23 6
16 8 16 8 3 1 -9 4 -25 7 -35 5 -15 4 -15 -5 -3 -8 12 -11 4 -12 -35 l-1 -50
-10 45 c-18 86 -70 240 -79 234 -5 -3 -9 0 -9 7 0 7 -3 10 -6 6 -3 -3 0 -32 7
-64 14 -65 16 -81 23 -203 5 -83 5 -84 -6 -30 -10 49 -12 52 -17 26 -5 -24
-10 -10 -25 63 -10 50 -20 90 -22 88 -3 -2 2 -44 11 -92 15 -85 18 -132 9
-108 -3 6 -25 103 -49 215 -24 112 -44 196 -44 187 -1 -9 8 -61 19 -114 23
-113 24 -131 5 -90 -21 48 -17 25 15 -80 17 -54 30 -107 30 -119 -1 -11 -16
29 -35 89 -60 192 -104 321 -105 303 0 -9 16 -64 35 -122 19 -58 35 -109 35
-113 0 -20 -51 65 -56 94 -10 56 -43 149 -44 128 l-1 -20 -9 20 c-5 11 -9 38
-9 60 -1 39 -20 90 -21 54 0 -48 28 -148 72 -254 62 -149 75 -193 83 -264 l5
-56 -19 40 c-10 22 -27 59 -36 82 -10 23 -22 40 -26 37 -5 -3 -9 1 -9 9 0 8
-7 18 -16 21 -9 3 -13 13 -10 23 3 10 -4 29 -15 43 l-21 25 17 -28 c9 -16 14
-31 11 -34 -3 -3 -14 10 -25 28 -23 37 -27 54 -11 44 6 -3 7 1 4 9 -3 9 -11
13 -17 9 -6 -4 -7 -1 -2 6 4 8 -1 25 -13 41 -13 17 -19 36 -16 51 5 19 4 21
-5 9 -6 -8 -11 -12 -11 -9 0 4 -5 30 -10 60 -7 34 -7 64 -1 83 6 17 12 51 14
76 2 25 11 61 19 80 9 19 18 42 21 50 3 8 6 -10 8 -40 2 -51 2 -49 10 29 5 47
14 103 21 125 10 38 12 39 18 16 6 -21 9 -17 19 30 6 30 16 62 22 70 8 12 9
11 5 -5 -27 -110 -56 -240 -55 -253 1 -17 6 1 48 168 12 47 25 93 28 104 3 12
1 16 -6 12 -8 -5 -8 1 1 19 l12 26 12 -22 c11 -22 12 -22 17 -3 4 10 4 -3 2
-31 l-4 -50 14 54 c17 67 65 200 74 205 6 4 7 -16 2 -62 0 -7 -6 -10 -11 -7
-5 3 -10 0 -11 -7 -1 -35 -7 -86 -13 -113 -5 -25 31 66 51 128 4 13 8 15 13 7
4 -7 13 10 20 41 7 30 17 62 22 72 17 34 -10 16 -79 -50 -64 -62 -107 -122
-157 -221 -10 -20 -21 -39 -25 -42 -9 -7 -34 -66 -72 -170 -49 -134 -59 -179
-59 -257 0 -61 6 -88 41 -175 22 -57 53 -123 68 -148 56 -91 94 -166 97 -190
1 -14 5 -36 9 -50 6 -24 5 -23 -10 3 -9 16 -14 35 -11 43 3 8 1 12 -4 9 -5 -3
-12 7 -16 22 -3 15 -23 57 -42 93 -20 36 -49 90 -64 120 -15 30 -25 44 -22 30
4 -14 16 -43 28 -66 67 -129 100 -206 102 -234 1 -14 11 -63 23 -110 11 -47
20 -105 20 -130 -1 -36 -4 -29 -15 40 -14 91 -34 173 -41 166 -2 -2 3 -32 12
-66 9 -34 14 -69 12 -79 -3 -11 -5 -10 -6 5 -3 54 -87 302 -98 290 -2 -2 3
-21 12 -42 26 -59 75 -236 74 -264 0 -14 -6 2 -14 35 -14 66 -122 364 -137
380 -5 6 5 -28 22 -75 82 -221 103 -301 93 -352 l-7 -33 -7 29 c-4 16 -6 43
-3 60 4 26 3 28 -6 11 -8 -16 -9 -13 -4 15 4 28 3 32 -6 20 -10 -13 -11 -12
-6 4 8 23 -13 93 -23 77 -4 -6 -18 19 -31 56 -12 38 -27 73 -32 78 -5 6 11
-47 36 -117 44 -126 91 -312 76 -303 -5 3 -11 20 -15 38 -16 77 -48 187 -55
187 -4 0 3 -46 16 -102 14 -56 23 -109 21 -118 -2 -8 -7 3 -11 25 -6 33 -89
347 -101 380 -2 6 -4 1 -4 -11 -1 -11 15 -74 34 -140 20 -65 34 -129 32 -141
-2 -12 0 -20 4 -17 5 3 9 -11 9 -30 0 -20 -2 -36 -4 -36 -2 0 -13 32 -26 71
-26 82 -35 88 -16 9 14 -54 31 -219 23 -210 -6 6 -45 267 -45 295 0 11 -7 54
-16 95 -10 41 -26 131 -36 200 -19 123 -20 124 -15 40 3 -47 18 -161 35 -255
16 -93 29 -179 29 -190 -1 -11 -6 4 -11 33 -5 30 -12 51 -14 49 -5 -5 16 -130
41 -237 8 -36 14 -81 14 -100 -1 -21 -6 -4 -15 44 -8 44 -19 85 -24 91 -6 7
-17 30 -25 51 -16 42 -13 21 10 -64 8 -29 16 -81 19 -115 5 -59 5 -60 -4 -17
-6 25 -24 104 -40 175 -17 72 -39 186 -49 255 -23 153 -27 124 -6 -46 9 -69
13 -129 10 -134 -4 -6 3 -56 14 -113 11 -56 19 -118 19 -137 -1 -19 2 -64 5
-100 5 -47 -1 -28 -22 70 -61 277 -91 404 -85 355 3 -27 13 -84 22 -125 8 -41
16 -87 16 -102 1 -14 4 -24 7 -22 4 2 7 -6 6 -19 0 -12 3 -44 6 -72 6 -42 4
-38 -13 24 -11 40 -18 77 -15 81 3 4 -2 29 -9 56 -8 27 -20 78 -27 114 -7 35
-14 59 -17 52 -4 -13 38 -232 69 -360 12 -46 19 -86 16 -88 -6 -6 -93 352
-112 463 -9 50 -20 127 -24 170 -7 66 -9 70 -10 28 -1 -46 23 -205 49 -330 5
-27 12 -63 15 -80 5 -29 5 -29 -10 5 -17 39 -16 31 16 -99 11 -45 18 -85 15
-88 -2 -3 -10 15 -16 38 -17 66 -28 96 -29 78 -1 -9 11 -57 25 -105 32 -110
54 -224 44 -224 -4 0 -11 21 -15 48 -3 26 -15 77 -26 114 -11 36 -30 120 -44
185 -13 65 -31 147 -39 183 -8 36 -18 108 -23 160 -7 84 -8 90 -14 50 l-6 -45
-3 53 c-2 28 -5 64 -7 80 -12 102 -14 284 -4 313 6 18 13 64 16 103 l4 71 -14
-85 c-31 -180 -37 -248 -31 -370 3 -69 10 -126 15 -128 6 -2 8 -9 5 -16 -2 -6
0 -30 5 -51 7 -30 9 -34 10 -15 1 23 3 23 12 6 6 -10 9 -38 6 -63 -4 -38 19
-156 48 -238 4 -13 1 -12 -9 5 -19 32 -19 27 0 -62 22 -104 54 -324 53 -361
-1 -30 -2 -30 -10 8 -4 22 -14 90 -23 152 -15 110 -55 298 -62 291 -1 -2 8
-57 21 -122 16 -80 22 -134 18 -164 -4 -26 -2 -43 3 -40 5 4 10 -32 11 -80 2
-47 1 -83 -1 -81 -3 2 -12 58 -21 124 -16 120 -49 282 -40 200 2 -22 15 -118
30 -214 14 -95 24 -175 22 -178 -6 -5 -10 19 -58 297 -22 129 -42 240 -44 245
-8 15 2 -65 25 -215 12 -74 23 -153 25 -175 6 -54 -29 96 -50 218 -10 54 -19
96 -22 94 -6 -7 35 -257 63 -381 14 -60 23 -110 21 -113 -6 -5 -63 218 -76
297 -16 95 -40 330 -46 444 -2 54 -7 101 -10 104 -9 9 -6 -64 10 -268 14 -180
23 -255 44 -383 12 -72 -5 -43 -22 38 -9 41 -16 57 -16 40 0 -16 8 -64 19
-105 23 -88 25 -115 6 -80 -8 14 -21 70 -30 125 -24 152 -25 156 -20 65 3 -47
11 -111 18 -143 15 -63 8 -68 -10 -9 -10 31 -12 33 -13 12 -1 -35 35 -163 60
-212 11 -22 15 -37 9 -33 -17 10 -48 87 -67 164 -9 36 -21 72 -27 80 -7 9 -9
56 -6 135 9 238 2 759 -11 786 -4 8 -17 82 -28 163 -12 81 -25 155 -28 165
-15 37 -42 -151 -41 -283 1 -71 3 -113 5 -92 2 20 8 35 14 32 5 -4 9 28 9 79
0 47 4 87 9 90 5 3 9 0 8 -7 0 -6 1 -32 3 -57 l3 -45 6 45 c12 85 33 -139 29
-317 -2 -88 0 -159 5 -156 4 2 5 -15 1 -39 -4 -34 -3 -40 6 -28 9 11 9 -27 3
-160 -4 -96 -8 -233 -8 -305 0 -90 -2 -117 -7 -87 -5 23 -12 61 -18 85 l-9 42
4 -44 c2 -30 1 -40 -6 -30 -5 7 -9 34 -9 59 -1 65 -27 253 -29 205 -1 -54 26
-285 43 -364 8 -37 11 -73 6 -85 -5 -15 -10 -2 -15 49 -4 39 -14 85 -21 104
-8 18 -15 43 -15 55 -1 15 -3 13 -8 -9 -7 -28 -8 -27 -15 20 -5 28 -10 45 -12
40 -3 -6 9 -78 26 -159 30 -149 39 -236 15 -141 -7 28 -13 39 -13 25 0 -36 25
-131 27 -101 0 13 4 22 7 18 3 -3 3 -21 -1 -39 -7 -31 -8 -32 -16 -10 -21 55
-70 292 -71 337 l0 50 -7 -45 -7 -45 -8 65 c-5 36 -11 59 -14 52 -4 -13 6 -77
43 -282 7 -41 12 -77 10 -79 -2 -2 -10 19 -19 45 -8 27 -15 44 -15 37 -1 -16
57 -252 71 -286 6 -15 8 -30 5 -33 -6 -6 -37 93 -82 261 -15 55 -33 121 -41
146 -8 26 -18 82 -23 125 l-8 79 -2 -65 c0 -36 5 -90 13 -120 13 -51 56 -296
56 -316 0 -5 -9 9 -19 31 -23 48 -26 43 -7 -11 7 -22 16 -57 19 -79 6 -40 6
-40 -13 10 -30 80 -23 29 10 -69 17 -49 30 -92 30 -95 -1 -19 -24 36 -49 114
-29 91 -44 180 -61 355 l-9 95 5 -115 c3 -63 8 -126 11 -140 3 -14 3 -22 -1
-19 -12 11 -26 123 -32 254 -3 91 -2 125 5 115 8 -11 11 -3 11 33 0 27 -3 46
-7 44 -5 -3 -7 68 -7 156 l2 162 -9 -180 c-5 -99 -9 -220 -10 -270 -2 -88 -2
-89 -10 -37 -5 30 -16 61 -25 69 -13 14 -15 45 -13 217 1 111 5 227 9 259 7
64 -7 74 -26 17 -11 -33 -11 -33 -18 31 l-8 64 -29 -35 c-16 -19 -48 -69 -71
-110 -23 -41 -60 -104 -83 -140 -80 -125 -116 -203 -121 -255 -2 -27 -2 -44 2
-37 3 6 10 10 15 6 5 -3 9 5 9 18 0 13 7 31 15 41 13 18 14 17 17 -5 2 -13 9
4 15 42 l10 65 3 -75 3 -75 8 84 c8 85 18 118 20 65 1 -24 3 -21 12 16 10 44
11 44 17 15 6 -29 6 -28 12 13 7 50 15 62 28 42 6 -10 10 -2 13 26 2 28 5 19
7 -31 l3 -70 8 90 c5 50 14 99 20 110 7 11 15 31 20 45 7 25 7 25 9 -5 l2 -30
12 28 c11 24 12 -30 8 -300 -4 -299 -2 -341 17 -473 23 -150 51 -269 76 -317
22 -42 17 -53 -6 -13 -19 34 -20 31 -3 -32 5 -18 4 -20 -5 -8 -19 26 -13 -10
9 -55 11 -22 19 -47 19 -55 0 -8 -11 8 -25 35 -16 32 -23 60 -20 78 3 15 1 39
-5 55 -6 15 -13 47 -15 72 -5 50 -30 153 -44 178 -5 10 -13 37 -19 62 -27 118
3 -86 35 -239 33 -154 35 -187 15 -165 -12 12 -57 229 -80 384 -11 69 -20 112
-20 95 -1 -37 18 -163 53 -350 35 -186 36 -195 31 -195 -5 0 -41 116 -60 195
-7 28 -13 41 -14 30 0 -11 10 -60 23 -110 27 -100 42 -194 30 -182 -4 4 -16
45 -26 90 l-17 82 4 -70 4 -70 -14 65 c-9 36 -22 80 -31 97 -24 53 -84 355
-98 503 -11 107 -14 121 -15 69 -2 -109 44 -380 93 -554 30 -103 65 -344 46
-315 -5 8 -10 24 -10 35 0 11 -14 72 -30 135 -30 113 -31 111 -8 -22 12 -66 6
-97 -12 -68 -13 20 -12 7 5 -70 8 -36 14 -81 13 -100 0 -31 -1 -29 -10 15 -5
28 -16 82 -24 120 l-14 70 6 -65 c6 -70 -2 -79 -12 -14 -18 117 -52 246 -53
199 0 -11 4 -40 10 -65 12 -52 40 -283 35 -288 -6 -5 -26 121 -27 169 -1 24
-5 55 -10 69 -8 26 -8 24 11 -195 6 -60 9 -128 9 -150 -2 -35 -3 -32 -10 20
-5 33 -13 110 -18 170 -12 134 -21 182 -32 164 -6 -10 -11 -5 -19 16 -7 17
-23 59 -37 95 -17 45 -26 92 -30 155 -9 159 -19 165 -18 10 2 -126 0 -144 -10
-115 -6 19 -16 46 -23 60 l-11 25 0 -27 c-1 -15 4 -30 9 -33 6 -3 10 -17 10
-30 0 -13 4 -27 10 -30 14 -9 12 -79 -4 -213 -17 -138 -31 -162 -21 -37 8 95
-1 111 -15 28 l-8 -48 -1 40 c-1 42 15 203 24 242 3 13 1 23 -4 23 -5 0 -12
-17 -14 -37 -2 -25 -4 -17 -5 25 -1 35 3 72 8 82 8 15 5 34 -11 77 -12 32 -32
108 -45 168 -28 132 -34 153 -29 100 9 -91 29 -211 37 -219 4 -6 8 -15 8 -20
0 -6 -5 -4 -10 4 -12 17 -7 -13 16 -97 16 -60 17 -66 5 -59 -5 3 -14 29 -21
57 -7 27 -15 48 -17 45 -3 -3 0 -27 6 -53 6 -26 13 -72 15 -100 3 -29 8 -58
12 -64 4 -7 3 -9 -4 -5 -23 14 -44 121 -66 341 -2 22 -3 -25 0 -105 3 -125 8
-162 36 -265 32 -117 33 -125 33 -325 l0 -205 -60 -6 c-108 -10 -237 -101
-318 -225 -27 -39 -119 -128 -242 -231 -33 -28 -74 -64 -91 -79 -17 -16 -86
-78 -154 -139 -120 -108 -193 -192 -231 -267 -25 -49 -79 -275 -85 -353 -4
-51 -17 -85 -89 -228 -51 -100 -85 -179 -85 -198 0 -64 69 -152 128 -165 15
-3 32 -7 39 -9 23 -7 138 16 170 35 17 10 34 16 37 13 3 -3 -12 -31 -34 -63
-21 -31 -75 -117 -120 -191 -126 -207 -242 -382 -390 -587 -175 -242 -260
-365 -295 -427 -16 -27 -42 -65 -59 -83 -18 -19 -24 -32 -16 -32 7 0 35 22 62
50 26 27 48 48 48 46 0 -17 -76 -129 -105 -154 -19 -17 -35 -36 -35 -42 0 -7
1159 -10 3675 -10 l3675 0 -2 3748 -3 3747 -5 -3735 -5 -3735 -3650 -2 -3650
-3 47 28 c26 15 107 81 179 147 124 112 158 137 282 203 36 19 52 35 66 68 11
23 67 117 126 208 l107 166 67 0 c164 0 284 75 462 287 l35 42 86 0 c47 0 106
5 132 12 26 6 48 10 51 8 2 -2 5 -84 7 -181 l4 -177 34 -36 c43 -45 87 -56
171 -46 82 11 103 22 155 80 39 43 43 45 68 33 41 -18 114 -15 163 9 92 44
146 154 165 334 11 101 15 114 33 119 36 10 423 6 450 -4 14 -5 85 -21 158
-34 142 -26 197 -49 493 -204 149 -78 315 -153 348 -156 13 -2 29 -7 37 -12 8
-5 16 -9 19 -10 3 0 16 -5 30 -11 14 -6 97 -27 185 -48 140 -32 175 -37 278
-36 123 1 224 20 331 62 101 40 153 46 236 27 86 -21 294 -51 491 -73 240 -26
318 -41 339 -67 10 -13 27 -34 39 -48 l22 -25 -12 25 -12 25 22 -19 c11 -11
24 -16 28 -13 3 4 2 7 -4 7 -28 0 -19 37 27 118 28 49 50 92 50 98 0 5 -23
-31 -50 -80 -56 -100 -61 -106 -67 -88 -6 15 -67 42 -94 42 -11 0 -19 4 -19
10 0 5 -7 7 -15 4 -8 -4 -15 -2 -15 4 0 6 -10 8 -22 4 -15 -4 -19 -2 -13 7 6
10 3 11 -12 2 -11 -6 -23 -8 -25 -5 -7 6 -49 16 -70 16 -10 -1 -20 4 -23 9 -4
5 -17 6 -31 3 -15 -4 -24 -2 -24 6 0 6 6 8 13 5 6 -4 3 1 -7 9 -15 12 -22 13
-34 4 -21 -18 -45 -19 -38 -2 7 19 -13 18 -38 -4 l-20 -17 19 30 19 30 -34
-28 c-23 -20 -35 -25 -40 -16 -5 6 -13 8 -20 4 -9 -5 -11 -4 -6 3 10 16 -6 15
-24 -1 -8 -6 -4 1 10 17 l25 29 -25 -14 c-14 -7 -36 -14 -49 -16 -22 -2 -23
-1 -6 18 23 25 10 25 -22 -1 -35 -27 -51 -25 -26 3 37 41 36 52 -2 17 l-38
-35 19 30 18 30 -32 -29 c-17 -16 -34 -27 -37 -24 -3 2 6 15 20 28 14 13 25
27 25 31 0 15 -31 2 -60 -26 -32 -31 -41 -25 -13 9 10 12 4 9 -13 -6 -36 -34
-56 -37 -27 -6 11 13 24 30 28 38 8 13 7 13 -8 1 -9 -7 -17 -10 -17 -6 0 4 -6
2 -13 -4 -8 -6 -18 -7 -22 -3 -5 4 -5 1 -1 -6 4 -7 12 -9 18 -6 7 4 8 2 4 -5
-6 -9 -11 -9 -22 0 -8 6 -14 15 -14 20 0 9 80 66 93 67 5 0 12 4 15 8 4 4 1 4
-5 0 -32 -18 -7 19 47 71 33 32 60 64 60 71 0 7 7 15 15 18 8 4 15 13 15 21 0
8 7 28 16 44 29 57 9 38 -54 -52 -40 -57 -67 -87 -75 -83 -7 4 -9 4 -5 -1 4
-4 -6 -18 -22 -32 -16 -13 -29 -27 -29 -31 1 -4 1 -14 0 -22 -1 -12 -3 -13
-10 -1 -7 10 -13 11 -30 2 -11 -7 -21 -17 -21 -23 0 -6 -3 -8 -7 -5 -3 4 6 21
22 37 50 52 22 40 -39 -17 -58 -54 -73 -82 -23 -42 15 11 27 17 27 12 -1 -4
-22 -23 -48 -42 -28 -21 -39 -26 -28 -13 17 19 10 33 -7 15 -4 -3 -35 -8 -68
-10 -42 -2 -66 -8 -74 -19 -6 -9 -32 -18 -59 -21 -31 -4 -43 -9 -34 -14 8 -5
-10 -9 -47 -10 -51 -1 -55 -3 -30 -10 20 -5 -2 -7 -65 -5 -90 3 -93 3 -55 -10
34 -11 35 -12 8 -8 -18 3 -77 7 -131 8 -93 3 -104 5 -166 39 -74 41 -90 42
-21 1 25 -14 44 -29 41 -31 -3 -3 -21 4 -41 16 -20 12 -41 19 -46 16 -5 -3
-19 0 -31 7 -13 7 -41 18 -63 24 -22 6 -49 14 -60 18 -11 4 -7 0 8 -9 16 -9
27 -19 24 -22 -7 -6 -61 22 -76 41 -8 9 -19 16 -25 16 -6 0 -21 15 -33 33 -13
17 -23 26 -23 20 0 -7 5 -15 10 -18 6 -3 10 -10 10 -16 0 -12 -40 -5 -49 9 -3
6 -18 13 -31 15 -39 8 -83 27 -102 44 -10 9 -18 12 -18 8 0 -4 -9 0 -20 10
-11 10 -20 15 -20 10 0 -4 -7 -2 -15 5 -8 6 -18 9 -24 6 -5 -3 -11 0 -14 8 -3
8 -19 17 -36 21 -20 4 -31 13 -31 23 0 15 2 15 10 2 5 -8 10 -11 10 -6 0 5 6
3 13 -3 8 -6 17 -8 20 -4 4 3 13 1 20 -5 8 -7 17 -9 20 -5 4 3 9 -1 13 -10 3
-9 12 -13 20 -10 8 3 14 0 14 -7 0 -6 5 -8 10 -5 6 4 27 -6 47 -21 20 -15 33
-22 29 -16 -4 7 -3 12 3 12 5 0 13 -5 16 -10 4 -6 11 -8 16 -5 5 4 12 -1 15
-9 3 -9 11 -13 18 -9 20 13 60 2 78 -20 12 -15 18 -17 18 -8 0 11 6 9 23 -6
24 -23 96 -63 111 -63 6 0 1 7 -10 15 -19 15 -19 15 1 9 11 -4 29 -14 39 -23
11 -9 16 -10 12 -4 -9 16 20 18 29 2 4 -6 13 -8 21 -5 7 3 42 -10 76 -28 35
-18 74 -36 88 -39 14 -4 9 1 -13 12 -50 24 -62 37 -46 46 7 5 10 4 6 -2 -4 -6
8 -9 31 -7 72 4 69 3 52 14 -19 12 -9 12 65 0 64 -11 182 -2 135 10 -15 4 14
9 74 13 89 7 232 34 223 43 -2 2 -32 -2 -68 -9 -67 -13 -216 -15 -334 -4 -38
3 -97 8 -130 11 -33 3 -76 9 -95 12 -19 4 -58 6 -87 5 -32 -2 -63 4 -83 14
-18 9 -83 33 -144 52 -61 19 -129 44 -151 56 -22 11 -82 34 -132 52 -93 32
-106 44 -49 46 l31 2 -35 7 c-22 5 -27 8 -13 9 12 0 25 6 28 11 8 12 11 13
-55 -5 -68 -18 -149 -19 -173 -1 -17 13 -16 16 15 41 l33 26 -32 -15 c-45 -22
-48 -20 -15 11 15 16 18 19 5 9 -13 -11 -23 -17 -23 -13 0 4 -15 -2 -32 -13
-36 -22 -53 -26 -43 -10 3 6 1 10 -6 10 -10 0 -10 3 -2 11 6 6 9 17 6 24 -2 8
4 18 14 23 10 6 38 34 62 64 l44 53 -62 -62 c-54 -55 -124 -104 -148 -103 -4
1 3 10 16 21 13 11 21 22 18 26 -4 3 4 14 16 23 12 10 30 33 40 51 16 29 12
27 -27 -16 -34 -37 -48 -47 -54 -37 -7 10 -13 7 -26 -13 -10 -15 -20 -24 -23
-21 -3 3 2 17 11 30 23 36 20 43 -9 16 -13 -12 -22 -26 -20 -30 2 -4 -3 -7
-11 -7 -8 0 -13 6 -10 13 7 17 -19 11 -44 -11 -24 -21 -25 -16 -6 29 18 42 4
73 -15 33 -7 -15 -15 -27 -19 -27 -4 0 -10 -10 -13 -22 -4 -12 -9 -19 -13 -15
-4 3 0 17 9 30 14 22 14 23 -5 22 -11 -1 -26 -12 -34 -26 -12 -22 -13 -22 -14
-4 0 17 -2 18 -11 5 -9 -12 -10 -10 -6 8 5 19 3 21 -9 11 -11 -9 -14 -8 -15 7
0 16 -2 16 -11 -3 -11 -24 -32 -30 -43 -14 -5 9 -49 6 -67 -5 -4 -3 -8 2 -8
10 0 19 -21 21 -38 4 -10 -10 -15 -10 -22 2 -8 13 -10 13 -10 0 0 -10 -5 -8
-17 7 l-18 22 -11 -27 -12 -27 -1 28 c-1 16 -5 26 -11 22 -6 -3 -11 4 -11 17
-1 20 -2 21 -6 3 -3 -11 -15 -30 -28 -42 -21 -20 -24 -20 -30 -5 -5 13 -8 14
-14 3 -10 -16 -22 -16 -32 1 -6 9 -9 4 -9 -14 0 -18 -5 -28 -15 -28 -8 0 -15
6 -15 13 0 9 -3 8 -9 -2 -7 -11 -9 -11 -14 0 -3 9 -8 6 -15 -11 -6 -14 -11
-19 -11 -12 -1 7 -5 10 -11 7 -5 -3 -10 0 -11 7 0 7 -5 3 -11 -9 -14 -29 -28
-29 -28 0 0 18 -2 19 -10 7 -5 -8 -10 -11 -10 -6 0 6 -7 1 -15 -10 -9 -12 -14
-14 -15 -6 0 19 -59 -28 -60 -48 0 -12 -3 -11 -11 3 -9 16 -12 16 -26 2 -9 -9
-22 -14 -29 -11 -8 3 -14 -1 -14 -10 0 -8 -4 -12 -10 -9 -5 3 -10 1 -10 -5 0
-7 -12 -9 -33 -5 -61 11 -136 12 -139 3 -2 -5 -28 -11 -58 -13 -109 -8 -187
-16 -295 -31 -60 -9 -155 -17 -210 -17 -137 -2 -174 18 -275 140 -40 48 -40
137 0 221 100 211 394 334 850 356 52 2 154 17 225 31 107 22 157 39 283 96
84 38 155 69 158 69 7 0 211 88 257 111 23 12 79 53 125 92 45 38 86 67 90 63
4 -4 -1 -12 -11 -17 -9 -6 -29 -21 -45 -35 l-27 -26 32 22 c31 20 34 20 60 4
l28 -16 -23 20 c-24 22 -16 36 15 26 13 -5 11 -1 -5 11 l-24 17 42 43 c23 23
42 50 44 59 1 10 7 21 12 24 9 7 36 43 88 117 18 25 7 16 -30 -25 -102 -112
-146 -156 -135 -133 6 12 16 25 21 28 9 5 88 119 115 164 21 36 -19 -6 -55
-57 -52 -74 -120 -150 -120 -134 0 7 17 31 38 55 61 68 70 87 14 27 -29 -30
-59 -68 -68 -85 -12 -25 -13 -26 -8 -5 9 38 21 100 29 150 l7 45 -25 -50 c-13
-28 -29 -67 -36 -87 -7 -21 -18 -37 -24 -35 -6 1 -13 -9 -15 -23 -6 -41 -23
-102 -28 -98 -2 3 2 36 10 74 11 52 12 70 3 76 -8 5 -15 -2 -19 -19 -5 -18 -3
-30 5 -35 7 -4 8 -8 2 -8 -5 0 -11 -14 -12 -32 -1 -17 -8 -36 -14 -42 -8 -8
-9 -5 -4 12 4 13 2 22 -4 22 -6 0 -11 -8 -11 -19 0 -10 -7 -24 -15 -31 -8 -7
-15 -20 -14 -29 0 -11 3 -9 9 7 5 12 14 22 20 22 16 0 12 -11 -15 -36 -14 -13
-30 -34 -35 -46 -8 -22 -9 -22 -9 5 -1 34 -16 28 -24 -10 -3 -16 -13 -37 -22
-48 -16 -19 -16 -19 -5 3 8 17 8 27 0 36 -6 9 -7 22 -2 37 5 13 7 29 5 36 -2
6 1 14 6 18 15 9 14 38 -1 33 -7 -3 -16 -26 -20 -53 -9 -61 -24 -78 -21 -22 2
29 0 36 -5 23 -6 -14 -11 -16 -16 -7 -4 6 -2 19 6 28 11 15 11 16 -4 10 -14
-5 -18 -1 -19 16 0 12 -3 16 -6 9 -3 -9 -10 -4 -19 13 -14 27 -20 155 -7 142
3 -4 6 -23 5 -42 -1 -36 13 -48 21 -18 3 10 5 3 6 -15 1 -22 5 -31 12 -26 6 3
14 2 18 -4 3 -5 6 38 6 96 0 59 4 121 8 137 7 23 6 27 -3 15 -11 -15 -9 8 7
78 10 42 -5 22 -27 -38 -12 -33 -26 -63 -30 -65 -9 -5 -1 33 9 50 4 6 4 78 1
160 -4 83 -8 134 -9 115 l-4 -35 -7 35 -7 35 -3 -45 c-3 -42 -3 -43 -7 -10 -8
63 -26 61 -20 -3 3 -33 2 -55 -3 -52 -6 4 -7 -24 -4 -66 6 -74 -10 -135 -28
-107 -6 10 -8 10 -8 1 0 -18 -41 -125 -46 -120 -2 2 2 19 10 38 7 19 16 52 19
74 5 37 4 35 -13 -15 -14 -38 -18 -44 -14 -20 8 43 -7 32 -22 -18 l-12 -37 -2
40 -2 40 -8 -42 c-9 -43 -28 -88 -35 -81 -3 2 2 26 10 53 8 26 14 69 14 94 -2
44 -2 44 -9 -14 -8 -68 -35 -139 -49 -131 -5 4 -12 0 -15 -6 -2 -7 -3 21 -1
62 4 72 4 73 -6 25 -5 -27 -11 -59 -12 -70 -2 -21 -26 -28 -127 -41 -72 -9
-235 -12 -283 -6 -28 3 -37 9 -37 24 0 11 -4 17 -8 14 -5 -3 -8 18 -6 47 3 39
1 46 -5 27 -6 -16 -8 17 -8 98 2 107 4 122 19 122 9 0 18 6 21 13 3 9 9 8 23
-4 36 -30 49 -30 15 0 -30 26 -32 31 -17 37 16 6 88 1 161 -11 23 -3 21 -1
-10 9 -22 8 -57 15 -78 15 -21 1 -36 5 -33 10 6 9 30 8 88 -4 26 -5 30 -4 18
5 -13 10 -12 11 3 6 10 -3 24 -6 30 -7 7 0 3 -5 -8 -10 -19 -9 -19 -9 2 -5 18
3 100 -18 111 -29 2 -1 -19 -1 -45 1 -37 3 -42 2 -23 -5 31 -11 92 -13 143 -5
51 9 46 19 -11 20 -27 0 -90 16 -148 36 -55 20 -107 36 -115 36 -42 -3 -52 2
-39 17 48 57 363 182 655 259 172 46 377 117 410 142 38 29 145 74 177 74 23
1 23 1 3 16 -16 12 -18 18 -7 34 15 25 18 25 -54 -3 -49 -19 -73 -22 -138 -19
-71 4 -78 6 -61 18 25 19 11 18 -25 -1 -17 -9 -30 -12 -30 -7 0 4 35 23 78 41
92 39 198 107 267 171 28 26 72 59 98 74 27 15 46 30 43 33 -3 3 -11 1 -18 -4
-26 -21 -275 -112 -322 -117 l-48 -6 48 35 c27 19 56 38 64 42 44 19 239 138
231 141 -6 2 -45 -12 -88 -31 -133 -58 -155 -66 -275 -102 -133 -40 -148 -42
-95 -14 21 11 35 24 32 28 -2 5 26 27 63 49 37 23 81 52 97 66 24 20 6 15 -85
-26 -63 -28 -124 -51 -134 -50 -10 0 -67 -17 -126 -39 -59 -21 -114 -39 -121
-38 -19 1 8 12 114 50 48 17 86 33 83 36 -5 5 -109 -26 -185 -56 -29 -12 -56
-20 -58 -17 -7 6 17 17 137 67 58 23 116 50 130 60 14 10 63 25 110 34 47 8
114 24 150 36 36 11 81 25 100 31 49 15 620 272 758 342 120 60 354 205 424
263 42 34 83 79 109 121 23 37 84 111 135 164 52 53 94 104 94 112 0 19 -5 20
-31 6 -33 -18 -22 -6 62 66 84 72 110 111 146 219 31 93 36 118 21 109 -7 -4
-43 -27 -81 -51 -37 -24 -70 -43 -73 -43 -3 0 29 37 72 83 82 86 147 175 159
215 6 20 -5 14 -66 -32 -40 -31 -74 -54 -76 -52 -3 2 12 26 31 53 54 72 75
122 92 225 l16 93 67 71 c130 138 190 255 215 419 5 34 4 37 -7 21 -29 -45
-60 -76 -89 -91 -38 -18 -45 -15 -18 10 11 10 20 21 20 25 0 3 -22 -15 -49
-41 -85 -82 -250 -165 -387 -194 -70 -15 -91 -16 -167 -5 -48 7 -89 15 -91 19
-3 4 34 17 82 30 326 85 539 174 642 268 52 48 77 63 127 77 62 17 142 64 240
141 51 40 106 119 140 202 10 24 25 43 33 43 13 0 13 2 1 9 -11 7 -4 14 26 29
22 11 64 40 94 65 30 24 73 54 97 66 34 17 57 44 119 136 80 121 101 182 59
169 -12 -4 -17 -3 -13 2 19 20 -315 84 -433 84 -54 -1 -70 -5 -94 -25z m-6
-33 c0 -4 -10 -13 -22 -21 -23 -14 -23 -14 -4 8 20 22 26 25 26 13z m415 -11
c-11 -4 -38 -11 -60 -14 l-40 -5 30 13 c17 8 44 14 60 14 25 0 27 -2 10 -8z
m135 -51 c0 -5 -5 -10 -11 -10 -5 0 -7 5 -4 10 3 6 8 10 11 10 2 0 4 -4 4 -10z
m-235 -31 c-27 -11 -81 -32 -120 -46 -83 -30 -129 -53 -122 -59 3 -3 24 4 47
16 23 12 45 19 48 16 3 -3 -1 -6 -8 -6 -7 0 -11 -2 -8 -5 3 -3 13 -2 22 1 14
5 15 9 4 16 -9 7 -7 8 10 5 14 -3 20 -1 15 5 -3 6 -1 8 4 5 6 -4 27 0 47 8 41
17 54 19 41 6 -15 -14 -172 -80 -178 -75 -3 3 -25 -4 -49 -16 -26 -13 -35 -15
-23 -5 11 9 20 21 20 28 0 13 146 89 215 111 67 22 92 18 35 -5z m175 -34 c-7
-8 -21 -15 -32 -15 -10 0 -17 -4 -14 -9 3 -5 -7 -14 -22 -20 -46 -18 -285 -81
-290 -76 -6 5 6 10 99 40 40 12 66 25 58 27 -15 5 163 67 195 68 15 0 16 -3 6
-15z m-140 -95 c-14 -10 -40 -22 -59 -25 -19 -4 -98 -26 -175 -51 -77 -24
-147 -44 -155 -43 -17 1 0 7 92 35 31 9 55 19 53 21 -3 3 -28 -3 -56 -12 -28
-9 -54 -15 -57 -12 -7 8 105 40 115 33 10 -6 185 40 227 59 41 20 45 18 15 -5z
m-380 6 c0 -2 -8 -10 -17 -17 -16 -13 -17 -12 -4 4 13 16 21 21 21 13z m30
-20 c0 -2 -8 -10 -17 -17 -16 -13 -17 -12 -4 4 13 16 21 21 21 13z m-76 -18
c-5 -8 -1 -9 12 -5 10 4 1 -9 -20 -28 -22 -19 -37 -35 -33 -35 11 0 106 51
112 60 3 6 14 10 23 10 15 -1 14 -3 -3 -16 -33 -25 -237 -125 -243 -120 -3 3
18 16 47 29 29 12 49 26 44 30 -4 4 6 19 22 31 17 13 31 29 31 35 2 18 4 21
10 21 3 0 2 -5 -2 -12z m-156 -35 c-8 -10 -15 -29 -16 -43 -1 -24 -1 -24 23 5
13 17 24 24 25 17 0 -7 5 -10 10 -7 20 12 9 -2 -27 -36 -20 -18 -33 -29 -29
-22 3 6 2 14 -3 17 -5 3 -21 -10 -36 -30 -15 -19 -30 -33 -33 -30 -3 4 5 17
17 30 25 27 20 56 -6 35 -8 -8 -5 3 7 24 24 40 32 47 24 20 -3 -10 7 -3 22 15
15 18 29 30 32 27 3 -3 -1 -13 -10 -22z m412 -13 c-8 -5 -19 -10 -25 -10 -5 0
-3 5 5 10 8 5 20 10 25 10 6 0 3 -5 -5 -10z m-555 -39 c-21 -43 -29 -39 -8 4
9 19 18 33 21 31 2 -2 -4 -18 -13 -35z m-10 -131 c-3 -6 -20 -17 -36 -25 -16
-9 -27 -20 -24 -24 2 -5 -3 -15 -13 -22 -16 -13 -16 -13 -2 5 14 18 13 19 -5
12 -25 -9 -12 3 40 38 44 29 49 31 40 16z m218 -17 c-13 -2 -33 -2 -45 0 -13
2 -3 4 22 4 25 0 35 -2 23 -4z m-386 -35 c-3 -8 -6 -5 -6 6 -1 11 2 17 5 13 3
-3 4 -12 1 -19z m498 8 c-14 -9 -38 -12 -77 -8 -80 6 -62 22 25 22 63 0 69 -2
52 -14z m-451 -37 c-10 -12 -55 -48 -99 -80 -44 -32 -92 -68 -107 -79 -15 -12
-33 -18 -39 -14 -7 4 -9 3 -5 -4 3 -5 -13 -25 -36 -43 -69 -54 -181 -150 -213
-184 -16 -17 -77 -73 -134 -125 -57 -52 -143 -133 -191 -180 -47 -47 -153
-150 -234 -230 -146 -144 -293 -308 -456 -510 -93 -115 -148 -181 -287 -346
-145 -171 -287 -358 -377 -494 -45 -69 -93 -141 -106 -161 -14 -20 -76 -112
-139 -205 -62 -93 -130 -191 -150 -219 -20 -27 -47 -72 -61 -100 -14 -27 -31
-50 -37 -50 -6 0 -15 -4 -20 -9 -5 -5 -3 -6 5 -2 17 10 15 -5 -4 -32 -8 -12
-19 -20 -24 -17 -5 3 -12 0 -16 -6 -4 -8 -3 -9 4 -5 18 11 14 -10 -5 -25 -14
-12 -16 -12 -8 0 5 10 4 12 -4 7 -6 -4 -9 -12 -5 -17 3 -6 -1 -18 -9 -27 -8
-9 -54 -75 -103 -147 -48 -71 -103 -145 -121 -164 -19 -19 -31 -41 -28 -48 2
-8 1 -11 -5 -8 -10 6 -33 -29 -24 -38 3 -3 0 -8 -7 -13 -8 -5 -10 -3 -4 7 15
25 -3 4 -29 -34 -14 -20 -21 -37 -15 -37 6 0 7 -5 4 -10 -4 -6 -10 -8 -15 -5
-5 3 -12 0 -16 -6 -4 -8 -3 -9 4 -5 17 10 15 -6 -4 -32 -8 -12 -20 -19 -26
-16 -7 4 -8 2 -4 -5 4 -6 -8 -32 -27 -59 -47 -64 -106 -164 -227 -382 -57
-102 -120 -210 -140 -240 -39 -58 -180 -298 -180 -306 0 -2 -27 -49 -60 -103
-33 -55 -82 -146 -109 -203 -26 -56 -58 -112 -70 -122 -28 -25 -27 -15 4 30
14 20 25 42 25 48 -1 6 -6 1 -13 -12 -7 -12 -16 -20 -19 -17 -3 4 -9 1 -14 -6
-5 -8 -3 -10 6 -4 8 5 11 3 8 -5 -4 -14 -38 -23 -38 -11 0 4 25 48 55 98 30
50 55 96 55 102 0 6 5 11 11 11 5 0 8 4 5 9 -4 5 -2 11 2 13 10 4 63 81 84
123 41 79 83 152 98 170 19 24 90 143 90 153 0 4 -14 -13 -30 -38 -16 -25 -30
-38 -30 -30 0 24 -22 -5 -25 -33 -4 -33 -27 -76 -33 -59 -2 6 -8 9 -14 6 -13
-8 31 69 59 104 13 15 20 19 17 10 -14 -40 7 -13 47 59 23 43 45 80 48 83 7 6
65 124 80 162 15 39 122 210 128 204 3 -3 41 52 85 122 43 70 104 159 134 198
55 72 75 114 28 59 -14 -16 -21 -21 -15 -10 5 11 20 31 33 45 13 14 19 20 14
13 -5 -8 -7 -16 -4 -19 3 -3 36 40 73 96 38 55 66 103 63 105 -3 3 -19 -16
-37 -42 -17 -26 -31 -43 -31 -37 0 18 59 94 71 91 12 -2 170 244 163 255 -7
10 56 91 64 83 3 -3 -9 -20 -26 -38 -31 -32 -43 -55 -22 -42 16 10 12 -5 -11
-36 -11 -16 -18 -29 -15 -29 6 0 62 80 66 95 2 6 22 39 45 75 22 36 58 97 79
135 21 39 56 95 77 125 69 96 87 122 184 267 53 78 100 145 105 148 6 3 10 13
10 22 0 25 70 119 150 201 25 25 36 39 25 31 -12 -9 -8 1 11 26 17 22 55 74
84 115 65 91 170 211 180 205 4 -2 18 8 31 23 l24 27 -27 -24 c-51 -45 -29
-10 50 79 43 49 91 108 107 132 42 61 134 163 148 163 7 0 26 24 44 53 32 54
144 177 201 221 17 13 29 27 27 31 -7 11 73 96 134 142 30 24 96 85 146 136
83 84 118 112 99 80 -4 -8 -3 -10 2 -5 5 5 9 12 9 16 0 8 50 52 108 94 20 16
35 32 32 36 -4 8 41 53 90 91 17 13 18 13 10 0 -5 -8 19 15 54 52 35 38 68 65
74 61 5 -3 7 -2 4 4 -4 6 4 19 16 30 37 33 54 38 27 8 l-25 -29 31 22 c17 11
37 28 44 37 11 13 10 15 -6 9 -18 -5 0 7 87 63 19 11 52 35 74 53 39 30 166
118 174 119 2 1 -4 -9 -15 -20z m309 4 c-18 -2 -48 -2 -65 0 -18 2 -4 4 32 4
36 0 50 -2 33 -4z m100 -10 c-7 -2 -21 -2 -30 0 -10 3 -4 5 12 5 17 0 24 -2
18 -5z m-196 -9 c-3 -3 -12 -4 -19 -1 -8 3 -5 6 6 6 11 1 17 -2 13 -5z m162
-130 c8 -8 -95 -2 -119 7 -16 5 1 6 45 2 39 -3 72 -7 74 -9z m-236 -11 c-7 -2
-19 -2 -25 0 -7 3 -2 5 12 5 14 0 19 -2 13 -5z m142 -44 c19 -4 -190 -15 -212
-11 -13 2 -20 8 -18 13 5 7 197 5 230 -2z m-425 -25 c0 -2 -12 -4 -26 -4 -14
0 -23 4 -20 9 6 8 46 4 46 -5z m163 -41 c-7 -2 -21 -2 -30 0 -10 3 -4 5 12 5
17 0 24 -2 18 -5z m-596 -35 c-3 -7 -5 -2 -5 12 0 14 2 19 5 13 2 -7 2 -19 0
-25z m570 6 c-3 -3 -12 -4 -19 -1 -8 3 -5 6 6 6 11 1 17 -2 13 -5z m-174 -21
c-7 -2 -21 -2 -30 0 -10 3 -4 5 12 5 17 0 24 -2 18 -5z m-576 -70 c-3 -10 -5
-4 -5 12 0 17 2 24 5 18 2 -7 2 -21 0 -30z m466 30 c-7 -2 -21 -2 -30 0 -10 3
-4 5 12 5 17 0 24 -2 18 -5z m-326 -35 c-3 -7 -5 -2 -5 12 0 14 2 19 5 13 2
-7 2 -19 0 -25z m583 21 c-30 -4 -98 -10 -150 -13 l-95 -5 94 9 c52 5 99 11
105 14 6 2 31 4 56 4 l45 -1 -55 -8z m-323 -35 c-3 -3 -12 -4 -19 -1 -8 3 -5
6 6 6 11 1 17 -2 13 -5z m80 -30 c-3 -3 -12 -4 -19 -1 -8 3 -5 6 6 6 11 1 17
-2 13 -5z m0 -30 c-3 -3 -12 -4 -19 -1 -8 3 -5 6 6 6 11 1 17 -2 13 -5z m-79
-31 c-10 -2 -26 -2 -35 0 -10 3 -2 5 17 5 19 0 27 -2 18 -5z m252 -7 c0 -6
-93 -37 -97 -32 -2 2 15 11 39 19 47 17 58 19 58 13z m-633 -58 c-3 -8 -6 -5
-6 6 -1 11 2 17 5 13 3 -3 4 -12 1 -19z m508 -4 c-27 -7 -54 -13 -60 -13 -17
2 69 27 90 27 11 0 -2 -6 -30 -14z m-120 -30 c-27 -7 -54 -13 -60 -13 -17 2
69 27 90 27 11 0 -2 -6 -30 -14z m-78 -20 c-3 -3 -12 -4 -19 -1 -8 3 -5 6 6 6
11 1 17 -2 13 -5z m-154 -11 c-7 -2 -19 -2 -25 0 -7 3 -2 5 12 5 14 0 19 -2
13 -5z m531 -8 c-10 -8 -23 -14 -29 -14 -5 0 -1 6 9 14 11 8 24 15 30 15 5 0
1 -7 -10 -15z m-591 -22 c-7 -2 -19 -2 -25 0 -7 3 -2 5 12 5 14 0 19 -2 13 -5z
m47 -93 c-30 -5 -71 -8 -90 -8 l-35 0 30 8 c17 4 57 8 90 7 l60 0 -55 -7z
m519 -14 c-2 -2 -15 -9 -29 -15 -24 -11 -24 -11 -6 3 16 13 49 24 35 12z m17
-34 l-29 -27 23 32 c13 18 26 30 29 28 3 -3 -8 -18 -23 -33z m-1179 -24 c-3
-7 -5 -2 -5 12 0 14 2 19 5 13 2 -7 2 -19 0 -25z m943 18 c0 -8 -156 -56 -200
-61 -52 -5 -44 -3 100 38 96 28 100 29 100 23z m150 -36 c-62 -50 -131 -91
-142 -84 -6 4 -8 3 -5 -3 4 -7 -19 -24 -53 -42 -74 -39 -78 -34 -7 9 66 40 54
36 -53 -17 -79 -39 -247 -83 -234 -61 7 11 -12 10 -85 -7 -35 -9 -66 -13 -68
-11 -5 5 93 36 113 36 7 0 14 4 16 8 2 5 44 21 93 36 50 15 127 43 173 63 90
38 238 90 262 92 9 0 6 -7 -10 -19z m-1143 -42 c-3 -7 -5 -2 -5 12 0 14 2 19
5 13 2 -7 2 -19 0 -25z m576 25 c-7 -2 -19 -2 -25 0 -7 3 -2 5 12 5 14 0 19
-2 13 -5z m576 -29 c-13 -14 -33 -30 -44 -35 -11 -6 -2 6 20 25 47 42 58 47
24 10z m-336 -11 c-7 -2 -19 -2 -25 0 -7 3 -2 5 12 5 14 0 19 -2 13 -5z m237
-58 c-18 -21 -110 -88 -115 -83 -4 4 115 98 123 98 3 0 -1 -7 -8 -15z m-454
-12 c-34 -10 -55 -12 -70 -5 -17 8 -12 10 27 10 27 0 51 3 55 6 3 3 12 6 21 5
9 -1 -6 -8 -33 -16z m-1849 -65 c-3 -7 -5 -2 -5 12 0 14 2 19 5 13 2 -7 2 -19
0 -25z m1417 -12 c-16 -19 -35 -37 -43 -41 -15 -6 -8 4 43 62 31 37 31 17 0
-21z m386 23 c-32 -11 -200 -47 -200 -42 0 13 148 51 200 51 l25 0 -25 -9z
m470 -4 c0 -6 -56 -35 -67 -35 -4 1 8 9 27 20 39 22 40 22 40 15z m-1073 -97
c-2 -18 -4 -6 -4 27 0 33 2 48 4 33 2 -15 2 -42 0 -60z m831 72 c-19 -11 -201
-50 -207 -45 -6 6 170 52 204 54 18 0 18 -1 3 -9z m92 -10 c-8 -5 -19 -10 -25
-10 -5 0 -3 5 5 10 8 5 20 10 25 10 6 0 3 -5 -5 -10z m60 -10 c-8 -5 -19 -10
-25 -10 -5 0 -3 5 5 10 8 5 20 10 25 10 6 0 3 -5 -5 -10z m-1195 -155 l5 -80
-15 95 c-16 112 -17 123 -4 90 6 -13 12 -60 14 -105z m1214 121 c-9 -8 -93
-48 -87 -41 15 16 63 44 77 44 8 1 12 -1 10 -3z m-2222 -43 c-3 -10 -5 -4 -5
12 0 17 2 24 5 18 2 -7 2 -21 0 -30z m832 -8 c0 -5 -4 -3 -9 5 -5 8 -9 22 -9
30 0 16 17 -16 18 -35z m491 -5 c-11 -16 -26 -33 -32 -36 -7 -4 1 9 16 29 34
44 46 50 16 7z m653 23 c-7 -2 -21 -2 -30 0 -10 3 -4 5 12 5 17 0 24 -2 18 -5z
m-820 -55 c-8 -59 -13 -61 -13 -5 0 26 4 47 9 47 5 0 7 -19 4 -42z m1067 37
c0 -7 -63 -45 -75 -45 -5 0 8 11 30 25 44 27 45 27 45 20z m-190 -10 c0 -5
-132 -45 -150 -45 -27 0 1 12 67 30 77 21 83 22 83 15z m-1193 -27 c-3 -8 -6
-5 -6 6 -1 11 2 17 5 13 3 -3 4 -12 1 -19z m928 13 c-27 -11 -147 -19 -138
-10 7 7 38 10 138 17 l20 1 -20 -8z m521 -19 c-18 -16 -18 -16 -6 6 6 13 14
21 18 18 3 -4 -2 -14 -12 -24z m-1439 -34 c-3 -8 -6 -5 -6 6 -1 11 2 17 5 13
3 -3 4 -12 1 -19z m433 19 c0 -2 -12 -14 -27 -28 l-26 -24 19 27 c16 23 34 36
34 25z m565 -7 c-11 -5 -27 -9 -35 -9 -9 0 -8 4 5 9 11 5 27 9 35 9 9 0 8 -4
-5 -9z m-858 -77 c-2 -16 -4 -5 -4 22 0 28 2 40 4 28 2 -13 2 -35 0 -50z m969
48 c-10 -16 -361 -89 -372 -78 -2 2 68 18 156 36 89 18 171 36 183 41 29 12
39 12 33 1z m-1099 -23 c-3 -8 -6 -5 -6 6 -1 11 2 17 5 13 3 -3 4 -12 1 -19z
m690 6 c-3 -3 -12 -4 -19 -1 -8 3 -5 6 6 6 11 1 17 -2 13 -5z m243 -4 c-14 -4
-38 -8 -55 -8 l-30 0 30 8 c17 4 41 8 55 8 l25 0 -25 -8z m-736 -52 c8 -6 8
-8 -1 -8 -6 0 -13 -8 -15 -17 -3 -10 -4 5 -5 32 0 28 2 39 5 25 2 -14 9 -28
16 -32z m150 17 c-14 -19 -29 -35 -31 -35 -5 0 7 18 36 53 26 31 23 18 -5 -18z
m876 -15 c-39 -30 -104 -64 -95 -50 5 8 3 11 -6 8 -8 -3 -13 -11 -11 -17 1 -7
-2 -10 -7 -7 -5 3 -31 -5 -59 -19 -61 -31 -295 -92 -387 -101 -39 -4 -68 -4
-65 -1 3 3 82 24 175 47 94 22 219 61 278 85 60 24 114 42 120 39 7 -2 26 5
42 16 38 25 48 26 15 0z m-523 -16 c-3 -3 -12 -4 -19 -1 -8 3 -5 6 6 6 11 1
17 -2 13 -5z m73 -13 c-17 -10 -128 -25 -119 -17 3 3 30 10 60 15 72 12 77 12
59 2z m130 0 c-8 -5 -51 -18 -95 -31 -44 -12 -100 -28 -125 -35 -24 -8 -46
-12 -48 -10 -4 4 66 28 173 58 96 27 119 31 95 18z m-965 -87 c4 -25 3 -24 -8
6 -8 19 -17 46 -20 60 -5 19 -3 17 8 -6 7 -17 16 -44 20 -60z m346 68 c-5 -9
-20 -26 -32 -37 -24 -20 -24 -20 -9 0 36 51 60 72 41 37z m1074 10 c-6 -4 -24
-18 -40 -32 -29 -24 -29 -23 2 8 18 17 36 32 40 32 4 0 3 -3 -2 -8z m-722 -19
c-7 -2 -19 -2 -25 0 -7 3 -2 5 12 5 14 0 19 -2 13 -5z m551 -51 c-105 -83
-247 -151 -429 -206 -178 -54 -171 -42 10 18 193 65 287 107 380 174 83 59
108 68 39 14z m-960 -17 c-4 -9 -15 -20 -26 -26 -20 -11 -20 -11 -2 15 21 28
37 34 28 11z m941 -30 c-44 -38 -173 -110 -182 -102 -3 3 21 19 53 36 33 16
82 45 109 65 64 44 71 45 20 1z m-65 20 c0 -11 -225 -114 -260 -120 -21 -3 -4
6 40 23 41 16 104 45 140 65 64 36 80 42 80 32z m220 -15 c-62 -49 -190 -133
-195 -128 -3 3 43 37 102 76 106 70 143 91 93 52z m-880 0 c-14 -4 -36 -8 -50
-8 -23 -1 -23 0 -5 8 11 5 34 8 50 8 29 0 29 0 5 -8z m-482 -75 c0 -16 -2 -15
-8 5 -4 14 -8 36 -8 50 0 22 1 22 8 -5 4 -16 8 -39 8 -50z m185 12 c-22 -36
-79 -106 -86 -107 -9 0 4 20 53 78 35 42 48 53 33 29z m1327 -34 c-12 -21 -46
-65 -76 -98 l-55 -60 48 61 c27 33 59 77 72 97 30 48 38 48 11 0z m-2053 5
c-3 -8 -6 -5 -6 6 -1 11 2 17 5 13 3 -3 4 -12 1 -19z m1886 -33 c-54 -36 -263
-138 -270 -131 -2 2 44 27 102 55 58 28 127 65 153 81 66 42 78 37 15 -5z
m-1655 -126 c29 -149 33 -173 27 -167 -6 6 -65 285 -64 303 1 25 19 -40 37
-136z m59 99 c-3 -7 -5 -2 -5 12 0 14 2 19 5 13 2 -7 2 -19 0 -25z m780 26
c-3 -3 -12 -4 -19 -1 -8 3 -5 6 6 6 11 1 17 -2 13 -5z m-49 -11 c-10 -2 -26
-2 -35 0 -10 3 -2 5 17 5 19 0 27 -2 18 -5z m912 3 c0 -8 -146 -120 -180 -138
l-35 -19 29 23 c44 34 181 137 184 138 1 0 2 -2 2 -4z m-703 -12 c-8 -8 -149
-35 -155 -29 -5 4 17 10 93 24 67 12 69 12 62 5z m220 -30 c-16 -9 -31 -13
-34 -10 -3 3 5 10 18 15 37 15 47 12 16 -5z m-87 -24 c-8 -5 -22 -9 -30 -9
-10 0 -8 3 5 9 27 12 43 12 25 0z m-183 -6 c-3 -3 -12 -4 -19 -1 -8 3 -5 6 6
6 11 1 17 -2 13 -5z m213 -8 c0 -3 -33 -15 -72 -27 -40 -12 -107 -32 -148 -45
-50 -16 -96 -24 -140 -23 l-65 2 70 7 c39 4 108 19 155 33 177 54 200 60 200
53z m176 -15 c-8 -12 -155 -65 -162 -59 -2 3 30 19 73 36 87 33 97 36 89 23z
m-829 -17 c-3 -3 -12 -4 -19 -1 -8 3 -5 6 6 6 11 1 17 -2 13 -5z m-1300 -236
c2 -240 22 -436 53 -516 11 -30 16 -51 10 -47 -5 3 -10 13 -10 22 0 9 -3 14
-6 10 -8 -8 82 -298 108 -350 11 -22 17 -41 14 -44 -5 -6 -56 102 -56 119 0 5
-4 7 -9 4 -5 -4 -7 4 -4 16 4 18 2 20 -5 9 -8 -11 -14 -2 -26 40 -27 94 -44
180 -61 309 -23 163 -30 640 -11 640 1 0 2 -96 3 -212z m711 37 c26 -114 36
-178 23 -150 -9 21 -72 304 -70 321 1 14 25 -72 47 -171z m1362 155 c-8 -5
-19 -10 -25 -10 -5 0 -3 5 5 10 8 5 20 10 25 10 6 0 3 -5 -5 -10z m-210 -30
c-8 -5 -22 -9 -30 -9 -10 0 -8 3 5 9 27 12 43 12 25 0z m207 4 c-3 -3 -12 -4
-19 -1 -8 3 -5 6 6 6 11 1 17 -2 13 -5z m145 -28 c-35 -18 -62 -36 -60 -42 3
-9 -185 -88 -237 -98 -39 -7 -24 0 125 58 63 25 109 45 102 46 -7 0 -11 4 -8
9 4 5 0 11 -6 14 -7 2 1 11 19 20 40 21 58 22 20 1 -48 -26 -23 -26 34 0 78
36 85 31 11 -8z m-1171 -13 c-5 -10 -31 -40 -56 -68 -52 -55 -42 -37 19 38 41
49 54 59 37 30z m501 -3 c-52 -19 -203 -39 -190 -26 7 8 190 44 223 44 11 0
-4 -8 -33 -18z m448 -26 c-36 -14 -70 -30 -77 -36 -7 -5 -46 -12 -88 -13 -41
-2 -85 -7 -97 -10 -13 -4 -20 -4 -16 0 8 9 293 82 323 83 11 0 -9 -11 -45 -24z
m-597 -21 c-7 -2 -19 -2 -25 0 -7 3 -2 5 12 5 14 0 19 -2 13 -5z m-164 -37
c-2 -2 -20 -6 -39 -10 -25 -4 -31 -3 -20 4 14 9 69 15 59 6z m559 -31 c-60
-32 -190 -75 -220 -74 -13 0 10 12 50 26 40 14 72 27 70 29 -2 2 -46 -10 -98
-25 -52 -16 -111 -31 -130 -35 -31 -6 -33 -5 -15 6 22 13 338 96 370 97 12 0
2 -9 -27 -24z m-1134 -94 l6 -56 -15 65 c-15 73 -19 123 -5 76 5 -15 11 -53
14 -85z m1596 69 c-19 -16 -39 -29 -45 -30 -5 0 6 13 25 30 19 16 39 29 45 30
5 0 -6 -13 -25 -30z m-697 13 c-7 -2 -19 -2 -25 0 -7 3 -2 5 12 5 14 0 19 -2
13 -5z m417 -27 c-97 -50 -387 -130 -509 -141 -48 -5 -43 -2 34 15 50 11 187
51 305 89 118 38 220 70 225 70 6 0 -19 -15 -55 -33z m-520 0 c-71 -25 -149
-42 -138 -30 11 10 159 53 183 53 11 0 -9 -11 -45 -23z m715 4 c-3 -5 -16 -15
-28 -21 -21 -10 -21 -9 2 10 25 23 36 27 26 11z m-2184 -280 c6 -91 19 -208
29 -260 10 -52 20 -113 24 -135 5 -35 4 -37 -5 -15 -42 94 -68 307 -67 535 1
88 3 133 5 100 1 -33 7 -134 14 -225z m2221 184 c-70 -72 -175 -167 -227 -204
-20 -15 -20 -14 -1 8 24 28 13 29 -22 1 -141 -109 -214 -153 -267 -162 -24 -3
-218 -97 -225 -108 -8 -12 -117 -48 -162 -54 -22 -3 -51 -11 -66 -19 -15 -7
-42 -17 -59 -21 -18 -3 -33 -10 -33 -15 0 -4 -20 -13 -44 -19 -59 -15 -64 -14
-40 5 18 15 18 15 -6 10 -70 -17 -74 -17 -40 -1 19 9 49 17 65 19 74 6 370
110 518 183 49 24 93 41 98 38 5 -4 9 -2 9 4 0 5 9 13 21 16 18 6 166 95 209
125 12 9 11 10 -5 5 -26 -8 -18 -1 75 67 76 55 110 88 93 88 -6 0 -18 -9 -28
-21 -21 -22 -274 -192 -348 -233 -26 -15 -52 -24 -57 -21 -5 3 -39 -9 -77 -26
-73 -34 -242 -102 -283 -114 -46 -14 -16 2 80 43 52 22 147 63 210 92 63 29
122 52 131 52 9 0 38 18 65 40 61 50 151 109 163 105 9 -2 135 90 178 130 13
13 33 28 46 34 12 7 0 -7 -26 -31 -26 -23 -45 -45 -42 -48 3 -3 19 7 35 23 17
16 30 26 30 22 0 -7 -146 -136 -179 -158 -21 -13 -22 -16 -8 -22 12 -4 55 30
153 124 75 71 138 128 140 126 2 -2 -31 -39 -74 -83z m-207 66 c-3 -5 -11 -10
-16 -10 -6 0 -7 5 -4 10 3 6 11 10 16 10 6 0 7 -4 4 -10z m-1095 -23 c0 -2 -9
-12 -19 -21 -14 -13 -21 -14 -27 -5 -4 7 -3 10 3 6 6 -4 16 0 23 8 12 14 20
19 20 12z m1230 -1 c0 -2 -8 -10 -17 -17 -16 -13 -17 -12 -4 4 13 16 21 21 21
13z m-605 -45 c-11 -5 -40 -11 -65 -14 l-45 -6 50 14 c56 15 91 18 60 6z m235
4 c0 -5 -90 -31 -135 -39 -16 -3 2 5 40 19 69 24 95 29 95 20z m255 -15 c-7
-11 -99 -60 -112 -60 -7 1 107 70 115 70 2 0 0 -5 -3 -10z m-1230 -64 c-36
-44 -55 -60 -39 -33 15 24 69 85 73 82 2 -2 -14 -24 -34 -49z m452 38 c-3 -3
-12 -4 -19 -1 -8 3 -5 6 6 6 11 1 17 -2 13 -5z m-74 -11 c-7 -2 -21 -2 -30 0
-10 3 -4 5 12 5 17 0 24 -2 18 -5z m234 -9 c-3 -3 -12 -4 -19 -1 -8 3 -5 6 6
6 11 1 17 -2 13 -5z m353 -1 c-8 -3 -48 -18 -88 -34 -80 -32 -115 -38 -67 -12
44 24 127 52 150 52 14 0 16 -2 5 -6z m250 2 c0 -6 -58 -43 -135 -85 -87 -48
-45 -11 50 44 83 48 85 49 85 41z m-753 -31 c-3 -3 -12 -4 -19 -1 -8 3 -5 6 6
6 11 1 17 -2 13 -5z m-92 -25 c-33 -11 -71 -18 -85 -16 -17 2 -4 8 40 19 89
22 118 20 45 -3z m343 2 c-27 -11 -61 -18 -78 -17 -16 1 -31 -1 -32 -5 -2 -3
-43 -9 -93 -13 -109 -7 -86 8 38 24 45 7 102 15 127 19 75 14 87 11 38 -8z m7
-21 c-22 -11 -74 -27 -115 -35 -41 -9 -84 -20 -95 -25 -37 -16 -74 -20 -80
-10 -3 6 4 10 18 10 13 0 50 9 83 20 32 11 70 20 84 21 14 0 48 9 75 19 65 24
81 24 30 0z m235 15 c0 -8 -44 -28 -70 -31 -40 -6 -167 -53 -145 -54 20 -1
-21 -20 -75 -33 -21 -6 -20 -4 5 8 24 11 26 14 10 15 -24 1 187 80 229 86 16
2 32 6 34 9 7 6 12 6 12 0z m35 -40 c-33 -19 -64 -35 -68 -35 -5 0 -6 -3 -4
-7 3 -5 -6 -9 -20 -9 -32 -2 -28 0 59 47 90 48 115 51 33 4z m324 22 c-2 -2
-25 -20 -50 -40 -65 -52 -72 -46 -8 7 30 25 56 43 58 40 2 -2 2 -5 0 -7z
m-1378 -24 c-15 -28 -40 -59 -41 -50 0 8 41 67 47 67 2 0 -1 -8 -6 -17z m20
-6 c-10 -9 -11 -8 -5 6 3 10 9 15 12 12 3 -3 0 -11 -7 -18z m269 -16 c-19 -12
-172 -51 -196 -51 -38 0 -1 13 87 31 51 11 95 21 97 24 3 3 10 5 16 5 6 0 4
-5 -4 -9z m203 2 c-7 -2 -19 -2 -25 0 -7 3 -2 5 12 5 14 0 19 -2 13 -5z m202
-48 c-16 -8 -36 -14 -43 -15 -7 0 -11 -4 -8 -9 3 -5 -12 -16 -34 -25 -54 -21
-63 -20 -20 4 43 24 35 25 -16 3 -69 -29 -196 -62 -184 -47 7 7 35 18 63 24
29 6 97 26 152 45 103 35 143 44 90 20z m240 5 c3 -6 -1 -7 -9 -4 -18 7 -21
14 -7 14 6 0 13 -4 16 -10z m-482 -10 c-23 -9 -156 -24 -138 -15 12 6 112 22
140 23 18 1 18 0 -2 -8z m455 1 c11 -7 10 -9 -3 -14 -9 -4 -14 -3 -10 2 3 5
-1 12 -7 14 -7 3 -8 6 -3 6 6 0 16 -3 23 -8z m-43 -11 c-15 -24 -289 -124
-385 -140 -30 -5 -127 -30 -215 -56 -202 -58 -207 -59 -175 -41 34 20 348 107
385 107 39 0 352 109 380 132 12 11 17 10 10 -2z m-1106 -42 c12 -21 19 -38
14 -38 -9 0 -43 62 -43 77 0 8 2 5 29 -39z m561 11 c-36 -15 -162 -40 -168
-34 -6 6 7 10 88 29 79 17 118 20 80 5z m-153 -5 c-3 -3 -12 -4 -19 -1 -8 3
-5 6 6 6 11 1 17 -2 13 -5z m-633 -85 c8 -41 26 -105 41 -142 15 -37 25 -70
23 -73 -14 -13 -88 231 -88 290 0 26 11 -8 24 -75z m571 71 c-11 -5 -29 -9
-40 -9 l-20 0 20 9 c11 5 29 9 40 9 l20 0 -20 -9z m-766 -50 c0 -9 -4 -8 -9 5
-5 11 -9 27 -9 35 0 9 4 8 9 -5 5 -11 9 -27 9 -35z m324 -33 c21 -38 33 -66
27 -62 -10 6 -70 118 -70 131 0 10 3 6 43 -69z m137 54 c-5 -11 -15 -23 -21
-27 -6 -3 -3 5 6 20 20 30 30 35 15 7z m730 0 c-18 -11 -132 -33 -137 -27 -4
4 110 33 137 35 13 0 13 -1 0 -8z m-890 -60 c12 -23 17 -40 11 -36 -10 6 -41
69 -41 83 0 9 7 -1 30 -47z m-43 17 c-3 -8 -6 -5 -6 6 -1 11 2 17 5 13 3 -3 4
-12 1 -19z m10 -50 c-3 -8 -6 -5 -6 6 -1 11 2 17 5 13 3 -3 4 -12 1 -19z m848
-29 c-22 -10 -49 -18 -60 -18 -11 0 3 9 30 19 65 24 81 24 30 -1z m-838 -11
c-3 -8 -6 -5 -6 6 -1 11 2 17 5 13 3 -3 4 -12 1 -19z m43 -41 c0 -16 -18 3
-23 25 -6 22 -5 22 8 4 8 -11 15 -24 15 -29z m-84 -84 c-6 -7 -22 27 -29 62
-5 23 -2 20 14 -14 10 -24 17 -46 15 -48z m173 40 c-12 -21 -31 -49 -41 -62
-21 -27 -24 -46 -5 -35 6 5 4 -3 -5 -16 -9 -14 -21 -24 -26 -23 -13 3 -143
-192 -139 -208 2 -8 2 -10 -1 -6 -2 4 -10 0 -18 -10 -18 -24 -18 -38 1 -23 21
18 19 9 -9 -28 -19 -27 -25 -30 -30 -16 -3 9 -3 21 0 27 19 34 287 437 291
437 3 0 -6 -17 -18 -37z m366 28 c-6 -11 -236 -103 -242 -97 -3 2 207 93 245
105 2 1 1 -3 -3 -8z m80 -11 c-27 -12 -43 -12 -25 0 8 5 22 9 30 9 10 0 8 -3
-5 -9z m420 -29 c-3 -5 -22 -15 -43 -22 -20 -6 -58 -22 -84 -36 -27 -13 -48
-21 -48 -18 0 6 94 54 140 71 44 16 42 16 35 5z m-1118 -83 c-3 -8 -6 -5 -6 6
-1 11 2 17 5 13 3 -3 4 -12 1 -19z m524 6 c-18 -8 -38 -13 -45 -11 -6 3 5 9
24 15 50 15 60 13 21 -4z m196 10 c-3 -3 -12 -4 -19 -1 -8 3 -5 6 6 6 11 1 17
-2 13 -5z m-22 -35 c-66 -21 -124 -38 -128 -36 -13 4 205 76 228 75 11 0 -34
-18 -100 -39z m-836 -34 c0 -5 -6 1 -14 15 -8 14 -14 30 -14 35 0 6 6 -1 14
-15 8 -14 14 -29 14 -35z m-549 10 c0 -5 -5 -3 -10 5 -5 8 -10 20 -10 25 0 6
5 3 10 -5 5 -8 10 -19 10 -25z m1315 25 c-11 -5 -27 -9 -35 -9 -13 -1 -13 0 0
9 8 5 24 9 35 9 l20 0 -20 -9z m-808 -22 c-3 -8 -6 -5 -6 6 -1 11 2 17 5 13 3
-3 4 -12 1 -19z m136 -23 c9 -25 14 -45 12 -45 -6 0 -35 69 -35 81 0 20 9 6
23 -36z m597 20 c0 -6 -70 -35 -84 -34 -6 0 9 9 34 19 53 22 50 21 50 15z
m310 -10 c0 -6 -32 -19 -70 -29 -14 -3 -7 3 15 13 42 21 55 24 55 16z m-470
-9 c0 -7 -193 -97 -198 -92 -5 5 62 40 138 72 62 26 60 25 60 20z m250 -6 c-8
-5 -24 -9 -35 -9 l-20 0 20 9 c11 5 27 9 35 9 13 1 13 0 0 -9z m-400 -24 c0
-2 -7 -7 -16 -10 -8 -3 -12 -2 -9 4 6 10 25 14 25 6z m-321 -61 c0 -5 -6 1
-14 15 -8 14 -14 30 -14 35 0 6 6 -1 14 -15 8 -14 14 -29 14 -35z m636 45
c-11 -5 -33 -8 -50 -8 -29 0 -29 0 -5 8 14 4 36 8 50 8 23 1 23 0 5 -8z m-146
-4 c-8 -9 -99 -45 -99 -40 0 3 19 13 43 24 40 18 65 25 56 16z m-544 -36 c9
-16 13 -30 11 -30 -3 0 -12 14 -21 30 -9 17 -13 30 -11 30 3 0 12 -13 21 -30z
m109 -30 c-10 -16 -20 -28 -22 -26 -4 5 28 56 35 56 2 0 -4 -13 -13 -30z m251
-60 c-27 -12 -43 -12 -25 0 8 5 22 9 30 9 10 0 8 -3 -5 -9z m-75 -55 c-14 -8
-29 -14 -35 -14 -5 0 1 6 15 14 14 8 30 14 35 14 6 0 -1 -6 -15 -14z m-840
-61 c0 -8 -4 -12 -10 -9 -5 3 -10 13 -10 21 0 8 5 12 10 9 6 -3 10 -13 10 -21z
m87 -36 c-3 -7 -5 -2 -5 12 0 14 2 19 5 13 2 -7 2 -19 0 -25z m65 0 c-3 -14
-1 -19 6 -14 17 10 38 -84 52 -227 6 -71 10 -130 8 -132 -2 -3 -12 55 -22 128
-19 137 -24 157 -35 138 -4 -6 -11 22 -17 63 -7 54 -6 72 2 69 7 -2 9 -14 6
-25z m242 -89 c4 -41 2 -58 -7 -62 -9 -3 -12 19 -13 92 -1 97 7 85 20 -30z
m33 89 c-3 -8 -6 -5 -6 6 -1 11 2 17 5 13 3 -3 4 -12 1 -19z m184 -17 c-23
-32 -27 -46 -10 -35 16 10 -4 -25 -37 -61 l-26 -30 26 37 c30 42 33 56 9 37
-9 -8 -2 7 16 34 17 26 34 47 37 47 3 0 -4 -13 -15 -29z m859 22 c0 -5 -17
-18 -38 -31 l-37 -23 35 30 c38 33 40 34 40 24z m-255 -23 c-3 -5 -12 -10 -18
-10 -7 0 -6 4 3 10 19 12 23 12 15 0z m-1086 -17 c2 -76 14 -189 22 -211 12
-30 25 -200 15 -191 -3 3 -9 35 -11 70 -3 35 -12 97 -21 138 -20 99 -28 211
-15 211 5 0 10 -8 10 -17z m201 -8 c0 -14 -2 -25 -4 -25 -2 0 -6 11 -8 25 -3
14 -1 25 3 25 5 0 9 -11 9 -25z m810 15 c-8 -5 -19 -10 -25 -10 -5 0 -3 5 5
10 8 5 20 10 25 10 6 0 3 -5 -5 -10z m-310 -4 c0 -7 -89 -46 -102 -45 -7 0 10
11 37 24 50 24 65 29 65 21z m525 -27 c-35 -24 -141 -79 -152 -79 -11 0 160
99 172 99 6 1 -3 -8 -20 -20z m-95 -9 c-8 -5 -22 -10 -30 -10 -13 0 -13 1 0
10 8 5 22 10 30 10 13 0 13 -1 0 -10z m-190 -20 c-8 -5 -22 -9 -30 -9 -10 0
-8 3 5 9 27 12 43 12 25 0z m86 1 c-6 -9 -46 -22 -46 -15 0 3 10 9 23 14 29
11 29 11 23 1z m61 -12 c-49 -28 -244 -90 -276 -87 -31 3 -25 6 49 26 47 13
117 34 155 47 76 26 100 30 72 14z m-940 -81 c-2 -18 -4 -6 -4 27 0 33 2 48 4
33 2 -15 2 -42 0 -60z m462 78 c-2 -2 -15 -9 -29 -16 -23 -12 -24 -12 -11 3 7
10 20 17 29 17 8 0 13 -2 11 -4z m-79 -20 c0 -2 -7 -7 -16 -10 -8 -3 -12 -2
-9 4 6 10 25 14 25 6z m-640 -126 c0 -52 5 -135 11 -183 13 -106 6 -125 -11
-30 -16 89 -24 344 -10 323 5 -8 10 -58 10 -110z m164 -65 c2 -49 1 -61 -1
-25 -2 36 -10 79 -18 97 -17 34 -18 56 -8 93 6 21 9 18 15 -25 5 -27 10 -90
12 -140z m608 143 c-24 -11 -46 -17 -49 -14 -7 6 56 34 77 34 8 0 -5 -9 -28
-20z m-674 -50 c19 -86 21 -171 4 -188 -13 -13 -15 -9 -9 35 3 28 2 59 -2 70
-5 13 -9 -11 -10 -64 -1 -83 -5 -101 -17 -88 -11 11 -5 239 6 252 6 7 7 21 3
30 -4 11 -2 16 4 12 5 -3 15 -30 21 -59z m752 52 c-8 -5 -22 -9 -30 -9 -10 0
-8 3 5 9 27 12 43 12 25 0z m-359 -17 c-5 -10 -17 -27 -26 -38 -16 -19 -17
-19 -3 5 26 46 29 50 34 50 3 0 0 -8 -5 -17z m629 7 c-8 -5 -19 -10 -25 -10
-5 0 -3 5 5 10 8 5 20 10 25 10 6 0 3 -5 -5 -10z m-80 -15 c0 -8 -139 -47
-152 -43 -6 2 22 14 63 25 86 24 89 24 89 18z m-773 -77 c-3 -8 -6 -5 -6 6 -1
11 2 17 5 13 3 -3 4 -12 1 -19z m959 -1 c7 -6 -331 -117 -353 -116 -10 0 38
20 107 43 153 53 184 65 178 71 -3 3 -25 -4 -49 -15 -57 -25 -84 -25 -39 1 43
25 37 23 -80 -23 -52 -20 -133 -46 -180 -58 -47 -12 -124 -33 -173 -46 -48
-14 -93 -24 -99 -22 -10 4 58 25 392 125 63 19 121 38 130 43 15 9 157 6 166
-3z m-496 -22 c-46 -18 -64 -17 -25 0 17 8 37 14 45 14 8 0 -1 -7 -20 -14z
m579 11 c-2 -2 -15 -9 -29 -15 -24 -11 -24 -11 -6 3 16 13 49 24 35 12z m-930
-38 c-14 -26 -150 -233 -173 -263 -40 -52 26 60 98 168 75 111 101 145 75 95z
m811 -12 c-14 -8 -51 -22 -83 -32 -40 -12 -53 -20 -41 -24 11 -4 -13 -16 -68
-33 -95 -31 -128 -35 -53 -7 28 10 43 19 35 19 -8 0 -33 -6 -55 -14 -39 -14
-73 -19 -64 -10 3 2 56 20 119 39 63 19 135 44 160 55 51 22 89 27 50 7z
m-1153 -98 c-2 -18 -4 -6 -4 27 0 33 2 48 4 33 2 -15 2 -42 0 -60z m793 32
c-34 -11 -60 -11 -35 0 11 5 29 8 40 8 16 0 15 -2 -5 -8z m-3 -46 c-3 -3 -12
-4 -19 -1 -8 3 -5 6 6 6 11 1 17 -2 13 -5z m-847 -24 c0 -11 -2 -20 -3 -20 -2
0 -12 9 -22 20 -18 19 -17 20 3 20 15 0 22 -6 22 -20z m650 11 c-8 -5 -33 -12
-55 -15 l-40 -5 40 13 c48 17 79 21 55 7z m-754 -12 c-27 -4 -53 -12 -59 -18
-7 -7 0 -8 24 -1 41 12 39 12 39 0 0 -5 -9 -10 -21 -10 -32 0 -79 -53 -78 -87
2 -27 2 -27 6 -3 3 14 16 37 31 53 39 41 90 38 142 -9 22 -20 40 -39 40 -43 0
-4 -15 -5 -33 -3 -25 3 -41 -3 -65 -23 -18 -15 -32 -31 -32 -35 0 -5 11 2 24
15 33 33 72 42 95 21 17 -16 18 -20 5 -49 -41 -91 -143 -276 -194 -352 -26
-38 -62 -98 -81 -133 -20 -37 -38 -61 -46 -58 -7 3 -10 -1 -7 -9 3 -7 -4 -23
-15 -34 -12 -12 -21 -27 -21 -33 0 -8 -7 -5 -15 6 -17 23 -20 14 -5 -15 8 -15
7 -23 -5 -35 -14 -14 -16 -13 -24 8 -6 13 -10 18 -10 11 -1 -6 -4 -20 -7 -30
-4 -13 -3 -14 4 -5 7 11 10 11 15 -2 6 -14 -3 -20 -24 -18 -4 1 -5 -8 -2 -18
3 -11 0 -20 -6 -20 -6 0 -11 4 -11 8 0 5 -7 17 -15 28 -14 16 -14 14 0 -14 24
-49 10 -52 -14 -4 -11 23 -25 43 -30 47 -6 3 1 -15 15 -40 28 -48 26 -97 -2
-74 -8 6 -14 18 -14 27 0 8 -3 13 -6 9 -10 -10 -36 22 -28 35 4 7 4 10 -1 6
-4 -4 -15 -2 -23 5 -13 10 -14 9 -7 -3 4 -8 14 -23 22 -32 12 -13 12 -16 1
-14 -7 1 -18 5 -25 9 -6 4 -3 -15 8 -44 11 -28 18 -54 15 -56 -2 -2 -7 6 -12
19 -9 29 -36 67 -48 68 -6 0 -23 12 -40 28 -17 15 -25 20 -18 11 6 -9 10 -19
7 -22 -3 -4 -2 -5 2 -2 12 9 53 -38 74 -84 10 -24 18 -46 15 -48 -2 -2 -9 10
-15 26 -7 16 -23 39 -35 51 l-23 21 3 -28 c3 -27 2 -27 -37 15 -54 57 -61 54
-10 -4 43 -49 56 -81 21 -49 -19 18 -19 15 3 -34 14 -28 28 -55 31 -58 3 -4 6
-11 6 -16 0 -5 -9 1 -20 14 l-20 24 10 -27 c5 -16 7 -28 4 -28 -2 0 0 -10 7
-21 8 -17 8 -20 -1 -14 -13 8 -6 -25 11 -55 7 -12 8 -12 9 -1 0 8 2 12 5 9 4
-3 3 -18 -1 -32 -6 -26 -8 -24 -30 30 -13 31 -28 62 -35 68 -12 11 -12 10 8
-41 4 -11 -2 -8 -15 7 -29 34 -27 18 3 -30 14 -22 25 -45 24 -52 0 -10 -2 -10
-6 0 -2 6 -8 10 -13 7 -4 -3 -13 2 -20 10 -7 8 -17 15 -23 15 -5 0 -3 -8 5
-17 21 -24 51 -84 45 -90 -3 -2 -8 4 -11 14 -4 10 -18 26 -31 36 -23 17 -23
15 6 -32 17 -27 29 -56 27 -63 -3 -8 -11 0 -21 19 -9 17 -21 34 -27 38 -5 3 2
-14 15 -37 27 -47 31 -63 14 -52 -7 4 -10 1 -7 -7 3 -8 -2 -21 -10 -29 -13
-12 -16 -12 -20 -1 -2 7 -18 28 -34 45 -29 30 -30 30 -14 4 9 -16 23 -39 32
-53 9 -14 14 -28 11 -31 -3 -3 -13 8 -22 26 -9 18 -19 29 -22 26 -3 -3 2 -17
11 -30 23 -36 19 -56 -5 -26 l-20 25 16 -32 c18 -38 11 -42 -16 -10 l-20 22
15 -31 c14 -28 14 -33 1 -44 -12 -10 -16 -9 -21 3 -3 9 -12 18 -20 21 -11 4
-10 -1 3 -22 17 -26 17 -26 0 -13 -10 8 -17 9 -17 3 0 -6 4 -13 10 -17 5 -3 7
-12 3 -21 -5 -13 -8 -13 -22 -1 -25 21 -45 32 -37 19 3 -5 0 -13 -6 -15 -7 -3
-4 -6 8 -6 11 -1 23 -4 27 -7 8 -8 -3 -34 -14 -34 -4 0 -6 7 -3 15 5 11 -1 15
-17 15 -19 0 -21 -2 -9 -10 12 -7 8 -10 -15 -10 -24 0 -27 -2 -15 -11 11 -8 6
-9 -20 -4 -28 5 -32 4 -20 -5 12 -9 8 -10 -20 -6 -25 4 -31 3 -20 -4 8 -5 29
-10 47 -10 17 0 35 -4 38 -10 3 -5 0 -8 -7 -6 -7 3 -40 7 -73 10 -42 4 -53 2
-37 -4 12 -5 40 -11 62 -12 22 -2 40 -7 40 -11 0 -5 -26 -6 -57 -2 -55 6 -57
5 -38 -10 19 -16 19 -17 -15 -10 -26 4 -31 3 -20 -4 8 -6 32 -11 53 -11 24 0
36 -4 32 -11 -7 -11 -51 -5 -98 13 -21 8 -25 13 -15 19 7 5 9 9 3 9 -5 0 -17
-5 -25 -10 -11 -7 -2 -15 40 -35 45 -21 49 -24 21 -19 -18 3 -49 15 -69 27
-23 14 -33 16 -30 7 2 -7 20 -21 38 -32 20 -10 27 -18 18 -18 -10 0 -32 12
-50 28 -18 15 -42 34 -53 42 -19 14 -20 14 -2 -6 9 -11 14 -24 10 -28 -5 -4
-3 -7 2 -6 19 4 26 0 19 -11 -4 -7 -19 2 -42 23 -36 34 -35 22 2 -22 l21 -25
-22 19 c-13 11 -23 15 -23 11 0 -5 -11 2 -25 15 -14 13 -25 19 -25 14 -1 -5
-10 8 -21 29 -11 22 -19 40 -17 41 2 1 16 6 33 12 32 10 100 89 153 177 42 70
63 178 40 205 -9 9 -13 22 -11 29 2 6 0 14 -6 17 -6 4 -8 13 -4 21 3 8 0 15
-5 15 -6 0 -13 -8 -15 -17 -2 -10 -2 5 0 32 3 28 8 64 13 80 5 17 18 68 30
114 22 87 68 172 121 225 23 22 34 27 55 22 24 -6 25 -6 10 9 -9 9 -16 20 -16
25 0 4 28 32 62 61 33 30 93 82 131 117 39 34 77 62 84 62 8 0 12 3 10 8 -3 4
41 47 97 97 56 49 122 114 146 144 60 72 182 201 190 201 4 0 5 -12 3 -27 -3
-21 0 -19 11 10 8 21 16 40 18 41 37 28 59 36 98 35 l45 -1 -49 -9z m171 -36
c-3 -10 -5 -4 -5 12 0 17 2 24 5 18 2 -7 2 -21 0 -30z m403 32 c0 -2 -10 -9
-22 -15 -22 -11 -22 -10 -4 4 21 17 26 19 26 11z m-478 -44 c18 -16 31 -32 28
-34 -3 -3 -22 10 -42 29 -21 19 -33 34 -28 34 5 0 24 -13 42 -29z m55 -43 c-3
-8 -6 -5 -6 6 -1 11 2 17 5 13 3 -3 4 -12 1 -19z m343 -8 c-8 -5 -19 -10 -25
-10 -5 0 -3 5 5 10 8 5 20 10 25 10 6 0 3 -5 -5 -10z m-200 -70 c-6 -11 -13
-20 -16 -20 -2 0 0 9 6 20 6 11 13 20 16 20 2 0 0 -9 -6 -20z m-120 -181 c-12
-23 -24 -39 -26 -36 -5 5 35 77 42 77 3 0 -5 -18 -16 -41z m769 -113 c-1 -16
-3 -13 -9 9 -7 28 -8 27 -10 -15 -3 -78 -17 -93 -21 -22 -2 35 -1 66 4 69 4 2
7 14 7 26 1 18 4 15 15 -12 8 -18 14 -43 14 -55z m-890 -126 c-23 -45 -48 -84
-56 -87 -7 -3 -10 -10 -6 -17 3 -6 3 -8 -2 -4 -4 4 -30 -30 -57 -75 -27 -45
-55 -86 -61 -92 -5 -5 0 8 13 30 13 22 35 60 49 85 13 25 41 68 62 95 20 28
49 74 64 103 16 28 30 50 33 48 2 -3 -15 -41 -39 -86z m81 74 c0 -8 -4 -12
-10 -9 -5 3 -10 10 -10 16 0 5 5 9 10 9 6 0 10 -7 10 -16z m-47 -91 c-6 -2 -8
-14 -6 -26 5 -17 3 -19 -7 -11 -15 15 -4 57 13 47 8 -5 8 -8 0 -10z m-21 -58
c3 -14 1 -22 -5 -18 -5 3 -6 -4 -2 -18 4 -13 4 -21 0 -17 -11 10 -15 78 -5 78
4 0 10 -11 12 -25z m780 3 c-7 -7 -12 -8 -12 -2 0 6 3 14 7 17 3 4 9 5 12 2 2
-3 -1 -11 -7 -17z m128 -13 c0 -8 -4 -15 -10 -15 -5 0 -7 7 -4 15 4 8 8 15 10
15 2 0 4 -7 4 -15z m-953 -95 c-17 -39 -25 -49 -30 -37 -7 20 2 49 13 42 4 -3
13 9 20 25 7 17 14 29 16 27 3 -2 -6 -28 -19 -57z m813 18 c15 2 37 -39 60
-111 9 -29 9 -48 -1 -87 -7 -28 -16 -50 -21 -50 -4 0 -8 -14 -8 -31 0 -22 -5
-32 -20 -36 -11 -3 -21 -13 -22 -22 0 -9 -4 4 -8 29 l-7 45 -1 -52 c-1 -29 -6
-53 -12 -53 -5 0 -10 6 -11 13 -1 6 -5 1 -9 -13 -6 -19 -9 -12 -11 35 -2 49
-3 53 -6 20 -3 -22 -10 -46 -16 -54 -10 -12 -13 -6 -18 30 l-6 44 -2 -55 c-2
-77 -20 -45 -22 40 l-2 65 -7 -83 c-9 -97 -19 -118 -22 -41 -1 38 -2 44 -5 19
-6 -57 -16 -69 -23 -30 l-7 35 -2 -32 c-1 -30 -21 -49 -21 -20 0 8 -4 7 -10
-3 -9 -13 -11 -13 -20 0 -9 13 -10 13 -11 0 0 -12 -2 -12 -6 -1 -5 11 -7 11
-14 0 -7 -11 -9 -10 -9 4 0 10 -4 15 -10 12 -6 -3 -10 4 -11 17 0 14 -3 17 -6
8 -14 -44 -16 -45 -23 -20 -5 16 -8 19 -9 8 -1 -10 -6 -18 -11 -18 -7 0 -9 15
-6 38 l6 37 -10 -32 c-15 -47 -30 -50 -32 -6 l-1 38 -7 -45 c-6 -43 -7 -44
-17 -20 -9 18 -12 20 -12 8 -1 -10 -4 -18 -8 -18 -5 0 -7 26 -6 57 l1 58 -7
-57 c-3 -31 -11 -62 -17 -68 -9 -9 -10 -4 -8 17 4 26 4 26 -5 6 -6 -13 -12
-23 -13 -23 -2 0 -3 39 -3 88 0 73 -4 95 -25 135 -30 59 -47 73 -25 20 27 -61
29 -69 12 -48 -9 11 -17 25 -17 32 0 6 -5 15 -11 19 -8 5 -10 0 -6 -17 18 -67
15 -68 -11 -4 -33 82 -52 118 -58 113 -2 -3 7 -28 21 -56 25 -52 37 -110 14
-67 -27 48 -62 94 -77 100 -10 3 -2 -9 16 -28 25 -25 37 -50 46 -95 7 -34 9
-59 4 -56 -4 3 -3 -7 2 -21 13 -33 13 -38 0 -30 -6 3 -10 -4 -10 -17 l-1 -23
-13 24 c-8 15 -16 20 -20 12 -4 -6 0 -21 8 -33 22 -31 20 -40 -6 -36 -17 2
-22 -1 -20 -14 2 -12 -2 -16 -12 -12 -11 4 -14 0 -11 -14 3 -15 -1 -19 -15
-15 -15 4 -18 1 -13 -18 l6 -23 -34 24 -34 24 23 -25 c25 -28 30 -48 7 -29
-11 9 -15 9 -15 1 0 -7 -5 -9 -10 -6 -6 4 -8 10 -6 14 3 4 -1 8 -9 8 -15 0
-12 -6 22 -57 17 -24 17 -25 -2 -9 -36 29 -49 34 -42 16 8 -21 3 -21 -28 -1
-18 12 -25 13 -25 4 0 -9 -7 -7 -20 5 -11 10 -22 16 -25 13 -3 -3 4 -13 15
-23 28 -26 25 -41 -5 -21 -34 22 -43 20 -37 -10 4 -24 3 -25 -16 -15 -35 19
-49 12 -17 -9 l30 -20 -34 6 c-27 6 -32 4 -26 -6 6 -10 2 -12 -16 -7 -22 6
-23 5 -6 -8 16 -12 14 -13 -23 -9 -22 2 -39 0 -36 -5 7 -10 -17 -21 -46 -21
-10 0 -26 -7 -35 -15 -8 -9 -18 -14 -21 -11 -2 3 10 19 28 36 23 22 30 34 22
39 -9 5 4 39 43 116 30 60 55 113 55 118 0 4 5 13 10 20 6 7 20 25 32 41 12
16 35 34 52 42 35 15 109 78 101 86 -3 3 6 9 20 12 14 4 23 11 20 16 -3 6 1
10 10 10 9 0 13 5 10 10 -7 12 18 40 35 40 7 0 9 8 5 21 -6 18 -4 19 13 10 15
-8 20 -7 19 2 -1 49 28 67 68 41 12 -8 38 -16 56 -17 19 -1 37 -6 42 -12 4 -6
10 -5 16 4 5 7 11 9 14 4 4 -5 16 -9 29 -8 13 1 29 -2 36 -8 6 -5 12 -5 12 0
0 20 47 12 59 -10 l11 -22 -5 22 c-5 20 -2 22 35 21 26 0 44 -6 51 -17 9 -13
10 -12 6 7 -3 12 -1 22 4 22 5 0 9 -6 9 -12 0 -10 2 -10 9 0 11 18 24 15 39
-11 l13 -22 -6 23 c-9 30 1 28 20 -5 l15 -28 -6 28 c-9 38 12 35 31 -5 l14
-33 -5 30 c-4 24 -3 27 5 15 9 -12 10 -8 6 15 -6 29 -6 29 9 11 9 -11 16 -25
16 -30 0 -6 5 -4 10 4 9 13 10 13 11 0 0 -8 4 -4 8 10 8 25 8 25 23 -10 l16
-35 -5 38 c-6 41 3 49 17 15 8 -21 9 -20 9 10 1 24 4 31 14 25 6 -4 19 -7 27
-5z m127 -10 c-3 -8 -6 -5 -6 6 -1 11 2 17 5 13 3 -3 4 -12 1 -19z m-977 -50
c0 -17 -12 -32 -27 -35 -7 -2 -10 4 -7 12 4 8 11 12 17 8 6 -4 8 0 4 10 -3 10
-2 17 3 17 6 0 10 -6 10 -12z m1390 -22 c0 -2 -8 -10 -17 -17 -16 -13 -17 -12
-4 4 13 16 21 21 21 13z m-1450 -51 c-7 -9 -15 -13 -18 -10 -3 2 1 11 8 20 7
9 15 13 18 10 3 -2 -1 -11 -8 -20z m1370 -9 c0 -2 -6 -9 -13 -15 -10 -8 -14
-7 -14 4 0 8 6 15 14 15 7 0 13 -2 13 -4z m-1558 -68 c-7 -7 -12 -8 -12 -2 0
6 3 14 7 17 3 4 9 5 12 2 2 -3 -1 -11 -7 -17z m-95 -149 c-61 -105 -99 -160
-105 -155 -2 3 18 38 45 78 28 40 60 93 72 116 12 24 25 42 27 39 3 -3 -15
-38 -39 -78z m-90 9 c-3 -8 -6 -5 -6 6 -1 11 2 17 5 13 3 -3 4 -12 1 -19z m33
-62 c0 -2 -8 -10 -17 -17 -16 -13 -17 -12 -4 4 13 16 21 21 21 13z m96 -41
c-9 -14 -14 -30 -11 -35 6 -9 -89 -220 -99 -220 -2 0 18 47 45 105 59 125 64
152 8 40 -64 -125 -110 -207 -116 -202 -2 3 15 43 37 88 51 101 143 259 149
254 2 -3 -4 -16 -13 -30z m633 -69 c-2 -2 -13 8 -23 22 l-19 27 24 -22 c12
-12 21 -24 18 -27z m-39 -40 c0 -6 -7 -1 -15 11 -10 14 -22 20 -33 17 -14 -5
-15 -4 -2 5 15 11 50 -12 50 -33z m-1312 -8 c7 -7 12 -21 12 -33 0 -24 -45
-144 -60 -159 -16 -16 -11 6 5 28 8 11 15 27 14 35 0 9 -13 -10 -29 -43 -16
-32 -27 -63 -24 -68 3 -4 0 -7 -7 -6 -7 2 -13 -2 -14 -9 0 -6 -15 -32 -32 -57
-30 -42 -51 -55 -65 -40 -4 3 23 63 58 134 35 71 64 134 64 140 0 6 10 15 23
20 12 5 16 9 10 9 -18 1 -16 21 4 43 19 21 25 22 41 6z m987 -38 c10 -11 14
-20 9 -20 -5 0 -15 9 -22 20 -7 11 -11 20 -9 20 2 0 12 -9 22 -20z m-393 -132
c-7 -7 -12 -8 -12 -2 0 6 3 14 7 17 3 4 9 5 12 2 2 -3 -1 -11 -7 -17z m-168
-53 c-4 -10 0 -13 15 -10 15 3 19 0 15 -8 -9 -15 -85 -118 -97 -132 -16 -18
15 39 40 73 13 17 20 32 14 32 -13 0 -44 -44 -67 -95 -10 -22 -20 -44 -22 -49
-3 -5 0 -6 7 -2 15 10 3 -21 -26 -64 -26 -40 -29 -55 -9 -47 12 5 12 0 0 -31
-27 -68 -97 -202 -102 -197 -5 5 -44 -61 -69 -117 -22 -50 -4 -29 26 30 17 31
30 53 31 49 1 -28 -147 -280 -161 -272 -4 3 -16 -7 -25 -22 -9 -15 -25 -40
-35 -55 -22 -31 -24 -42 -7 -32 7 4 8 3 4 -5 -4 -6 -11 -9 -16 -6 -5 3 -17 -9
-26 -26 -11 -22 -18 -28 -24 -20 -5 9 -9 8 -13 -4 -4 -9 -3 -13 3 -10 18 11
11 -2 -65 -136 -92 -160 -148 -235 -167 -223 -4 3 -11 -1 -14 -10 -3 -8 -12
-17 -20 -20 -8 -3 -2 12 14 36 28 43 42 110 15 71 -7 -10 -20 -26 -28 -35 -7
-9 -21 -28 -30 -42 -15 -23 -75 -62 -75 -49 0 3 9 18 21 35 12 16 19 31 16 34
-2 3 -14 -10 -25 -28 -11 -18 -35 -46 -52 -63 l-32 -30 28 52 c16 29 34 53 39
53 13 0 55 62 55 80 0 9 -6 8 -20 -5 -11 -10 -20 -24 -20 -32 0 -8 -4 -12 -9
-9 -5 3 -14 -7 -21 -23 -18 -44 -53 -86 -72 -87 -22 -2 -23 14 -2 37 8 9 17
25 18 33 4 29 106 167 118 160 7 -4 8 -3 4 5 -9 13 32 74 44 66 5 -3 12 0 16
6 5 8 3 9 -6 4 -8 -5 -11 -3 -8 6 3 8 11 13 17 11 7 -1 10 2 7 7 -3 5 19 40
49 77 30 38 69 95 85 127 17 31 33 57 36 57 3 0 2 -5 -2 -12 -4 -7 -3 -8 5 -4
6 4 9 11 6 16 -8 13 66 121 78 113 6 -3 7 -1 3 5 -7 12 37 85 80 132 12 14 34
48 49 75 37 70 208 325 218 325 4 0 3 -8 -2 -17 -9 -18 -11 -25 -11 -44 0 -5
-4 -8 -9 -4 -8 4 -31 -22 -55 -62 -17 -30 4 -10 24 22 12 19 25 33 30 30 9 -6
54 65 46 73 -9 9 25 63 35 56 6 -3 8 -12 5 -20 -3 -8 -4 -14 -2 -14 6 0 66 96
66 106 0 5 -12 -10 -26 -34 -14 -24 -28 -41 -31 -39 -2 3 7 24 22 47 15 23 29
39 33 36 3 -4 18 6 34 21 17 16 28 21 28 13 0 -7 3 -10 6 -7 4 4 1 13 -5 21
-7 8 -10 20 -6 26 9 15 15 12 9 -5z m-271 -222 c-7 -2 -21 -2 -30 0 -10 3 -4
5 12 5 17 0 24 -2 18 -5z m148 -166 c-10 -9 -11 -8 -5 6 3 10 9 15 12 12 3 -3
0 -11 -7 -18z m2119 -11 c0 -2 -12 -12 -27 -21 l-28 -18 19 21 c17 20 36 29
36 18z m-2139 -29 c-10 -9 -11 -8 -5 6 3 10 9 15 12 12 3 -3 0 -11 -7 -18z
m-23 -55 c-7 -18 -16 -32 -20 -32 -4 0 0 16 9 35 20 42 27 41 11 -3z m99 -32
c15 -10 13 -10 -12 -6 l-30 5 30 -14 c17 -8 26 -14 20 -15 -5 0 -3 -5 5 -10
12 -7 8 -10 -15 -10 -17 0 -40 7 -51 15 -12 8 -24 12 -26 9 -3 -2 -3 6 -1 20
4 21 10 24 34 21 15 -2 36 -9 46 -15z m2193 0 c0 -5 -4 -10 -10 -10 -5 0 -10
5 -10 10 0 6 5 10 10 10 6 0 10 -4 10 -10z m58 -29 c3 -8 -5 -7 -22 4 -32 21
-33 27 -4 16 12 -4 24 -14 26 -20z m132 19 c-20 -13 -33 -13 -25 0 3 6 14 10
23 10 15 0 15 -2 2 -10z m-1197 -43 c16 -10 26 -22 23 -25 -3 -3 -14 2 -23 10
-10 9 -35 21 -55 28 -21 6 -38 13 -38 16 0 10 68 -11 93 -29z m1105 5 c6 -18
-15 -14 -22 4 -4 10 -1 14 6 12 6 -2 14 -10 16 -16z m-2437 -15 c-10 -9 -11
-8 -5 6 3 10 9 15 12 12 3 -3 0 -11 -7 -18z m129 -3 c19 -7 45 -13 58 -14 13
0 21 -4 18 -9 -8 -12 -90 5 -121 25 -29 19 -33 30 -7 19 9 -4 33 -14 52 -21z
m2340 16 c0 -5 -4 -10 -10 -10 -5 0 -10 5 -10 10 0 6 5 10 10 10 6 0 10 -4 10
-10z m-2406 -19 c20 -22 86 -41 148 -42 39 0 41 -1 18 -11 -34 -14 -135 -4
-166 17 -14 9 -28 15 -30 12 -20 -20 130 -59 194 -50 24 3 24 2 7 -6 -32 -15
-96 -12 -152 8 -29 10 -53 17 -53 15 0 -10 54 -30 120 -45 l75 -17 -55 -1
c-36 0 -75 8 -113 23 -37 16 -54 19 -46 10 6 -8 39 -23 73 -33 55 -18 57 -20
26 -20 -19 0 -54 8 -78 19 -23 11 -40 15 -37 10 10 -16 69 -38 122 -46 41 -6
44 -9 23 -15 -35 -9 -98 0 -142 23 -21 10 -38 20 -38 22 0 11 74 146 80 146 4
0 15 -9 24 -19z m772 4 c58 -17 75 -19 54 -4 -11 8 -3 9 33 6 26 -3 47 0 47 5
0 5 9 4 19 -2 11 -5 32 -15 48 -20 26 -9 27 -9 9 5 -19 15 -19 15 5 14 23 0
73 -17 56 -18 -4 -1 -2 -11 4 -23 11 -21 11 -22 -4 -9 -19 15 -22 8 -7 -19 9
-16 8 -19 -7 -13 -10 3 -25 11 -33 17 -8 6 -4 -2 10 -17 21 -25 22 -27 5 -21
-11 4 -40 21 -65 37 l-45 29 53 -50 c28 -28 52 -53 52 -57 0 -4 -7 -2 -15 5
-8 7 -15 10 -15 6 0 -3 -27 14 -61 39 -34 25 -66 45 -72 45 -14 0 -3 -10 44
-41 44 -29 102 -80 114 -100 9 -13 -11 1 -93 65 l-37 30 33 -35 c45 -48 42
-68 -5 -34 l-38 28 26 -29 c15 -16 29 -42 33 -59 4 -16 3 -25 -1 -19 -4 6 -24
14 -43 17 -19 4 -30 4 -25 -1 23 -17 56 -60 59 -78 3 -10 7 -28 11 -39 6 -19
6 -19 -5 -2 -7 11 -13 25 -14 32 -1 7 -17 26 -36 41 l-33 29 28 -43 c29 -44
28 -65 -1 -41 -15 13 -15 11 1 -21 9 -19 12 -30 5 -23 -7 6 -19 9 -26 6 -8 -3
-14 0 -14 7 0 6 6 8 13 4 9 -5 9 -4 0 6 -14 15 -43 23 -43 12 0 -4 7 -16 15
-26 14 -19 12 -36 -6 -36 -5 0 -9 5 -9 11 0 5 5 7 12 3 7 -5 8 -3 3 5 -5 9
-10 10 -18 2 -7 -7 -16 -7 -30 0 -14 8 -18 8 -13 0 11 -17 -5 -13 -26 6 -18
16 -19 16 -12 -3 5 -15 1 -14 -15 6 -11 14 -21 19 -21 12 0 -7 -5 -10 -11 -6
-7 4 1 14 20 26 17 11 31 29 31 39 0 10 4 19 10 19 5 0 6 7 3 17 -4 11 -3 14
5 9 7 -4 12 -3 12 3 0 5 -5 11 -11 13 -7 2 -12 43 -13 109 -1 73 -5 111 -15
122 -18 22 -2 22 65 2z m449 5 c7 0 23 -9 36 -21 l24 -21 -27 16 c-15 9 -36
16 -47 16 -11 0 -23 5 -27 12 -5 8 -2 9 10 5 10 -4 24 -7 31 -7z m1215 -5 c4
3 13 -2 20 -10 11 -13 10 -14 -11 -7 -12 5 -24 14 -25 21 -1 6 0 7 3 1 2 -5 8
-8 13 -5z m-1760 -25 c13 0 19 -39 26 -157 6 -105 6 -111 -14 -122 -34 -18
-42 -13 -44 32 l-1 42 -8 -45 c-4 -26 -5 17 -2 100 2 80 5 153 5 163 -1 15 1
16 14 2 9 -8 19 -15 24 -15z m-487 13 c-7 -2 -19 -2 -25 0 -7 3 -2 5 12 5 14
0 19 -2 13 -5z m1028 -19 c17 -8 29 -17 27 -19 -4 -4 -90 23 -97 31 -11 11 44
2 70 -12z m-16 -44 c8 -13 -5 -13 -25 0 -13 8 -13 10 2 10 9 0 20 -4 23 -10z
m1 -31 c19 -11 34 -26 34 -32 0 -9 -2 -9 -8 -1 -4 6 -23 21 -42 33 -19 11 -31
21 -26 21 5 0 24 -9 42 -21z m-6 -31 c0 -6 -6 -5 -15 2 -8 7 -15 14 -15 16 0
2 7 1 15 -2 8 -4 15 -11 15 -16z m-1245 -38 c17 -7 53 -16 80 -20 l50 -8 -45
0 c-25 -1 -70 7 -100 18 -39 13 -49 14 -35 4 11 -8 36 -19 56 -24 41 -11 101
-40 83 -40 -23 0 -111 31 -142 50 -28 18 -31 23 -22 41 10 19 13 19 28 6 10
-9 31 -21 47 -27z m1217 -2 c13 -13 17 -18 8 -12 -8 6 -24 16 -35 22 -11 6
-15 12 -8 12 7 0 22 -10 35 -22z m36 2 c7 -11 11 -20 9 -20 -2 0 -12 9 -22 20
-10 11 -14 20 -9 20 5 0 15 -9 22 -20z m-1241 -65 c18 -4 36 -11 39 -17 5 -7
0 -9 -14 -6 -12 4 -22 2 -22 -3 0 -19 -65 7 -119 47 -2 2 -1 10 3 19 5 13 11
12 43 -9 21 -13 53 -27 70 -31z m-87 -15 c25 -22 30 -30 17 -30 -32 0 -77 29
-71 45 8 20 14 19 54 -15z m4240 5 c-7 -8 -17 -15 -23 -15 -5 0 -2 9 8 20 21
23 35 19 15 -5z m-150 11 c0 -2 -7 -7 -16 -10 -8 -3 -12 -2 -9 4 6 10 25 14
25 6z m-4225 -48 c-6 -22 -6 -22 15 2 18 20 17 16 -5 -25 -47 -84 -96 -155
-105 -150 -9 5 -41 -46 -100 -156 -19 -36 -43 -77 -53 -90 -23 -30 79 166 127
245 42 69 46 75 39 47 -9 -34 4 -24 32 22 29 50 32 65 9 46 -9 -7 -3 8 12 34
32 52 38 58 29 25z m96 5 c12 -15 12 -16 -3 -10 -26 10 -22 -2 5 -13 21 -8 21
-9 -5 -9 -30 -1 -41 10 -32 33 8 21 18 20 35 -1z m4626 -45 c-3 -8 -6 -5 -6 6
-1 11 2 17 5 13 3 -3 4 -12 1 -19z"/>
<path d="M5875 7240 c-3 -6 1 -7 9 -4 18 7 21 14 7 14 -6 0 -13 -4 -16 -10z"/>
<path d="M6148 7273 c7 -3 16 -2 19 1 4 3 -2 6 -13 5 -11 0 -14 -3 -6 -6z"/>
<path d="M6108 7263 c7 -3 16 -2 19 1 4 3 -2 6 -13 5 -11 0 -14 -3 -6 -6z"/>
<path d="M5461 7103 c-2 -20 16 -24 30 -5 13 15 12 16 -3 4 -13 -10 -17 -10
-21 0 -4 9 -6 9 -6 1z"/>
<path d="M5524 7088 l-19 -23 23 19 c21 18 27 26 19 26 -2 0 -12 -10 -23 -22z"/>
<path d="M4633 6405 c-15 -13 -23 -25 -17 -25 6 0 21 11 34 25 30 32 19 32
-17 0z"/>
<path d="M4204 5998 l-19 -23 23 19 c21 18 27 26 19 26 -2 0 -12 -10 -23 -22z"/>
<path d="M3779 5543 c-13 -16 -12 -17 4 -4 9 7 17 15 17 17 0 8 -8 3 -21 -13z"/>
<path d="M3549 5263 c-13 -16 -12 -17 4 -4 16 13 21 21 13 21 -2 0 -10 -8 -17
-17z"/>
<path d="M3434 5128 l-19 -23 23 19 c21 18 27 26 19 26 -2 0 -12 -10 -23 -22z"/>
<path d="M2049 3113 c-13 -16 -12 -17 4 -4 9 7 17 15 17 17 0 8 -8 3 -21 -13z"/>
<path d="M1980 3010 c-6 -11 -8 -20 -6 -20 3 0 10 9 16 20 6 11 8 20 6 20 -3
0 -10 -9 -16 -20z"/>
<path d="M1735 2609 c-4 -6 -5 -12 -2 -15 2 -3 7 2 10 11 7 17 1 20 -8 4z"/>
<path d="M1530 2325 c-7 -9 -10 -18 -7 -21 3 -3 10 4 17 15 13 25 8 27 -10 6z"/>
<path d="M1329 1893 c-31 -49 -34 -57 -20 -49 12 7 55 86 47 86 -2 0 -15 -17
-27 -37z"/>
<path d="M4685 5530 c-3 -5 -2 -10 4 -10 5 0 13 5 16 10 3 6 2 10 -4 10 -5 0
-13 -4 -16 -10z"/>
<path d="M4355 4630 c-3 -5 -2 -10 4 -10 5 0 13 5 16 10 3 6 2 10 -4 10 -5 0
-13 -4 -16 -10z"/>
<path d="M4098 4524 c-16 -8 -28 -17 -28 -19 0 -10 16 -4 40 15 30 23 25 25
-12 4z"/>
<path d="M3485 4230 c3 -5 14 -10 23 -10 15 0 15 2 2 10 -20 13 -33 13 -25 0z"/>
<path d="M3898 4593 c7 -3 16 -2 19 1 4 3 -2 6 -13 5 -11 0 -14 -3 -6 -6z"/>
<path d="M2807 4153 c-4 -3 -7 -11 -7 -17 0 -6 5 -5 12 2 6 6 9 14 7 17 -3 3
-9 2 -12 -2z"/>
<path d="M2617 3863 c-4 -3 -7 -11 -7 -17 0 -6 5 -5 12 2 6 6 9 14 7 17 -3 3
-9 2 -12 -2z"/>
<path d="M2102 3725 c0 -16 2 -22 5 -12 2 9 2 23 0 30 -3 6 -5 -1 -5 -18z"/>
<path d="M2965 3380 c-13 -5 -14 -9 -5 -9 8 0 24 4 35 9 13 5 14 9 5 9 -8 0
-24 -4 -35 -9z"/>
<path d="M1900 3142 c0 -5 7 -13 16 -16 10 -4 14 -1 12 6 -5 15 -28 23 -28 10z"/>
<path d="M1896 3078 c3 -4 9 -8 15 -8 5 0 9 4 9 8 0 5 -7 9 -15 9 -8 0 -12 -4
-9 -9z"/>
<path d="M1150 2478 c0 -2 21 -21 48 -43 26 -21 38 -28 27 -16 -19 23 -75 66
-75 59z"/>
<path d="M1490 2452 c6 -13 14 -21 18 -18 3 4 -2 14 -12 24 -18 16 -18 16 -6
-6z"/>
<path d="M982 2444 c10 -10 20 -16 22 -13 3 3 -5 11 -17 18 -21 13 -21 12 -5
-5z"/>
<path d="M1450 2375 c0 -5 5 -17 10 -25 5 -8 10 -10 10 -5 0 6 -5 17 -10 25
-5 8 -10 11 -10 5z"/>
<path d="M1276 2137 c3 -10 9 -15 12 -12 3 3 0 11 -7 18 -10 9 -11 8 -5 -6z"/>
<path d="M1241 2053 c7 -12 15 -20 18 -17 3 2 -3 12 -13 22 -17 16 -18 16 -5
-5z"/>
<path d="M1191 1922 c18 -29 34 -50 37 -48 6 6 -34 70 -54 87 -8 7 -1 -11 17
-39z"/>
<path d="M1190 1884 c0 -6 7 -19 15 -30 8 -10 14 -14 14 -9 0 6 -6 19 -14 29
-8 11 -15 15 -15 10z"/>
<path d="M1116 1747 c3 -10 9 -15 12 -12 3 3 0 11 -7 18 -10 9 -11 8 -5 -6z"/>
<path d="M1044 1711 c4 -6 16 -16 28 -22 15 -8 18 -8 14 0 -4 6 -16 16 -28 22
-15 8 -18 8 -14 0z"/>
<path d="M940 1650 c8 -5 20 -10 25 -10 6 0 3 5 -5 10 -8 5 -19 10 -25 10 -5
0 -3 -5 5 -10z"/>
<path d="M827 1609 c7 -7 15 -10 18 -7 3 3 -2 9 -12 12 -14 6 -15 5 -6 -5z"/>
<path d="M2631 2484 c0 -11 3 -14 6 -6 3 7 2 16 -1 19 -3 4 -6 -2 -5 -13z"/>
<path d="M2611 2454 c0 -11 3 -14 6 -6 3 7 2 16 -1 19 -3 4 -6 -2 -5 -13z"/>
<path d="M2642 2450 c0 -8 4 -26 8 -40 6 -20 8 -21 8 -5 0 11 -3 29 -8 40 -5
12 -8 14 -8 5z"/>
<path d="M2592 2345 c0 -16 2 -22 5 -12 2 9 2 23 0 30 -3 6 -5 -1 -5 -18z"/>
<path d="M2323 2280 c0 -30 2 -43 4 -27 2 15 2 39 0 55 -2 15 -4 2 -4 -28z"/>
<path d="M2462 2310 c0 -14 2 -19 5 -12 2 6 2 18 0 25 -3 6 -5 1 -5 -13z"/>
<path d="M2622 2305 c0 -16 2 -22 5 -12 2 9 2 23 0 30 -3 6 -5 -1 -5 -18z"/>
<path d="M2551 2294 c0 -11 3 -14 6 -6 3 7 2 16 -1 19 -3 4 -6 -2 -5 -13z"/>
<path d="M2252 2280 c0 -14 2 -19 5 -12 2 6 2 18 0 25 -3 6 -5 1 -5 -13z"/>
<path d="M2441 2254 c0 -11 3 -14 6 -6 3 7 2 16 -1 19 -3 4 -6 -2 -5 -13z"/>
<path d="M2182 2230 c0 -14 2 -19 5 -12 2 6 2 18 0 25 -3 6 -5 1 -5 -13z"/>
<path d="M2372 2230 c0 -14 2 -19 5 -12 2 6 2 18 0 25 -3 6 -5 1 -5 -13z"/>
<path d="M2412 2205 c0 -16 2 -22 5 -12 2 9 2 23 0 30 -3 6 -5 -1 -5 -18z"/>
<path d="M1834 2141 c20 -22 26 -25 26 -13 0 4 -10 13 -22 21 -23 14 -23 14
-4 -8z"/>
<path d="M1067 1577 c-3 -8 1 -14 8 -14 7 0 11 6 8 14 -3 7 -6 13 -8 13 -2 0
-5 -6 -8 -13z"/>
<path d="M1089 1536 c-22 -38 -39 -44 -19 -7 6 12 8 21 6 21 -3 0 -13 -14 -22
-31 -10 -21 -11 -29 -3 -23 9 5 10 2 5 -12 -8 -22 -2 -15 38 39 15 21 25 41
22 44 -3 3 -15 -11 -27 -31z"/>
<path d="M876 1305 c-9 -14 -23 -37 -32 -52 l-16 -28 20 24 c24 29 55 81 49
81 -3 0 -12 -11 -21 -25z"/>
<path d="M1007 1303 c-4 -3 -7 -13 -7 -22 1 -13 3 -13 11 2 11 19 8 33 -4 20z"/>
<path d="M725 1083 l-17 -28 23 22 c12 12 20 25 17 28 -3 3 -13 -7 -23 -22z"/>
<path d="M882 1042 c-12 -20 -31 -52 -43 -69 -11 -18 -19 -33 -16 -33 8 0 89
131 85 136 -3 2 -14 -13 -26 -34z"/>
<path d="M668 788 c-22 -34 -42 -74 -31 -63 14 15 55 85 50 85 -3 0 -11 -10
-19 -22z"/>
<path d="M604 683 c-33 -45 -39 -57 -24 -48 8 5 11 3 8 -6 -3 -8 -10 -13 -16
-12 -7 2 -9 -4 -5 -14 4 -10 2 -14 -5 -9 -6 3 -13 2 -16 -3 -4 -5 1 -8 9 -7
14 2 54 49 77 90 8 14 7 17 -3 11 -9 -6 -11 -3 -6 8 9 24 4 21 -19 -10z m2
-31 c-18 -16 -18 -16 -6 6 6 13 14 21 18 18 3 -4 -2 -14 -12 -24z"/>
<path d="M531 538 c-11 -18 -21 -26 -21 -18 -1 12 -3 11 -11 -3 -6 -9 -14 -15
-19 -12 -5 3 -12 0 -16 -6 -4 -8 -3 -9 4 -5 15 9 15 1 1 -26 -8 -15 -8 -19 0
-14 16 10 13 -6 -5 -32 -9 -13 -14 -25 -12 -28 3 -2 15 15 28 38 13 22 17 37
10 33 -8 -5 -11 -3 -8 6 3 8 10 13 16 12 6 -2 9 4 5 13 -3 8 -1 14 6 12 6 -2
21 12 32 30 12 17 19 32 16 32 -3 0 -14 -15 -26 -32z"/>
<path d="M1752 1010 c0 -14 2 -19 5 -12 2 6 2 18 0 25 -3 6 -5 1 -5 -13z"/>
<path d="M797 873 c-4 -3 -7 -11 -7 -17 0 -6 5 -5 12 2 6 6 9 14 7 17 -3 3 -9
2 -12 -2z"/>
<path d="M5784 7418 l-19 -23 23 19 c21 18 27 26 19 26 -2 0 -12 -10 -23 -22z"/>
<path d="M5614 7348 l-29 -31 38 28 c38 28 44 35 29 35 -5 0 -21 -14 -38 -32z"/>
<path d="M5635 7330 c-27 -27 -47 -50 -44 -50 7 0 47 37 78 73 40 44 19 31
-34 -23z"/>
<path d="M5042 7293 c-12 -37 -20 -69 -18 -71 2 -2 14 27 26 63 12 36 20 68
18 70 -2 3 -14 -26 -26 -62z"/>
<path d="M5530 7308 c-15 -21 -17 -28 -6 -19 16 13 41 51 33 51 -2 0 -14 -15
-27 -32z"/>
<path d="M5425 7289 c-4 -6 -5 -12 -2 -15 2 -3 7 2 10 11 7 17 1 20 -8 4z"/>
<path d="M4982 7239 c-12 -29 -20 -54 -18 -56 2 -3 7 5 11 16 3 12 10 19 15
16 4 -3 6 5 3 17 -3 17 -2 19 5 10 7 -11 10 -10 16 3 3 9 2 23 -2 32 -7 11
-14 1 -30 -38z"/>
<path d="M5469 7223 c-13 -16 -12 -17 4 -4 9 7 17 15 17 17 0 8 -8 3 -21 -13z"/>
<path d="M5594 7196 c-21 -19 -37 -36 -34 -39 3 -3 23 12 44 34 48 48 43 51
-10 5z"/>
<path d="M5411 7175 c0 -5 3 -16 8 -23 7 -11 9 -10 14 3 4 9 3 14 -2 10 -5 -3
-12 1 -14 7 -3 7 -6 9 -6 3z"/>
<path d="M4916 7075 c-9 -26 -7 -32 5 -12 6 10 9 21 6 23 -2 3 -7 -2 -11 -11z"/>
<path d="M4307 6998 c-9 -29 -15 -54 -13 -56 2 -2 12 20 21 48 9 28 15 53 13
55 -2 3 -12 -19 -21 -47z"/>
<path d="M4497 6979 c-15 -40 -25 -74 -23 -76 2 -2 15 29 30 68 15 39 25 73
23 76 -2 2 -16 -29 -30 -68z"/>
<path d="M4896 7025 c-3 -9 -6 -22 -5 -28 0 -7 5 -1 10 12 5 13 8 26 5 28 -2
2 -6 -3 -10 -12z"/>
<path d="M4142 6910 c0 -14 2 -19 5 -12 2 6 2 18 0 25 -3 6 -5 1 -5 -13z"/>
<path d="M4846 6874 c-4 -9 -4 -19 -1 -22 2 -3 7 3 11 12 4 9 4 19 1 22 -2 3
-7 -3 -11 -12z"/>
<path d="M4182 6860 c0 -14 2 -19 5 -12 2 6 2 18 0 25 -3 6 -5 1 -5 -13z"/>
<path d="M4781 6814 c0 -11 3 -14 6 -6 3 7 2 16 -1 19 -3 4 -6 -2 -5 -13z"/>
<path d="M4171 6784 c0 -11 3 -14 6 -6 3 7 2 16 -1 19 -3 4 -6 -2 -5 -13z"/>
<path d="M4052 6760 c0 -19 2 -27 5 -17 2 9 2 25 0 35 -3 9 -5 1 -5 -18z"/>
<path d="M4702 6750 c0 -14 2 -19 5 -12 2 6 2 18 0 25 -3 6 -5 1 -5 -13z"/>
<path d="M3646 6725 c-9 -26 -7 -32 5 -12 6 10 9 21 6 23 -2 3 -7 -2 -11 -11z"/>
<path d="M4441 6674 c0 -11 3 -14 6 -6 3 7 2 16 -1 19 -3 4 -6 -2 -5 -13z"/>
<path d="M4472 6641 c-7 -29 -12 -62 -11 -74 1 -12 7 7 15 43 8 35 13 68 11
74 -2 5 -8 -15 -15 -43z"/>
<path d="M4532 6660 c0 -14 2 -19 5 -12 2 6 2 18 0 25 -3 6 -5 1 -5 -13z"/>
<path d="M3625 6630 c-4 -23 -5 -43 -2 -46 2 -3 7 14 11 37 4 23 5 44 2 46 -2
2 -7 -14 -11 -37z"/>
<path d="M3883 6610 c0 -36 2 -50 4 -32 2 17 2 47 0 65 -2 17 -4 3 -4 -33z"/>
<path d="M4133 6625 c0 -27 2 -38 4 -22 2 15 2 37 0 50 -2 12 -4 0 -4 -28z"/>
<path d="M4501 6654 c0 -11 3 -14 6 -6 3 7 2 16 -1 19 -3 4 -6 -2 -5 -13z"/>
<path d="M4551 6624 c0 -11 3 -14 6 -6 3 7 2 16 -1 19 -3 4 -6 -2 -5 -13z"/>
<path d="M4532 6610 c0 -14 2 -19 5 -12 2 6 2 18 0 25 -3 6 -5 1 -5 -13z"/>
<path d="M4491 6604 c0 -11 3 -14 6 -6 3 7 2 16 -1 19 -3 4 -6 -2 -5 -13z"/>
<path d="M3388 6561 c-44 -51 -91 -134 -102 -181 -6 -25 -6 -25 7 2 7 14 20
34 28 45 9 10 28 41 43 70 14 28 31 55 37 58 8 6 8 2 0 -13 -6 -11 -11 -24
-10 -29 0 -4 11 14 24 41 14 27 23 51 21 53 -2 2 -23 -19 -48 -46z"/>
<path d="M3834 6500 c0 -58 1 -81 3 -52 2 28 2 76 0 105 -2 28 -3 5 -3 -53z"/>
<path d="M3296 6549 c-14 -32 -15 -32 -9 -5 l6 29 -51 -28 c-28 -15 -63 -40
-78 -56 -25 -26 -28 -36 -29 -111 l-3 -83 13 53 c16 67 30 81 22 25 -3 -24 -3
-43 -1 -43 11 0 34 74 30 93 -3 12 -3 16 0 8 4 -8 12 0 24 25 l17 39 -4 -60
-3 -60 19 55 c20 58 28 50 11 -10 -10 -34 -14 -70 -25 -200 l-5 -65 18 80 c10
44 22 89 27 100 l8 20 -17 -20 c-16 -19 -16 -19 -10 10 4 17 19 75 35 130 29
104 31 131 5 74z m-78 -56 c-5 -21 -12 -40 -15 -43 -6 -6 7 61 14 73 10 17 11
4 1 -30z"/>
<path d="M3611 6554 c0 -11 3 -14 6 -6 3 7 2 16 -1 19 -3 4 -6 -2 -5 -13z"/>
<path d="M3475 6520 c-4 -17 -5 -34 -2 -36 2 -3 7 10 11 27 8 42 0 50 -9 9z"/>
<path d="M3603 6455 c0 -27 2 -38 4 -22 2 15 2 37 0 50 -2 12 -4 0 -4 -28z"/>
<path d="M3462 6430 c0 -19 2 -27 5 -17 2 9 2 25 0 35 -3 9 -5 1 -5 -18z"/>
<path d="M3074 6407 c-47 -50 -104 -130 -105 -149 -1 -7 -4 -2 -8 11 -6 21
-13 11 -53 -70 -26 -52 -50 -114 -54 -139 -4 -25 -15 -67 -25 -93 -20 -50 -24
-87 -11 -87 4 0 18 42 31 93 13 50 28 100 33 110 13 25 28 11 29 -26 0 -27 2
-29 9 -12 5 11 9 36 10 55 1 29 3 32 10 15 7 -17 9 -16 11 10 5 85 18 116 20
49 l1 -39 13 50 c20 82 25 84 20 10 l-5 -70 14 70 c8 39 15 84 15 101 1 18 8
45 16 60 17 33 18 26 6 -28 -11 -47 -5 -49 14 -5 l14 32 2 -45 c1 -40 3 -35
20 44 10 49 18 91 16 92 -2 2 -21 -15 -43 -39z"/>
<path d="M3533 6395 c0 -33 2 -45 4 -27 2 18 2 45 0 60 -2 15 -4 0 -4 -33z"/>
<path d="M3385 6370 c-4 -17 -5 -34 -2 -36 2 -3 7 10 11 27 8 42 0 50 -9 9z"/>
<path d="M3652 6380 c0 -14 2 -19 5 -12 2 6 2 18 0 25 -3 6 -5 1 -5 -13z"/>
<path d="M3221 6354 c0 -11 3 -14 6 -6 3 7 2 16 -1 19 -3 4 -6 -2 -5 -13z"/>
<path d="M3842 6340 c0 -19 2 -27 5 -17 2 9 2 25 0 35 -3 9 -5 1 -5 -18z"/>
<path d="M3451 6344 c0 -11 3 -14 6 -6 3 7 2 16 -1 19 -3 4 -6 -2 -5 -13z"/>
<path d="M3661 6334 c0 -11 3 -14 6 -6 3 7 2 16 -1 19 -3 4 -6 -2 -5 -13z"/>
<path d="M3542 6300 c0 -14 2 -19 5 -12 2 6 2 18 0 25 -3 6 -5 1 -5 -13z"/>
<path d="M3162 6270 c0 -14 2 -19 5 -12 2 6 2 18 0 25 -3 6 -5 1 -5 -13z"/>
<path d="M3852 6270 c0 -14 4 -38 8 -55 7 -27 8 -27 8 -5 0 14 -4 39 -8 55 -7
27 -8 27 -8 5z"/>
<path d="M4023 6245 c0 -27 2 -38 4 -22 2 15 2 37 0 50 -2 12 -4 0 -4 -28z"/>
<path d="M3035 6225 c-4 -25 -5 -48 -2 -51 2 -3 8 16 12 41 3 26 4 49 2 52 -3
3 -9 -16 -12 -42z"/>
<path d="M3552 6250 c0 -14 2 -19 5 -12 2 6 2 18 0 25 -3 6 -5 1 -5 -13z"/>
<path d="M3902 6225 c0 -11 4 -31 8 -45 6 -20 8 -21 8 -5 0 11 -4 31 -8 45 -6
20 -8 21 -8 5z"/>
<path d="M3151 6214 c0 -11 3 -14 6 -6 3 7 2 16 -1 19 -3 4 -6 -2 -5 -13z"/>
<path d="M3562 6185 c0 -16 2 -22 5 -12 2 9 2 23 0 30 -3 6 -5 -1 -5 -18z"/>
<path d="M3061 6184 c0 -11 3 -14 6 -6 3 7 2 16 -1 19 -3 4 -6 -2 -5 -13z"/>
<path d="M3872 6165 c0 -11 5 -54 13 -95 7 -41 13 -61 13 -45 1 17 -5 59 -12
95 -8 36 -14 56 -14 45z"/>
<path d="M3022 6140 c0 -14 2 -19 5 -12 2 6 2 18 0 25 -3 6 -5 1 -5 -13z"/>
<path d="M3571 6128 c-1 -22 28 -160 35 -167 7 -7 -3 50 -21 129 -7 30 -14 47
-14 38z"/>
<path d="M2992 6095 c0 -16 2 -22 5 -12 2 9 2 23 0 30 -3 6 -5 -1 -5 -18z"/>
<path d="M3771 6104 c0 -11 3 -14 6 -6 3 7 2 16 -1 19 -3 4 -6 -2 -5 -13z"/>
<path d="M2891 6064 c0 -11 3 -14 6 -6 3 7 2 16 -1 19 -3 4 -6 -2 -5 -13z"/>
<path d="M2981 6014 c0 -11 3 -14 6 -6 3 7 2 16 -1 19 -3 4 -6 -2 -5 -13z"/>
<path d="M3245 5983 c7 -43 35 -126 41 -121 2 2 -3 26 -11 53 -8 26 -15 61
-15 77 0 15 -5 28 -10 28 -7 0 -9 -14 -5 -37z"/>
<path d="M3671 5980 c-1 -17 37 -140 38 -125 1 6 -8 39 -18 75 -11 36 -20 58
-20 50z"/>
<path d="M3031 5964 c0 -11 3 -14 6 -6 3 7 2 16 -1 19 -3 4 -6 -2 -5 -13z"/>
<path d="M3173 5930 c0 -30 2 -43 4 -27 2 15 2 39 0 55 -2 15 -4 2 -4 -28z"/>
<path d="M2892 5905 c0 -16 2 -22 5 -12 2 9 2 23 0 30 -3 6 -5 -1 -5 -18z"/>
<path d="M3551 5900 c0 -8 4 -24 9 -35 5 -13 9 -14 9 -5 0 8 -4 24 -9 35 -5
13 -9 14 -9 5z"/>
<path d="M3201 5854 c0 -11 3 -14 6 -6 3 7 2 16 -1 19 -3 4 -6 -2 -5 -13z"/>
<path d="M3052 5820 c0 -14 2 -19 5 -12 2 6 2 18 0 25 -3 6 -5 1 -5 -13z"/>
<path d="M3286 5810 c3 -14 11 -32 16 -40 6 -10 7 -7 2 10 -3 14 -11 32 -16
40 -6 10 -7 7 -2 -10z"/>
<path d="M3117 5725 c3 -49 7 -92 9 -94 7 -7 3 82 -6 134 -6 37 -7 26 -3 -40z"/>
<path d="M3163 5740 c0 -25 2 -35 4 -22 2 12 2 32 0 45 -2 12 -4 2 -4 -23z"/>
<path d="M3222 5745 c-1 -11 3 -38 7 -60 7 -34 9 -35 9 -10 0 35 -15 101 -16
70z"/>
<path d="M3310 5741 c0 -6 4 -13 10 -16 6 -3 7 1 4 9 -7 18 -14 21 -14 7z"/>
<path d="M2932 5720 c0 -14 2 -19 5 -12 2 6 2 18 0 25 -3 6 -5 1 -5 -13z"/>
<path d="M2606 5618 c-55 -128 -70 -215 -55 -312 6 -33 8 -69 5 -80 -3 -10 1
-47 9 -80 8 -34 19 -104 24 -156 l10 -95 -5 100 c-2 55 -9 143 -14 195 -16
168 -20 216 -12 185 10 -41 25 -16 17 30 -3 19 -7 51 -10 70 -4 21 -2 35 5 35
5 0 11 -17 12 -37 1 -37 1 -37 5 -5 2 17 8 32 14 32 5 0 9 20 9 44 0 25 5 48
10 51 6 3 10 19 10 35 0 15 5 30 11 32 6 2 9 18 7 37 -3 29 -8 20 -52 -81z"/>
<path d="M2773 5685 c0 -22 2 -30 4 -17 2 12 2 30 0 40 -3 9 -5 -1 -4 -23z"/>
<path d="M3051 5669 c1 -30 5 -79 9 -109 6 -39 7 -24 3 50 -6 111 -14 150 -12
59z"/>
<path d="M2991 5664 c0 -11 3 -14 6 -6 3 7 2 16 -1 19 -3 4 -6 -2 -5 -13z"/>
<path d="M2733 5615 c0 -27 2 -38 4 -22 2 15 2 37 0 50 -2 12 -4 0 -4 -28z"/>
<path d="M3172 5640 c0 -14 2 -19 5 -12 2 6 2 18 0 25 -3 6 -5 1 -5 -13z"/>
<path d="M2843 5510 c0 -25 2 -35 4 -22 2 12 2 32 0 45 -2 12 -4 2 -4 -23z"/>
<path d="M3092 5500 c0 -19 2 -27 5 -17 2 9 2 25 0 35 -3 9 -5 1 -5 -18z"/>
<path d="M3072 5465 c0 -16 2 -22 5 -12 2 9 2 23 0 30 -3 6 -5 -1 -5 -18z"/>
<path d="M3102 5440 c0 -14 2 -19 5 -12 2 6 2 18 0 25 -3 6 -5 1 -5 -13z"/>
<path d="M3212 5430 c0 -14 2 -19 5 -12 2 6 2 18 0 25 -3 6 -5 1 -5 -13z"/>
<path d="M2853 5385 c0 -27 2 -38 4 -22 2 15 2 37 0 50 -2 12 -4 0 -4 -28z"/>
<path d="M2518 5410 c-9 -21 -28 -179 -27 -215 1 -29 1 -30 9 -5 4 14 8 44 9
68 1 46 21 59 22 15 0 -16 2 -23 5 -18 2 6 0 46 -4 90 -5 44 -11 73 -14 65z"/>
<path d="M2742 5380 c0 -19 2 -27 5 -17 2 9 2 25 0 35 -3 9 -5 1 -5 -18z"/>
<path d="M2942 5370 c0 -14 2 -19 5 -12 2 6 2 18 0 25 -3 6 -5 1 -5 -13z"/>
<path d="M3111 5374 c0 -11 3 -14 6 -6 3 7 2 16 -1 19 -3 4 -6 -2 -5 -13z"/>
<path d="M3391 5354 c0 -11 3 -14 6 -6 3 7 2 16 -1 19 -3 4 -6 -2 -5 -13z"/>
<path d="M2662 5330 c0 -19 2 -27 5 -17 2 9 2 25 0 35 -3 9 -5 1 -5 -18z"/>
<path d="M2912 5320 c0 -14 2 -19 5 -12 2 6 2 18 0 25 -3 6 -5 1 -5 -13z"/>
<path d="M3122 5325 c0 -11 4 -33 8 -50 7 -27 8 -27 8 -5 0 14 -4 36 -8 50 -6
20 -8 21 -8 5z"/>
<path d="M2862 5300 c0 -19 2 -27 5 -17 2 9 2 25 0 35 -3 9 -5 1 -5 -18z"/>
<path d="M3191 5304 c0 -11 3 -14 6 -6 3 7 2 16 -1 19 -3 4 -6 -2 -5 -13z"/>
<path d="M2732 5280 c0 -19 2 -27 5 -17 2 9 2 25 0 35 -3 9 -5 1 -5 -18z"/>
<path d="M2684 5155 c0 -82 2 -115 3 -72 2 43 2 110 0 150 -1 40 -3 5 -3 -78z"/>
<path d="M2921 5274 c0 -11 3 -14 6 -6 3 7 2 16 -1 19 -3 4 -6 -2 -5 -13z"/>
<path d="M2872 5240 c0 -14 2 -19 5 -12 2 6 2 18 0 25 -3 6 -5 1 -5 -13z"/>
<path d="M2931 5234 c0 -11 3 -14 6 -6 3 7 2 16 -1 19 -3 4 -6 -2 -5 -13z"/>
<path d="M3031 5224 c0 -11 3 -14 6 -6 3 7 2 16 -1 19 -3 4 -6 -2 -5 -13z"/>
<path d="M3145 5202 c8 -64 27 -149 32 -136 2 6 -6 49 -17 95 -11 46 -18 65
-15 41z"/>
<path d="M2722 5205 c0 -16 2 -22 5 -12 2 9 2 23 0 30 -3 6 -5 -1 -5 -18z"/>
<path d="M2882 5190 c0 -14 2 -19 5 -12 2 6 2 18 0 25 -3 6 -5 1 -5 -13z"/>
<path d="M2941 5184 c0 -11 3 -14 6 -6 3 7 2 16 -1 19 -3 4 -6 -2 -5 -13z"/>
<path d="M2607 5110 c3 -47 9 -92 14 -100 12 -22 10 8 -6 105 l-14 80 6 -85z"/>
<path d="M2742 5155 c0 -16 2 -22 5 -12 2 9 2 23 0 30 -3 6 -5 -1 -5 -18z"/>
<path d="M2653 5130 c0 -25 2 -35 4 -22 2 12 2 32 0 45 -2 12 -4 2 -4 -23z"/>
<path d="M2448 5103 c-3 -63 -6 -127 -12 -243 -4 -71 -3 -85 4 -55 12 49 26
345 17 345 -4 0 -8 -21 -9 -47z"/>
<path d="M2712 5115 c0 -16 2 -22 5 -12 2 9 2 23 0 30 -3 6 -5 -1 -5 -18z"/>
<path d="M2733 5080 c0 -25 2 -35 4 -22 2 12 2 32 0 45 -2 12 -4 2 -4 -23z"/>
<path d="M2927 5085 c3 -22 7 -42 9 -44 8 -9 2 45 -6 64 -7 14 -8 8 -3 -20z"/>
<path d="M2762 5070 c0 -14 2 -19 5 -12 2 6 2 18 0 25 -3 6 -5 1 -5 -13z"/>
<path d="M2802 5040 c0 -14 2 -19 5 -12 2 6 2 18 0 25 -3 6 -5 1 -5 -13z"/>
<path d="M2513 4970 c0 -36 2 -50 4 -32 2 17 2 47 0 65 -2 17 -4 3 -4 -33z"/>
<path d="M2723 4940 c-1 -52 3 -106 7 -120 7 -23 8 -22 9 11 1 20 3 49 5 65 2
17 1 21 -3 9 -3 -11 -8 14 -12 55 l-5 75 -1 -95z"/>
<path d="M2752 5010 c0 -14 2 -19 5 -12 2 6 2 18 0 25 -3 6 -5 1 -5 -13z"/>
<path d="M2812 4960 c0 -14 2 -19 5 -12 2 6 2 18 0 25 -3 6 -5 1 -5 -13z"/>
<path d="M2620 4935 c0 -8 4 -15 10 -15 5 0 7 7 4 15 -4 8 -8 15 -10 15 -2 0
-4 -7 -4 -15z"/>
<path d="M2572 4890 c0 -14 2 -19 5 -12 2 6 2 18 0 25 -3 6 -5 1 -5 -13z"/>
<path d="M2632 4880 c0 -19 2 -27 5 -17 2 9 2 25 0 35 -3 9 -5 1 -5 -18z"/>
<path d="M2523 4840 c0 -36 2 -50 4 -32 2 17 2 47 0 65 -2 17 -4 3 -4 -33z"/>
<path d="M2582 4820 c0 -19 2 -27 5 -17 2 9 2 25 0 35 -3 9 -5 1 -5 -18z"/>
<path d="M2447 4773 c-3 -27 -1 -52 4 -57 5 -6 9 12 9 47 0 31 -2 57 -4 57 -2
0 -6 -21 -9 -47z"/>
<path d="M2642 4795 c0 -16 2 -22 5 -12 2 9 2 23 0 30 -3 6 -5 -1 -5 -18z"/>
<path d="M2671 4744 c0 -11 3 -14 6 -6 3 7 2 16 -1 19 -3 4 -6 -2 -5 -13z"/>
<path d="M2211 4674 c0 -11 3 -14 6 -6 3 7 2 16 -1 19 -3 4 -6 -2 -5 -13z"/>
<path d="M2122 4645 c0 -16 2 -22 5 -12 2 9 2 23 0 30 -3 6 -5 -1 -5 -18z"/>
<path d="M2521 4589 c0 -19 4 -43 9 -54 6 -13 7 -2 3 30 -7 59 -13 72 -12 24z"/>
<path d="M2313 4535 c0 -33 2 -45 4 -27 2 18 2 45 0 60 -2 15 -4 0 -4 -33z"/>
<path d="M2054 4460 c0 -69 1 -97 3 -62 2 34 2 90 0 125 -2 34 -3 6 -3 -63z"/>
<path d="M2102 4495 c-3 -86 15 -260 38 -367 34 -161 69 -304 69 -283 1 11 -8
58 -20 105 -40 164 -68 358 -82 560 -3 38 -4 35 -5 -15z"/>
<path d="M2072 4450 c0 -19 2 -27 5 -17 2 9 2 25 0 35 -3 9 -5 1 -5 -18z"/>
<path d="M2341 4464 c0 -11 3 -14 6 -6 3 7 2 16 -1 19 -3 4 -6 -2 -5 -13z"/>
<path d="M2323 4435 c0 -22 2 -30 4 -17 2 12 2 30 0 40 -3 9 -5 -1 -4 -23z"/>
<path d="M2142 4425 c0 -16 2 -22 5 -12 2 9 2 23 0 30 -3 6 -5 -1 -5 -18z"/>
<path d="M2152 4355 c0 -16 2 -22 5 -12 2 9 2 23 0 30 -3 6 -5 -1 -5 -18z"/>
<path d="M2083 4330 c0 -25 2 -35 4 -22 2 12 2 32 0 45 -2 12 -4 2 -4 -23z"/>
<path d="M1963 4265 c0 -38 2 -53 4 -32 2 20 2 52 0 70 -2 17 -4 1 -4 -38z"/>
<path d="M2065 4232 c3 -52 10 -101 15 -110 11 -18 10 -8 -10 138 -9 61 -9 59
-5 -28z"/>
<path d="M2161 4304 c0 -11 3 -14 6 -6 3 7 2 16 -1 19 -3 4 -6 -2 -5 -13z"/>
<path d="M2001 4284 c0 -11 3 -14 6 -6 3 7 2 16 -1 19 -3 4 -6 -2 -5 -13z"/>
<path d="M2092 4245 c0 -16 2 -22 5 -12 2 9 2 23 0 30 -3 6 -5 -1 -5 -18z"/>
<path d="M1993 4185 c0 -33 2 -45 4 -27 2 18 2 45 0 60 -2 15 -4 0 -4 -33z"/>
<path d="M2102 4180 c0 -14 2 -19 5 -12 2 6 2 18 0 25 -3 6 -5 1 -5 -13z"/>
<path d="M1881 4174 c0 -11 3 -14 6 -6 3 7 2 16 -1 19 -3 4 -6 -2 -5 -13z"/>
<path d="M2292 4150 c0 -14 2 -19 5 -12 2 6 2 18 0 25 -3 6 -5 1 -5 -13z"/>
<path d="M2271 4144 c0 -11 3 -14 6 -6 3 7 2 16 -1 19 -3 4 -6 -2 -5 -13z"/>
<path d="M2112 4130 c0 -14 4 -36 8 -50 6 -20 8 -21 8 -5 0 11 -4 34 -8 50 -7
27 -8 27 -8 5z"/>
<path d="M1990 4088 c0 -13 5 -30 10 -38 7 -11 10 -7 10 17 0 17 -4 35 -10 38
-6 3 -10 -4 -10 -17z"/>
<path d="M2132 4035 c0 -11 4 -31 8 -45 6 -20 8 -21 8 -5 0 11 -4 31 -8 45 -6
20 -8 21 -8 5z"/>
<path d="M1981 3895 c-1 -11 -4 -31 -6 -45 l-6 -25 11 25 c6 13 9 33 7 45 -4
19 -4 19 -6 0z"/>
<path d="M2141 3874 c0 -11 3 -14 6 -6 3 7 2 16 -1 19 -3 4 -6 -2 -5 -13z"/>
<path d="M3469 3793 c-13 -16 -12 -17 4 -4 16 13 21 21 13 21 -2 0 -10 -8 -17
-17z"/>
<path d="M3410 3485 c0 -8 12 -18 27 -21 77 -20 475 -184 748 -309 94 -42 262
-117 375 -165 113 -49 261 -114 330 -145 357 -163 848 -368 1009 -421 72 -24
210 -55 241 -54 8 1 -32 14 -90 29 -58 16 -125 35 -150 42 -43 11 -143 50
-275 106 -68 28 -174 76 -425 191 -96 44 -330 148 -520 232 -190 84 -433 192
-540 240 -338 152 -514 225 -638 264 -98 31 -92 30 -92 11z"/>
<path d="M2701 3135 c0 -5 6 -30 13 -55 8 -25 15 -36 15 -25 -1 21 -27 98 -28
80z"/>
<path d="M2646 3007 c3 -10 9 -15 12 -12 3 3 0 11 -7 18 -10 9 -11 8 -5 -6z"/>
<path d="M2125 2920 c17 -20 38 -47 48 -60 l17 -25 -14 30 c-8 17 -29 44 -47
60 l-33 30 29 -35z"/>
<path d="M2673 2865 c0 -22 2 -30 4 -17 2 12 2 30 0 40 -3 9 -5 -1 -4 -23z"/>
<path d="M2642 2870 c0 -14 2 -19 5 -12 2 6 2 18 0 25 -3 6 -5 1 -5 -13z"/>
<path d="M2962 2840 c0 -14 2 -19 5 -12 2 6 2 18 0 25 -3 6 -5 1 -5 -13z"/>
<path d="M2711 2840 c-1 -8 -4 -26 -7 -40 -5 -22 -4 -23 6 -7 6 10 9 28 7 40
-2 12 -5 15 -6 7z"/>
<path d="M2993 2725 c0 -75 -7 -158 -15 -195 -8 -37 -11 -75 -7 -85 4 -11 8
-15 8 -10 1 6 8 60 16 120 16 119 18 197 7 260 -5 27 -8 -3 -9 -90z"/>
<path d="M2130 2821 c0 -5 7 -15 17 -22 15 -13 15 -12 4 9 -12 23 -21 28 -21
13z"/>
<path d="M2643 2795 c0 -22 2 -30 4 -17 2 12 2 30 0 40 -3 9 -5 -1 -4 -23z"/>
<path d="M2210 2795 c13 -14 25 -25 27 -25 9 0 -33 49 -41 50 -5 0 1 -11 14
-25z"/>
<path d="M2611 2804 c0 -11 3 -14 6 -6 3 7 2 16 -1 19 -3 4 -6 -2 -5 -13z"/>
<path d="M3021 2804 c0 -11 3 -14 6 -6 3 7 2 16 -1 19 -3 4 -6 -2 -5 -13z"/>
<path d="M2491 2794 c0 -11 3 -14 6 -6 3 7 2 16 -1 19 -3 4 -6 -2 -5 -13z"/>
<path d="M2250 2780 c0 -11 4 -20 9 -20 5 0 7 9 4 20 -3 11 -7 20 -9 20 -2 0
-4 -9 -4 -20z"/>
<path d="M2170 2781 c0 -5 12 -11 27 -14 26 -5 26 -4 8 9 -22 16 -35 18 -35 5z"/>
<path d="M2442 2760 c0 -14 2 -19 5 -12 2 6 2 18 0 25 -3 6 -5 1 -5 -13z"/>
<path d="M2612 2760 c0 -14 2 -19 5 -12 2 6 2 18 0 25 -3 6 -5 1 -5 -13z"/>
<path d="M2969 2728 c-2 -48 -2 -50 -8 -18 -6 30 -8 25 -15 -40 -4 -41 -11
-88 -16 -105 -15 -52 -21 -122 -10 -105 5 8 10 29 11 45 0 17 4 39 9 50 5 13
7 -2 4 -40 l-4 -60 14 75 c17 91 31 250 22 250 -3 0 -7 -24 -7 -52z"/>
<path d="M3033 2735 c0 -27 2 -38 4 -22 2 15 2 37 0 50 -2 12 -4 0 -4 -28z"/>
<path d="M2895 2744 c-4 -16 -13 -50 -21 -76 -8 -26 -14 -71 -15 -100 l-1 -53
-9 40 c-7 30 -6 55 7 101 9 34 14 68 12 74 -2 7 -12 -23 -22 -66 -17 -76 -18
-83 -1 -158 22 -100 38 -87 36 31 -1 48 5 119 13 158 8 38 13 71 11 73 -2 3
-7 -9 -10 -24z"/>
<path d="M2492 2740 c0 -14 2 -19 5 -12 2 6 2 18 0 25 -3 6 -5 1 -5 -13z"/>
<path d="M2131 2734 c0 -11 3 -14 6 -6 3 7 2 16 -1 19 -3 4 -6 -2 -5 -13z"/>
<path d="M2222 2695 c0 -16 2 -22 5 -12 2 9 2 23 0 30 -3 6 -5 -1 -5 -18z"/>
<path d="M3032 2640 c0 -19 2 -27 5 -17 2 9 2 25 0 35 -3 9 -5 1 -5 -18z"/>
<path d="M2282 2640 c0 -14 2 -19 5 -12 2 6 2 18 0 25 -3 6 -5 1 -5 -13z"/>
<path d="M2330 2634 c0 -8 5 -12 10 -9 6 4 8 11 5 16 -9 14 -15 11 -15 -7z"/>
<path d="M3022 2565 c0 -16 2 -22 5 -12 2 9 2 23 0 30 -3 6 -5 -1 -5 -18z"/>
<path d="M2903 2545 c0 -22 2 -30 4 -17 2 12 2 30 0 40 -3 9 -5 -1 -4 -23z"/>
<path d="M2765 2451 c-3 -5 -1 -12 5 -16 5 -3 10 1 10 9 0 18 -6 21 -15 7z"/>
<path d="M6243 2389 c-53 -10 -66 -22 -39 -32 34 -13 49 -69 54 -196 4 -104 3
-123 -9 -116 -11 7 -12 6 -2 -6 13 -17 12 -39 -21 -284 -29 -208 -45 -299 -82
-449 -24 -98 -28 -123 -20 -115 12 11 57 210 80 350 80 482 88 688 32 820 -6
13 2 17 42 22 28 3 78 2 113 -4 35 -5 84 -11 109 -14 39 -4 37 -3 -15 10 -85
20 -181 25 -242 14z"/>
<path d="M2921 2374 c0 -11 3 -14 6 -6 3 7 2 16 -1 19 -3 4 -6 -2 -5 -13z"/>
<path d="M6308 2363 c7 -3 16 -2 19 1 4 3 -2 6 -13 5 -11 0 -14 -3 -6 -6z"/>
<path d="M6558 2353 c6 -2 18 -2 25 0 6 3 1 5 -13 5 -14 0 -19 -2 -12 -5z"/>
<path d="M2873 2313 c-3 -10 -8 -22 -10 -28 -3 -5 3 -1 11 9 16 20 21 36 11
36 -3 0 -8 -8 -12 -17z"/>
<path d="M5780 2176 c0 -2 8 -10 18 -17 15 -13 16 -12 3 4 -13 16 -21 21 -21
13z"/>
<path d="M1535 1770 l-30 -8 35 -2 c23 -1 0 -8 -65 -19 -145 -26 -236 -82
-277 -171 -45 -98 -14 -229 73 -304 50 -43 94 -49 244 -38 85 6 123 14 165 34
94 44 100 53 101 166 1 72 3 88 9 63 5 -19 6 -40 3 -48 -3 -7 0 -13 6 -13 17
0 13 57 -8 103 -10 23 -21 53 -23 67 -1 14 -5 27 -8 30 -3 3 -20 28 -38 55
l-33 50 35 -37 c20 -21 36 -34 36 -29 0 10 -37 51 -64 71 -16 12 -18 12 -12 1
6 -9 5 -12 -5 -9 -8 3 -13 10 -12 16 2 7 -4 9 -14 5 -11 -4 -14 -3 -9 5 5 8
-2 12 -23 12 -16 0 -35 2 -43 4 -7 2 -26 0 -43 -4z m140 -65 c23 -19 49 -49
58 -67 17 -37 32 -203 22 -247 -6 -28 -7 -28 -46 -19 -21 6 -39 14 -39 19 0 5
-6 9 -14 9 -8 0 -24 12 -35 28 -11 15 -20 23 -21 17 0 -21 41 -76 70 -94 l31
-18 -28 -11 c-15 -6 -44 -16 -63 -21 l-35 -11 38 6 c54 7 45 -2 -20 -22 -62
-18 -216 -30 -255 -21 -54 14 -129 114 -143 191 -9 47 19 147 49 175 51 47
152 91 242 105 135 21 142 20 189 -19z m45 -385 c-8 -5 -19 -10 -25 -10 -5 0
-3 5 5 10 8 5 20 10 25 10 6 0 3 -5 -5 -10z"/>
<path d="M1654 1635 c-30 -21 -54 -77 -53 -122 1 -25 3 -30 6 -13 9 56 35 106
65 128 18 12 26 22 18 22 -9 0 -25 -7 -36 -15z"/>
<path d="M1478 1753 c7 -3 16 -2 19 1 4 3 -2 6 -13 5 -11 0 -14 -3 -6 -6z"/>
<path d="M2132 1590 c0 -14 2 -19 5 -12 2 6 2 18 0 25 -3 6 -5 1 -5 -13z"/>
<path d="M2142 1490 c0 -19 2 -27 5 -17 2 9 2 25 0 35 -3 9 -5 1 -5 -18z"/>
<path d="M3411 1419 c-29 -33 -47 -59 -40 -59 12 0 47 37 88 93 28 40 3 21
-48 -34z"/>
<path d="M5364 1448 c-9 -18 -31 -53 -47 -78 -17 -24 -32 -52 -32 -61 -2 -20
-38 -73 -83 -121 -40 -42 -41 -59 -2 -24 42 37 85 98 115 161 15 33 38 81 51
108 14 26 22 47 19 47 -2 0 -12 -15 -21 -32z"/>
<path d="M3322 1336 c-29 -17 -38 -26 -25 -26 6 0 21 9 34 20 27 22 24 24 -9
6z"/>
<path d="M3630 1290 c-8 -5 -10 -10 -5 -10 6 0 17 5 25 10 8 5 11 10 5 10 -5
0 -17 -5 -25 -10z"/>
<path d="M3638 1253 c7 -3 16 -2 19 1 4 3 -2 6 -13 5 -11 0 -14 -3 -6 -6z"/>
<path d="M4735 1214 l-30 -26 33 22 c17 12 32 23 32 26 0 7 -4 5 -35 -22z"/>
<path d="M6078 1078 c-19 -57 -38 -112 -42 -123 -5 -13 -2 -11 8 5 19 31 80
210 74 216 -3 2 -21 -42 -40 -98z"/>
<path d="M5245 1130 c-3 -5 -2 -10 4 -10 5 0 13 5 16 10 3 6 2 10 -4 10 -5 0
-13 -4 -16 -10z"/>
<path d="M4975 1072 c-58 -30 -84 -38 -150 -43 l-80 -6 65 -1 c63 -2 140 13
150 28 3 4 24 17 48 29 23 12 42 24 42 26 0 7 2 8 -75 -33z"/>
<path d="M5195 1030 c-3 -5 -1 -10 4 -10 6 0 11 5 11 10 0 6 -2 10 -4 10 -3 0
-8 -4 -11 -10z"/>
<path d="M5255 1030 c-3 -5 -13 -6 -23 -3 -9 3 -13 2 -9 -2 4 -5 20 -10 35
-11 15 -1 34 -5 43 -9 9 -3 21 0 27 8 10 11 6 13 -18 12 -17 -1 -30 2 -30 7 0
11 -17 10 -25 -2z"/>
<path d="M4688 993 c6 -2 18 -2 25 0 6 3 1 5 -13 5 -14 0 -19 -2 -12 -5z"/>
<path d="M4140 936 c0 -3 9 -10 20 -16 11 -6 20 -8 20 -6 0 3 -9 10 -20 16
-11 6 -20 8 -20 6z"/>
<path d="M4460 914 c30 -7 80 -15 110 -18 38 -4 25 1 -40 14 -109 21 -152 24
-70 4z"/>
<path d="M5319 913 c-13 -16 -12 -17 4 -4 9 7 17 15 17 17 0 8 -8 3 -21 -13z"/>
<path d="M4310 910 c8 -5 20 -10 25 -10 6 0 3 5 -5 10 -8 5 -19 10 -25 10 -5
0 -3 -5 5 -10z"/>
<path d="M4358 913 c7 -3 16 -2 19 1 4 3 -2 6 -13 5 -11 0 -14 -3 -6 -6z"/>
<path d="M4633 913 c15 -2 37 -2 50 0 12 2 0 4 -28 4 -27 0 -38 -2 -22 -4z"/>
<path d="M5379 903 c-13 -16 -12 -17 4 -4 16 13 21 21 13 21 -2 0 -10 -8 -17
-17z"/>
<path d="M5409 900 c-13 -10 -19 -19 -13 -20 6 0 19 9 29 20 23 26 14 26 -16
0z"/>
<path d="M4428 893 c7 -3 16 -2 19 1 4 3 -2 6 -13 5 -11 0 -14 -3 -6 -6z"/>
<path d="M5619 863 c-13 -16 -12 -17 4 -4 9 7 17 15 17 17 0 8 -8 3 -21 -13z"/>
</g>
</svg>
